<svg width="50" height="50" viewBox="0 0 50 50" fill="none" xmlns="http://www.w3.org/2000/svg">
<path fill-rule="evenodd" clip-rule="evenodd" d="M5.14361 20.7687C5.28876 20.6232 5.46118 20.5078 5.65101 20.429C5.84084 20.3502 6.04434 20.3097 6.24986 20.3097C6.45539 20.3097 6.65889 20.3502 6.84872 20.429C7.03855 20.5078 7.21097 20.6232 7.35611 20.7687L24.9999 38.4156L42.6436 20.7687C42.937 20.4753 43.3349 20.3105 43.7499 20.3105C44.1648 20.3105 44.5627 20.4753 44.8561 20.7687C45.1495 21.0621 45.3143 21.4601 45.3143 21.875C45.3143 22.2899 45.1495 22.6878 44.8561 22.9812L26.1061 41.7312C25.961 41.8767 25.7885 41.9922 25.5987 42.071C25.4089 42.1497 25.2054 42.1903 24.9999 42.1903C24.7943 42.1903 24.5908 42.1497 24.401 42.071C24.2112 41.9922 24.0388 41.8767 23.8936 41.7312L5.14361 22.9812C4.9981 22.8361 4.88266 22.6637 4.80389 22.4738C4.72512 22.284 4.68457 22.0805 4.68457 21.875C4.68457 21.6695 4.72512 21.466 4.80389 21.2761C4.88266 21.0863 4.9981 20.9139 5.14361 20.7687V20.7687Z" fill="#3A494C"/>
<path fill-rule="evenodd" clip-rule="evenodd" d="M5.14361 8.26874C5.28876 8.12323 5.46118 8.00778 5.65101 7.92901C5.84084 7.85024 6.04434 7.80969 6.24986 7.80969C6.45539 7.80969 6.65889 7.85024 6.84872 7.92901C7.03855 8.00778 7.21097 8.12323 7.35611 8.26874L24.9999 25.9156L42.6436 8.26874C42.7889 8.12346 42.9614 8.00822 43.1512 7.9296C43.341 7.85098 43.5444 7.81051 43.7499 7.81051C43.9553 7.81051 44.1588 7.85098 44.3486 7.9296C44.5384 8.00822 44.7108 8.12346 44.8561 8.26874C45.0014 8.41401 45.1166 8.58648 45.1952 8.77629C45.2739 8.9661 45.3143 9.16954 45.3143 9.37499C45.3143 9.58044 45.2739 9.78387 45.1952 9.97368C45.1166 10.1635 45.0014 10.336 44.8561 10.4812L26.1061 29.2312C25.961 29.3767 25.7885 29.4922 25.5987 29.571C25.4089 29.6497 25.2054 29.6903 24.9999 29.6903C24.7943 29.6903 24.5908 29.6497 24.401 29.571C24.2112 29.4922 24.0388 29.3767 23.8936 29.2312L5.14361 10.4812C4.9981 10.3361 4.88266 10.1637 4.80389 9.97384C4.72512 9.78401 4.68457 9.58051 4.68457 9.37499C4.68457 9.16946 4.72512 8.96596 4.80389 8.77613C4.88266 8.5863 4.9981 8.41388 5.14361 8.26874V8.26874Z" fill="#3A494C"/>
</svg>
