<svg width="16" height="15" viewBox="0 0 16 15" fill="none" xmlns="http://www.w3.org/2000/svg">
<path d="M8.21979 8.125H9.48438C9.65208 8.125 9.8129 8.19085 9.93148 8.30806C10.0501 8.42527 10.1167 8.58424 10.1167 8.75C10.1167 8.91576 10.0501 9.07473 9.93148 9.19194C9.8129 9.30915 9.65208 9.375 9.48438 9.375H7.58749C7.50439 9.37525 7.42206 9.35925 7.34523 9.32793C7.2684 9.29661 7.1986 9.25058 7.13984 9.19249C7.08107 9.13441 7.03451 9.06541 7.00282 8.98947C6.97113 8.91353 6.95495 8.83215 6.9552 8.75V6.25C6.9552 6.08424 7.02182 5.92527 7.14039 5.80806C7.25897 5.69085 7.4198 5.625 7.58749 5.625C7.75519 5.625 7.91602 5.69085 8.0346 5.80806C8.15317 5.92527 8.21979 6.08424 8.21979 6.25V8.125ZM3.71089 5.53813C3.56642 5.4719 3.44114 5.37077 3.34662 5.24408C3.2521 5.11739 3.19137 4.96922 3.17004 4.81322C3.1487 4.65722 3.16745 4.49843 3.22456 4.35148C3.28166 4.20453 3.37528 4.07416 3.49678 3.9724C3.61828 3.87063 3.76374 3.80074 3.91976 3.76918C4.07578 3.73762 4.23733 3.74539 4.38951 3.7918C4.54168 3.8382 4.67959 3.92173 4.79051 4.03469C4.90142 4.14764 4.98178 4.28639 5.02417 4.43813C5.25203 4.30567 5.49009 4.19115 5.73613 4.09563C5.4596 3.90569 5.25167 3.63343 5.14261 3.31851C5.03356 3.0036 5.0291 2.66249 5.12987 2.3449C5.23064 2.0273 5.43139 1.74981 5.70285 1.55287C5.97432 1.35592 6.30232 1.24981 6.63905 1.25H8.53594C8.87267 1.24981 9.20067 1.35592 9.47214 1.55287C9.7436 1.74981 9.94434 2.0273 10.0451 2.3449C10.1459 2.66249 10.1414 3.0036 10.0324 3.31851C9.92332 3.63343 9.71538 3.90569 9.43886 4.09563C9.68545 4.19188 9.92383 4.30625 10.1508 4.43813C10.1932 4.28639 10.2736 4.14764 10.3845 4.03469C10.4954 3.92173 10.6333 3.8382 10.7855 3.7918C10.9377 3.74539 11.0992 3.73762 11.2552 3.76918C11.4112 3.80074 11.5567 3.87063 11.6782 3.9724C11.7997 4.07416 11.8933 4.20453 11.9504 4.35148C12.0075 4.49843 12.0263 4.65722 12.005 4.81322C11.9836 4.96922 11.9229 5.11739 11.8284 5.24408C11.7338 5.37077 11.6086 5.4719 11.4641 5.53813C12.0824 6.2674 12.4774 7.15593 12.6026 8.09936C12.7278 9.0428 12.578 10.002 12.171 10.8642C11.7639 11.7264 11.1163 12.456 10.3044 12.9671C9.49244 13.4782 8.5498 13.7497 7.58718 13.7497C6.62456 13.7497 5.68192 13.4782 4.86997 12.9671C4.05803 12.456 3.41048 11.7264 3.0034 10.8642C2.59631 10.002 2.44657 9.0428 2.57178 8.09936C2.69699 7.15593 3.09195 6.2674 3.71026 5.53813H3.71089ZM7.58749 12.5C8.0857 12.5 8.57903 12.403 9.03931 12.2146C9.49959 12.0261 9.91781 11.7499 10.2701 11.4017C10.6224 11.0534 10.9018 10.64 11.0925 10.1851C11.2831 9.73009 11.3813 9.24246 11.3813 8.75C11.3813 8.25754 11.2831 7.76991 11.0925 7.31494C10.9018 6.85997 10.6224 6.44657 10.2701 6.09835C9.91781 5.75013 9.49959 5.47391 9.03931 5.28545C8.57903 5.097 8.0857 5 7.58749 5C6.58132 5 5.61636 5.39509 4.90489 6.09835C4.19342 6.80161 3.79372 7.75544 3.79372 8.75C3.79372 9.74456 4.19342 10.6984 4.90489 11.4017C5.61636 12.1049 6.58132 12.5 7.58749 12.5ZM6.63905 2.5C6.5552 2.5 6.47479 2.53292 6.4155 2.59153C6.35621 2.65013 6.3229 2.72962 6.3229 2.8125C6.3229 2.89538 6.35621 2.97487 6.4155 3.03347C6.47479 3.09208 6.5552 3.125 6.63905 3.125H8.53594C8.61979 3.125 8.7002 3.09208 8.75949 3.03347C8.81878 2.97487 8.85209 2.89538 8.85209 2.8125C8.85209 2.72962 8.81878 2.65013 8.75949 2.59153C8.7002 2.53292 8.61979 2.5 8.53594 2.5H6.63905Z" fill="#3A494C"/>
</svg>
