<svg id="Calque_1" data-name="Calque 1" xmlns="http://www.w3.org/2000/svg" viewBox="0 0 351.35 501.48"><defs><style>.cls-1{fill:#b0c4ab;}.cls-2{fill:#5f777b;}.cls-3{fill:#8fa79a;}.cls-4{fill:#13171a;}.cls-5{fill:#e79a76;}.cls-6{fill:#495859;}.cls-7{fill:#728c87;}.cls-8{fill:#eed8c8;}.cls-9{fill:#272828;}.cls-10{fill:#282a2a;}.cls-11{fill:#f4cabb;}.cls-12{fill:#2a3939;}.cls-13{fill:#5f767a;}.cls-14{fill:#39484b;}.cls-15{fill:#e3bb92;}</style></defs><path class="cls-1" d="M12.15,166.78c-1.67-6.93-3.05-13.94-6.42-20.37a8.16,8.16,0,0,1-1-5.81C6.7,133,8.7,125.49,10.61,117.92a3.08,3.08,0,0,1,3.71-2.5c3.26.34,5.77-1.19,8.22-3,7.51-5.47,15.33-10.48,21-18.2,3.35-4.6,8-4.68,12.4-1.07,3.92,3.18,6.08,3.07,9.23-.86C69,87.47,71.52,81.78,74,76.16s5.28-9.53,12.48-8.91c5.45.48,9.19-3.4,11.64-8,3.26-6.18,6.25-12.5,9.42-18.72,3.33-6.53,6.88-6.18,12.16-1.17,10,9.47,17.16,21,25.73,31.56,4.69,5.76,11.41,7.76,18.21,9.55a57.8,57.8,0,0,0,12,3.08c5.06.85,10.16,1.46,14,5.51a44.44,44.44,0,0,0,5.87,5.36c6.61,4.84,12.78,6,18.13-.27,1.26-1.47,3.11-2.46,4.74-3.61,8.2-5.77,11.72-5.58,19.47.76,8.61,7,16.52,14.85,24.68,22.39a39.1,39.1,0,0,1-8,7.44c-1.48,1-3.15,1.94-4.63,1.14-6.2-3.38-11.21-.18-16.26,2.67-11.6,6.56-23.56,7.38-36,2.72-5-1.87-10.16-1.71-15.24-.61-14.81,3.22-26.06,12.25-35.82,23.14a19.52,19.52,0,0,1-11.71,6.65c-2.12.38-4.24.79-6.36,1.13q-12.66,2-25.32,4c.23-.82,1.87-1.93.49-2.37-2.64-.85-2.92-3-4.14-4.9-3.27-5.1-7.28,0-11-.18-1.69-.09-2.74.81-2.56,2.29.35,3-1.57,5.11-2.85,7.2-1.66,2.69-3.4,5.16-3.61,8.41-2.44-4.17-6.61-5.14-10.89-5.93-8-1.46-16.23-1.34-23.78-4.56a17.17,17.17,0,0,0-11.6-.84C26.17,162.91,19.17,164.87,12.15,166.78ZM137.49,83.45l-.32-.21.36.17c1.78,10.43,7.13,14.93,14.94,12.42-2.47-1-3.48-2-.51-3.8,3.72-2.23,4.53-6.09,5.54-10.86-1.27,1-1.78,1.32-2.24,1.72C146.36,90.74,146.36,90.75,137.49,83.45ZM98.91,79.62c-.5-14,10.2-23.24,14.26-35.23a55.59,55.59,0,0,0-9.81,14.21c-3.39,7.24-8.09,13.28-16,16.1a6.93,6.93,0,0,0-4,4.25c-2,5.22-1.58,11.15-6.5,16.59a9.24,9.24,0,0,0,6.11-4.93C85.28,86.8,87.58,83,90.2,79.32,92.64,75.92,95.43,75.34,98.91,79.62ZM39.84,117.06c3.47-1.67,3.49-1.65,5.75-4.79,1.27-1.76,2.58-3.53,4.56-4.5,6.1-3,6.34-5.32,1-9.34C47,104.25,40.58,108.81,39.84,117.06ZM229,90.31c-5.34,1.57-9.81,6.08-14.67,10a1,1,0,0,0,0,1.69,1.57,1.57,0,0,0,1.38.14c4.7-3.64,10.77-4.3,15.73-7.32,1.1-.66,2.28-1.68,1.65-3.25C232.53,90.14,231.12,90.58,229,90.31Z"/><path class="cls-2" d="M343.3,194.47c.59,4.09.73,8.16,2.67,12.07,1.69,3.43.41,7.41-1,10.68-4.86,11.42-4.12,23-1.95,34.73a23.84,23.84,0,0,1-2.4,16,7.61,7.61,0,0,0-.51,7.18c3,6.37,2.66,13.3,3.39,20,.65,5.85-2.32,11.37-2.13,17.24-4.71-4.6-5.75-10.91-7.23-17.65-1.7,2.5-1.49,4.35-1.65,6.15-.45,5.12-2,9.89-6.35,12.95a54.06,54.06,0,0,0-6.7,5.72c-1.94-1.55-1.22-4.26-2.63-6.19-2.09,4.19-.49,9-2.84,13l-11.58-3.15c-.49-1.67-1-3.35-1.5-5.08-.4.25-.84.36-.91.58-.29.93-.48,1.9-.7,2.85-11.64-3.36-23.22-6.9-35.09-9.43a21.15,21.15,0,0,1-7.77-3.22c-11.53-8.22-24.88-10.64-38.43-12.53-10.35-1.43-20.74-2.67-31.07-4.25-2.83-.43-6.58-.81-7.05-4.45-.41-3.25,2.83-4.61,5.22-6,2.85-1.7,6-2.93,8.74-4.77,3.33-2.23,3.19-4.35-.23-6.43a34.72,34.72,0,0,0-11.23-4c-8.61-1.78-17.24-3.5-25.86-5.25.11-1.67,1.23-2.61,2.43-3.57a47,47,0,0,1,19.75-9,30.33,30.33,0,0,0,17.79-11c2.84-3.5,6-6.62,9.1-9.85,3.63-3.8,8.26-4.92,13.24-4.23,10.3,1.42,20.53,3.58,30.87,4.51,7.48.67,15.33,1.91,22.48-2a369.77,369.77,0,0,0,33.28-20.75C317.32,199,329.28,193.1,343.3,194.47Z"/><path class="cls-3" d="M343.3,194.47c-14-1.37-26,4.52-37.83,10.78-5-4.48-12.09-5.62-16.81-10.43-4.87-5-10.21-8.76-17.19-10.31-11.61-2.59-23.33-2.26-35.08-2.19-6.7,0-12.79-1.62-16.68-8a10.85,10.85,0,0,0-7.16-5.07c-14.82-3-29.41-4.35-41.25,7.84-7.82,8-16.75,11.35-27.86,8.42-4.42-1.17-7.79,1.37-10.18,4.81-3,4.28-6.83,7.72-10.55,11.26-5.56,5.29-10.2,5.25-16.19.25a4.63,4.63,0,0,0-3-1.47c-.38-1.94-1.3-4-1-5.81.52-3.21,1.29-6-2.07-8.34-.76-.53-2.54-4.08,1.82-3.37,1.07.18,2.59-1,2.26-2.18-1.35-4.75.72-10.47-4-14.26.49-1.73,3.27-2,2.81-4.3l-.17-.2q12.66-2,25.32-4c2.12-.34,4.24-.75,6.36-1.13a19.52,19.52,0,0,0,11.71-6.65c9.76-10.89,21-19.92,35.82-23.14,5.08-1.1,10.27-1.26,15.24.61,12.44,4.66,24.4,3.84,36-2.72,5-2.85,10.06-6,16.26-2.67,1.48.8,3.15-.18,4.63-1.14a39.1,39.1,0,0,0,8-7.44c2.47-1.64,4.95-3.26,7.41-4.93,4.6-3.13,9-3.9,14.21-.66,5.76,3.56,11,8,17.32,10.68a7.67,7.67,0,0,0,5.91,2.88c.47.86.72,2.07,1.45,2.51,9.75,6,18.65,13.42,29.62,17.3,4,10.66,7.59,21.29,1.69,32.52-1.56,2.95-.9,6.09.58,9.08C342.46,186.61,343.67,190.37,343.3,194.47ZM197.08,135c-13.72-1.54-24.68,1.42-26.82,7.3C178.75,137.52,187.72,135.56,197.08,135ZM165,144.58c.66.33,1,.68,1.36.65a1.82,1.82,0,0,0,1.72-1.38c.19-.83-.45-1.2-1.11-.9A11.33,11.33,0,0,0,165,144.58Z"/><path class="cls-4" d="M52.75,423c-11.46-5-23.51-8.28-35.58-11.41-2.8-.72-4-1.71-4.3-4.9-.71-6.84-4.35-12.83-6.8-19.17-.3-.77-1.23-1.62-1.05-2.2,2.13-7.28-.71-15.56,3.53-22.17,5.14-8,5.61-8.33.68-16.27a16.71,16.71,0,0,1-1.78-14c2.44-7.77,2.5-15.69,3.06-23.62,3.2-.91,6.46-1.69,9.11-3.9l-.09.06,1-.1,1-.45c.31-.38.61-.76.92-1.13,2.54-1.23,4-3.42,5.24-5.82A52.9,52.9,0,0,1,38.1,284.61c5.76-5.61,12.13-9.35,20.65-9.64a125.4,125.4,0,0,0,23.76-2.72c4.18-1,7.09-3.37,7-7.83-.1-5.86,3-9.11,7.82-11.55,5.2-2.61,10.29-5.43,15.34-8.33,4.56-2.62,9.23-5.14,12.79-9.18.81.16,1.57.16,2-.69l8-5.63c-1.05,7.21-4.16,13.72-7,20.33-1.26,1.75-2.54,3.48-3.78,5.24-.52.74-1.76,1.82-.37,2.39,4.82,2,2,4.67.87,7.18-4,8.7-8.17,17.38-12.26,26.07-1.41,3-.14,4.88,2.75,5.63a27.8,27.8,0,0,0,5.42.41c3.67.22,5.34,2.62,3.92,6a9.09,9.09,0,0,1-2.7,3.48c-2.22,1.75-2.78,3.64-2.29,6.49,1.59,9.28-.26,17.36-8.67,23.06-2.29,1.55-4,3.95-6,5.95-4.43-2.78-2.26-8.11-4.52-11.68-2.29,14.94-3.23,17-10.48,22.67-6.79-4.86-7.58-12.62-10-20.16.43,12.11-6.28,19.94-15.14,27,2.7-.61,4.8,4.52,7.85.08.8-1.16,2.12,1,3.27,1.46s.56,1.71-.18,2.4c-3.16,2.89-5.48,6.88-9.9,8.15-2.44.7-3.18,2.79-4.35,4.53-.73,1.09,0,3.14.74,2.75,1.9-1,4.2.13,5.44-.84,1.88-1.48,3.53-.85,4.28.27,1,1.43-.06,3.35-1.47,4.3-2.61,1.76-5.26,4.05-8.18,4.62-5.84,1.12-5.11,6-7.89,10.07,3-.92,3.9-2.45,5.23-3.26s3.2.08,4.57-.48c1.9-.77,3.12-3.45,5.8-1.82h0c.37,2.85-.84,4.57-3.46,5.8a48,48,0,0,0-8.54,5c-4,3-4.51,5.93-2.26,9.1,1.37-.64.62-3,3.16-3.35-.53,4-1.91,7.37-4.74,9.94C53,419.27,52.29,420.86,52.75,423ZM49.53,291.36C45.37,293.68,41,296,38.37,300c-3.24,4.86-4.63,10.82-10.57,13.92-2.92,1.52-4.25,10.42-2.5,10.77,4.05.82,5.05-3.51,7.58-5.35.25-.18.33-.59.56-.82,6-6.12,10.7-13.52,17.8-18.65,2.92-2.11,3.89-5.05,2.82-8.95-3.8,2.16-4.18,7-7.81,8.82.83-3,2.84-5.37,3.27-8.38l.19-.32Zm46.6-4.57c.29-.16.67-.25.85-.5a26.47,26.47,0,0,1,11.25-9.36c1.27-.52,1.1-2.26,1.35-3.58a41,41,0,0,1,6.32-16.1,39.49,39.49,0,0,0,3.16-6.22,2.24,2.24,0,0,0-.11-1.83c-.44-.68-1.2-.4-1.7.08-4.09,3.92-9.66,5.92-13.39,10.26C97.49,267,98.25,277,94.67,285.39,94.37,286.09,95,287,96.13,286.79ZM53.06,411l-.07.57c.08-.09.21-.17.22-.26S53.11,411.12,53.06,411Z"/><path class="cls-5" d="M301.44,118.73c-6.3-2.7-11.56-7.12-17.32-10.68-5.25-3.24-9.61-2.47-14.21.66-2.46,1.67-4.94,3.29-7.41,4.93-8.16-7.54-16.07-15.34-24.68-22.39-7.75-6.34-11.27-6.53-19.47-.76-1.63,1.15-3.48,2.14-4.74,3.61-5.35,6.29-11.52,5.11-18.13.27A44.44,44.44,0,0,1,189.61,89c-3.84-4.05-8.94-4.66-14-5.51a57.8,57.8,0,0,1-12-3.08c-.39-4,.74-7.88,1-11.83,8.24-3.28,16.52-2.4,24.88-.46a71.52,71.52,0,0,0,9.83,1.2c1.34.12,3-.22,3.43-1.5.52-1.8-1.43-1.86-2.58-2.25s-2.42-.86-2.46-2.14c-.17-6.62-4.57-7.17-9.62-7-2.18.09-3.76-.95-3.46-3.2.65-4.84-2.3-6.34-6.12-7.43A48.06,48.06,0,0,1,173,43.51c5.9-13.27,15.93-22.74,28.22-29.89a74.35,74.35,0,0,1,88.2,9.83c-3.55,4.15-6.83,8-13.37,4.33-2.43-1.36-6.35,0-8.69,2.28a18,18,0,0,1-9.14,4.64c-2.52.57-5,1.39-8.52,2.4,13.38,1.59,25.48-1.83,37.69.08l-8,3.32c8.66,3.59,16.81,3.26,25,1.93,11.73,23,12.31,46.18,1.16,69.53A72.94,72.94,0,0,1,301.44,118.73ZM253.85,65.05c5.17,3.51,9.21,3.68,13.91-.32A37.07,37.07,0,0,1,282,57c3.43-1,5.2-3.56,6.21-7.4-4.91.16-7.95,2.92-11.23,5-8.63,5.53-12.1,5.45-20.72-.17-3-2-5-4.93-7.9-8.12.74,8.54,7.38,11.8,12,16.47C258.08,64.37,255.56,63.4,253.85,65.05Z"/><path class="cls-6" d="M130.5,468l-12.93-3.94c.3-.59.59-1.19.89-1.78.56-.3,1.4-.45,1.63-.92,1.25-2.48,2.27-4.47,6-4.15,2.67.23,4.6-5.35,3.09-8.8a9.33,9.33,0,0,1-.84,1.4c-1.17,1.28-.49,4.82-3.39,3.73-2.68-1-.31-3.43-.39-5.22a8.26,8.26,0,0,1,.08-1c4.82-4.25,9.37-8.82,15.54-11.23,1.81-.7,1.72-2.52.9-3.81s-2.08-1.1-3.32.05c-2.36,2.19-6.06.36-8.55,2.67-.46.43-1.64-.67-1-1.55,1.69-2.26.85-6.69,5.69-6.33,1.83.13,3.2-1.6,4.64-2.71,2.21-.63,4.58-1.08,4.87-4,1.2-1.78.9-2.77-1.31-3.43-3.35-1-2.4,2.21-3.57,3.3a6.69,6.69,0,0,1-1,0c-.29-.93.65-3.28-1.87-1.63-3.39,2.23-2.84-.8-2.53-2.19s1.56-2.8,2.4-4.18c2-.48,3.94-1.09,5.08-3l.92-.94c2.42-.21,3.63-2.17,5-3.71,1-1.06,3.53-2.07,1.88-3.69-.71-.69-3.42-4-5.35,0-1,2-1.67-.57-2.6-.65l-2.95-1.95,1-1,2-2.93c6.23-2.79,8.92-8,10-14.4.26-1.57-.43-3.38,1.15-4.63a6,6,0,0,1,2.83,3c-1,4.62,3.51,12.55,8.37,14.87-.44,1.76.29,3.15,1.17,4.65,1.09,1.87-.51,3.44-1.58,4.53-1.31,1.33-2.32,0-2.86-1.34-.42-1.05-.82-2.78-2.16-2.07-1.73.9-.94,2.88,0,3.86,4.11,4.35,5.68,11,11.92,13.43a4.07,4.07,0,0,1,1.83,1.61c.75,1.22,1.94,2.54.6,4-1.11,1.24-2.4.06-3.56.1-2.75.09-3.11-4.16-6.29-3,.1.51,0,1.16.3,1.38,4.53,3.62,6,9.54,10.12,13.45,1,.94,1.84,2.48.67,3.5-1.69,1.48-2.1-.65-2.78-1.58-.93-1.27-1.94-2.34-3.56-1.29-4,2.59-4.37-.54-4.58-3.09-.24-2.75-2.11-1.21-3-1.18a1.56,1.56,0,0,0-1,2.79c5.69,3.4,5.32,12.41,13,13.87a2.48,2.48,0,0,1,1.95,2.6c-.15,1.47-1.4,1.7-2.59,1.8-1,.07-2,0-3,.07l-.35-.19.34.19c.69,4.05,5.86,9.19,8.86,8.79s6.19-6.33,5.66-11.73c-.83,3.12-2.79,2.74-4.5,3l0,0c1.2-6.92,6.57-10,12-12.95,1.72-.95,3.8-1.47,4.14-3.9.12-.83.48-1.69-.53-2.16-.56-.26-1.67-.58-1.78-.4-2.74,4.43-7.61,3.08-11.56,4.6,1.08-7,6.61-8.89,11.73-11.12,2.72-1.19,5.3-3.31,4.05-5.81-1-2.1-4.79-2.22-7.17-.75-2.71,1.68-2.45-.61-2.48-1.7-.08-2.52,5.89-8.42,8.49-8.53a4.68,4.68,0,0,0,4.46-3.88c.34-1.8-1.68-2.58-3.64-3.17s-4.26.05-5.54-1.68c2.34-2.92,4.59-5.71,6.84-8.5,3.23-.43,4-3,5-5.53,1.61-4.07,1.76-8.48,2.51-12.79.63.2.89.21.9.29.22.94.43,1.89.6,2.85,1.34,7.41,3.87,14.21,10,19.16l3,5c-3.15,2.42-6.33,5.05-8.82-2.27-.37,4.85.8,7.48,3.8,9.26.63,2.57,2,4.19,4.92,3.88l.17.18c-.06,3.75,2.86,5.67,5,8.06.78.87,1.93,1.83,1.32,2.94-.9,1.65-2.29.09-3.48.07-2.42-.06-3.42-3.77-7.41-2.2,4.51,2.93,5.67,7.56,8.57,11l1.89,2.06c.36,2.43,2.17,3.7,4,4.95.07,1.77-.88,1.52-2,1-2.87-4.33-6.28-4.44-10.48-1,3.83.93-.31,6.45,4.48,7a8.94,8.94,0,0,0,1.52,1.19c5.31,2.65,5.16,2.49,1.54,6.54-1.52,1.7-4.1,4.35,1,5.53,1.83.43,3.4,1.9,5.09,2.9a4.12,4.12,0,0,0,3.85,3.8,2.05,2.05,0,0,0,2.06,2.07c-1.62,2.5-4.17,3.82-6.78,4.75-13.42,4.8-24.8,13-36.15,21.28-2.44-2.9,2-6.62-1.07-9.51-1.24.59-1.24,2.45-2.81,2.56-1.26-1.18-1.83-.73-2.17.79-.57,2.53-1.35.21-2,.05-.21-.77-.33-2.16-.67-2.21-1.79-.29-2,1.49-2.41,2.55-1.16,3.42-3.41.73-4.78.64-2.12-.13-.56-2-.11-2.84,2.78-5.62-1.56-4.1-4.21-4.28a36.61,36.61,0,0,0-1-3.77c-.65-1.7-1.4-1.66-2,.07-1.7,0-1.38-2.5-3.5-2.51l-1.4,8.88c-4.83-9.42-15.08-8.72-23-12.33-1.63-.74-3.37-1.25-5.06-1.88.28-1.6,4.42-1.71,1.85-4.31-1.72-1.74-4.31-.6-6.46-1C130.45,464,130.71,466.63,130.5,468Zm61-1.71c-1.31-1.08-1.61-2.62-2.12-4.14-.72-2.17-1.42-.38-2.08.23-4,1.26-5.33,4.07-4.16,7.94.36,1.19-.34,3.46,1.91,3.37,2-.08,2.51-1.8,2.59-3.57,1.46-1.1,3.49-1.64,3.83-3.85l1.23-2.13c3.36-.93,2.52-4.66,4.35-6.63.14-.15-.38-1.23-.82-1.53-.9-.6-1.48.12-1.93.85a10.22,10.22,0,0,0-1.85,6.49C191.37,464.09,191.5,465.22,191.5,466.31Zm-51.18-2.07c1.61-1.87,3.55-2.88,2.57-5.24a1.35,1.35,0,0,0-1.27-.31C139.64,459.83,139.18,461.51,140.32,464.24Zm38.49,16.21c2-2.64.82-4.44-.19-6.29l-1.23.33C177.86,476.48,178.34,478.46,178.81,480.45Zm-34.59-24a.77.77,0,0,0-.12-.35s-.2.05-.31.07a1.11,1.11,0,0,0,.12.35S144.12,456.5,144.22,456.47Z"/><path class="cls-7" d="M12.15,166.78c7-1.91,14-3.87,21.06-5.73a17.17,17.17,0,0,1,11.6.84c7.55,3.22,15.83,3.1,23.78,4.56,4.28.79,8.45,1.76,10.89,5.92-4.32,6.36-2.62,13,.49,18.75,6.21,11.38,5.2,23.3,4.44,35.35a8,8,0,0,1-7,1.92c-7.26-1.67-14.59-.17-21.85-.84a33.62,33.62,0,0,0-22.22,5.71,52.07,52.07,0,0,1-21.79,8c-1.73-10.78-1.8-21.88-6-32.16-1.4-3.4.73-5.44,2.51-7.46,3-3.47,4-6.86,1.55-11.12a10.42,10.42,0,0,1-.41-9.18A45.27,45.27,0,0,0,12.15,166.78Z"/><path class="cls-8" d="M11.59,241.24a52.07,52.07,0,0,0,21.79-8,33.62,33.62,0,0,1,22.22-5.71c7.26.67,14.59-.83,21.85.84a8,8,0,0,0,7-1.92,13.49,13.49,0,0,1,2.09,10.32c-.21,1.15-.15,2.41,1.41,2.71a5.33,5.33,0,0,0,3.82-.74c1-.61.34-1.39,0-2.1-3.07-5.7-1.49-11.37.1-17l6.9-.38A39.48,39.48,0,0,1,98.75,235c-.35,1.95-.48,4.74,2.47,4,2.76-.68,6.13-.92,8.22-3.8-6.06-2.12-6.61-2.89-5.72-7.75l2.47,1c3.92.23,6.07,1.38,4.7,6.13a4.7,4.7,0,0,0,3.5,5.83c-4-6.55,2.89-8.64,3.59-13.6,2.48,2.28.1,5.36,3.07,7.09-.14-1.89-.26-3.3-.35-4.72s.78-1.71,1.86-1.83c1.53-.17,1.25,1.17,1.61,2-.54,2.24-1.33,4.53,1.3,6.08-3.56,4-8.23,6.56-12.79,9.18-5.05,2.9-10.14,5.72-15.34,8.33-4.83,2.44-7.92,5.69-7.82,11.55.08,4.46-2.83,6.87-7,7.83A125.4,125.4,0,0,1,58.75,275c-8.52.29-14.89,4-20.65,9.64a52.9,52.9,0,0,0-10.38,13.33c-1.24,2.4-2.7,4.59-5.24,5.82C24.19,297,20.58,292,17.2,286.6a9.14,9.14,0,0,0-1.69,6.71l-2,.1-.18-1-.41.24.65.66A4.09,4.09,0,0,0,15.28,297l-.35,1.49c-2,.63-2.6,2.93-4.35,3.89-3.73-3.53-1.3-8-1.39-11.87s.61-7.83-.31-11.77c-.81-3.45.53-6.92.42-10.27A106.23,106.23,0,0,1,11.59,241.24ZM70,271c3.52-1.34,7.22-1,10.62-2.16,1.14-.37,3-.25,2.76-2.12-.24-1.64-2-1.58-3.22-1.73C75.31,264.35,72.4,267.27,70,271Z"/><path class="cls-9" d="M52.75,423c-.46-2.15.29-3.74,1.93-5.24,2.83-2.57,4.21-5.9,4.74-9.94-2.54.38-1.79,2.71-3.16,3.35-2.25-3.17-1.71-6.13,2.26-9.1a48,48,0,0,1,8.54-5c2.62-1.23,3.83-2.95,3.46-5.8.6-.1,1.27-.13,1.41-.9,0-.14-.33-.35-.51-.54l-.89,1.45c-2.68-1.63-3.9,1.05-5.8,1.82-1.37.56-3.39-.23-4.57.48s-2.26,2.34-5.23,3.26c2.78-4.11,2-8.95,7.89-10.07,2.92-.57,5.57-2.86,8.18-4.62,1.41-.95,2.42-2.87,1.47-4.3-.75-1.12-2.4-1.75-4.28-.27-1.24,1-3.54-.17-5.44.84-.71.39-1.47-1.66-.74-2.75,1.17-1.74,1.91-3.83,4.35-4.53,4.42-1.27,6.74-5.26,9.9-8.15.74-.69,1.47-1.87.18-2.4S74,358,73.17,359.18c-3,4.44-5.15-.69-7.85-.08,8.86-7,15.57-14.86,15.14-27,2.42,7.54,3.21,15.3,10,20.16.12,1.41.7,2.9,2,3.18,3,.66,1.07,2.36,1.06,3.67-2.16,2.41-5.23,4.51-3,8.48.59,3.65,3.44,5.35,6.17,7.2,2.24,1.52,5.73,2.91,4.42,6.14s-4.34-.25-6.56.37c-.17-1-.47-1.95-1.79-1.74-.14,0-.33.71-.3.73.68.36,1.39.68,2.1,1,1.42,7,6.4,11.81,11.78,17.77-6-.33-9.33-7.9-14.78-4.77-1-.57-1.34-.23-1.48.19-.45,1.33.47,1.62,1.48,1.81v-2c1.42,4.4,2.06,8.08,3.63,9.29,2.59,2,5.58,4.45,9.31,4.74,3,.37,5.88.09,8.33-2,.65-.55,1.17-2,2.22-.64a1.54,1.54,0,0,1-.68,2.48c-3.53,1.2-5.73,4.27-8.82,6.06a7,7,0,0,0-3.58-3.25c-1.74-.75-3.94-1.45-4.69.71-.64,1.81-.44,4.34,2,5.41a28.58,28.58,0,0,0,4.27,1.17c4.34,3.61,7,8.44,9.46,13.35.79,1.56,1.39,3.71-1.07,4.53-3.21,1.06-5.22,4-8.35,5.08l-3-1a4.91,4.91,0,0,0-.5-1.88c-.69-.87-1.21-.14-1.32.5C98,443.35,93.87,447,95.55,452,85,446.72,74,442,65.22,433.65c-.7-.67-1.31-1.45-2-2.18,4-4,7.61-8.25,10-13.43.34-.73,1.15-1.36.41-2.17s-1.5-.42-2.33-.2c-2.44.64-1.06,7.56-6.19,3.77-.86,4.13-6.48,3-7.59,6.85Z"/><path class="cls-10" d="M314,326.38c2.35-4,.75-8.82,2.84-13,1.41,1.93.69,4.64,2.63,6.18l-.06,1.33a11.14,11.14,0,0,0,4.06,9.54c.39,3.39,3,5.28,5.07,7.56,1,1,3.18,2.34-.09,3.36l-.32-.19.33.19c-.06,1.32.12,3.09-1.43,3.38-3.23.61-2.68-3.81-5.25-4.34-.73,1.38,0,2.55.57,3.73,2.8,5.73,6.05,11,12.12,14,1.55.75,3.09,2.22,2.81,4.35-.32,2.47-2.4,1.75-3.94,1.89s-3.11.22-1.82,2.6c2.62,4.84,5.27,9.61,10.25,12.5l-.39,1.89a10.9,10.9,0,0,1-5.37-2.48c-1.69-1.4-3.74-2.71-5.63-2.16-2.2.63-2.79.1-2.89-1.78a2.56,2.56,0,0,0-2.28-2.76,1.69,1.69,0,0,0-2.05.89c-1,1.67.44,2.51,1.26,3.37,5.12,5.34,9.06,11.87,15.67,15.73a14.28,14.28,0,0,1,2,1.43c1.81,1.52.6,2.53-.63,3.52l-1.09-.4c0-2.59-1.39-3.64-3.78-3.15-1.19.24-3.19.27-3.22,1.64-.05,1.93.74,3.93,3.35,4s2.79,3.3,4.92,4.05c-.19.44-.26,1.05-.6,1.28-12.55,8.56-25.35,16.78-40.24,20.57-3.63.92-6.11,1.9-7.19,5.49a1.55,1.55,0,0,0-.94,1.83l-.07.14c-2.57.34-3.44-2.23-5.3-3.11,2.95-4.79,5.54-9.9,9.68-13.81,4.84-4.56,9.31-9.35,12.2-15.43.45-.95,1.15-1.78-.19-2.44-.92-.45-1.64.12-2.1.85a19.31,19.31,0,0,0-1.63,3.08c-1.41,3.62-2.58,1.45-3.39-.25-2,1.4-.71,5.17-5.13,4.31-2.35-.45-1.36,5.67-5.79,6.06-.85.08-3.58,1.81-5.5,2.67-.33-2.18.62-4.17,1-6.24,2.41-4,3.67-8.62,7.35-11.94,2.44-2.21,2.17-2.5.69-6C293,393,293,393,288.41,394c2.62-7,7.67-11.53,14.16-14.63,2.16-1,4.3-2,3.87-5l1-1,.72-1-.36-.22-.36,1.21-1,1c-1.41-.52-3-3-4,.5a2.49,2.49,0,0,1-2.64,1.58c-3.78-.74-6.35,2-9.49,3l0,0c-.23-2.93,3.19-3.79,3.62-6.23.48-2.66,1.7-3.6,4.46-4.16,3-.6,5.8-2.46,8.46-4.12,1.75-1.09,2.81-3.43,1.56-5.06-1-1.32-2.89-1.1-4.53.81-.76.89-4.3.59-5.57-.43-1.85-1.49.43-3.16,1.32-4.61,1.63-2.65,5.5-2.48,6.93-5.42,3.58-.51,2.53-5.3,5.92-6-2.4-.2-3.06-1.34-2.68-3.13-.06,3-1.3,4.43-4.53,2.62l-3.89-2.86a11,11,0,0,0,5-6C311.18,334,312.86,330.44,314,326.38ZM326.3,360c.68,2.43,1.47,3.49,3.59,2.88C329.61,361,328.35,360.55,326.3,360Z"/><path class="cls-10" d="M229.58,461.46c-1.69-1-3.26-2.47-5.09-2.9-5.05-1.18-2.47-3.83-1-5.53,3.62-4,3.77-3.89-1.54-6.54a8.94,8.94,0,0,1-1.52-1.19c1.94-2.06,3.37-4.62,6-6,1.08.53,2,.78,2-1,2.14-3.16,6.29-3.16,9-6.54,0,4.58-.12,8.24.06,11.89.06,1.39-1.13,4,1.41,3.87,2.1-.13.69-2.38.69-3.74,0-6.28,0-12.57,0-19.33,3.38,1.71,2.81,5,5.52,6.64.09-3.55-1.48-6.58-.3-9.71a10.65,10.65,0,0,0,5.33,2.59l-.67-3.68,0,0c1.1.12,2.7.75,3.21.25,1.09-1.05,0-2.62-.59-3.57a14.29,14.29,0,0,0-4.05-4.25c-3.19-2-2.67-3.23,1.38-4.14-4.27-2.48-8.72-4.47-3.45-9.25.2-.17,0-.95-.21-1.39-.6-1.49-1.8-3,.74-4,.93-.37.68-1.62-.13-2-5.23-2.4-3.56-6.08-1.94-9.78,1.8-3.8,1.52-8.08,2.48-13.39,2.32,5.5,1.43,10.57,4.63,14.28,1,2.15,1.63,4.52,3.54,6.14.71,1.52,1.18,3.28,3.38,3.25,1.5,2.45,2.68,4.79-.41,7.1s-3.21-2.08-5.82-2.53c2.25,9.63,9.14,14.53,16.27,19.23l.09,2.94c-2.29.85-4.58,1.8-7.11,1.05.61-4.06-3.11-2.64-5.07-5.08.59,4.18,2.88,4.57,5.06,5.08-.11,1.59.91,2.78,1.38,4.15,1.77,5.14,6.77,8.15,8.45,13.28a9.33,9.33,0,0,1-.83-.43c-1.3-1.43-4-.81-4.63-3.25-.72-2.74-4.07-.43-5.13-2.6-.59,1.93-2.82,3.45-1.4,5.87a2.78,2.78,0,0,1,.17,1c-.12.1-.36.23-.34.29a3.9,3.9,0,0,0,.31.73c.43,2.38,1.71,3.82,4.25,3.87a6.68,6.68,0,0,1,4.89,4.19c-8.64-.8-15.1,3.08-20.87,9.12-3.74,3.92-8.13,7.24-12.22,10.83a2.05,2.05,0,0,1-2.06-2.07c2.15-2.37,4.1-4.86,4.58-8.52-2.31.18-4.06,5.3-5.86-.19Zm.88-7.15.41.21-.38-.23-1-.75-.24.37Zm27-22.59c0-1.4-2.51-4.82-3.63-4.83s-1.38.86-1.2,1.68c.47,2.13,1.49,4.14,3.44,5.06C257.32,434.24,257.3,432.65,257.43,431.72Z"/><path class="cls-11" d="M304.46,42.43c-8.22,1.33-16.37,1.66-25-1.93l8-3.32c-12.21-1.91-24.31,1.51-37.69-.08,3.55-1,6-1.83,8.52-2.4a18,18,0,0,0,9.14-4.64c2.34-2.3,6.26-3.64,8.69-2.28,6.54,3.66,9.82-.18,13.37-4.33a69.94,69.94,0,0,1,10.45-4.05c6.5-2.18,12.08.33,17.81,2.38,1.91.68,2.5,2.11,2.09,4.39-.62,3.51.33,5.68,4.9,4.83,3.81-.7,7.35.41,7.77,5.35a4.28,4.28,0,0,0,3.72,4.07c1,.22,2.12.47,1.82,1.8s-1.47,1.14-2.46,1.2c-6.87.42-13.45-1.51-20.14-2.54C311.54,40.29,307.85,40,304.46,42.43Z"/><path class="cls-12" d="M328.44,341.34c3.27-1,1-2.33.09-3.36-2.07-2.28-4.68-4.17-5.07-7.56,1.91-1.82,3.84-3.61,5.72-5.45,1.17-1.15,1.54-2.38-.55-2.78-1-.2-1.1-4-3.32-.6-1.26,1.91-4.08,1-5.91-.71l.06-1.33a54.85,54.85,0,0,1,6.7-5.71c4.35-3.06,5.9-7.83,6.35-12.95.16-1.8-.05-3.65,1.65-6.15,1.48,6.74,2.52,13.05,7.23,17.65,2.14,7.29.8,14.87,1.82,22.29,1,7.07,1.48,14.22,2.3,21.33.92,8.06-1.73,15.73-3.75,23.42-5-2.89-7.63-7.66-10.25-12.5-1.29-2.38.14-2.45,1.82-2.6s3.62.58,3.94-1.89c.28-2.13-1.26-3.6-2.81-4.35-6.07-3-9.32-8.25-12.12-14-.57-1.18-1.3-2.35-.57-3.73,2.57.53,2,4.95,5.25,4.34,1.55-.29,1.37-2.06,1.43-3.38Z"/><path class="cls-11" d="M173,43.51a48.06,48.06,0,0,0,5.45,2.34c3.82,1.09,6.77,2.59,6.12,7.43-.3,2.25,1.28,3.29,3.46,3.2,5.05-.21,9.45.34,9.62,7,0,1.28,1.29,1.75,2.46,2.14s3.1.45,2.58,2.25c-.38,1.28-2.09,1.62-3.43,1.5a71.52,71.52,0,0,1-9.83-1.2c-8.36-1.94-16.64-2.82-24.88.46C165.59,59.62,168,51.11,173,43.51Z"/><path class="cls-1" d="M338.42,141.42c-11-3.88-19.87-11.31-29.62-17.3-.73-.44-1-1.65-1.45-2.51,4.73-.57,9.5-1,14.2-1.79,3-.52,5.35-2.47,7.56-4.52,2-1.81,4-3.88,6.93-2s6,3.93,5.4,8.11C340.52,128.08,339.44,134.75,338.42,141.42Z"/><path class="cls-12" d="M261.47,420.31c2.53.75,4.82-.2,7.11-1.05,3.32-.87,6.08-2.42,6.87-5.92,1.53-.24,1.9,2.49,1.91,1.52,0-6.09,7-5.36,9-9.54l.15,2.92c-.38,2.07-1.33,4.06-1,6.24-3.57,4.58-8.46,8-11.16,13.39-.76,1.52-2.44,2.6-1.39,4.64,2.19-.41,1.56-3.44,4.11-3.64l-1.46,4.53a51.65,51.65,0,0,0-1,12c-.73,1.18-2,1.23-3.16,1.45-.05-3.05-.09-6.09-.14-9.14-1.68-5.13-6.68-8.14-8.45-13.28-.47-1.37-1.49-2.56-1.38-4.15Z"/><path class="cls-12" d="M341.48,397.08c1.23-1,2.44-2,.63-3.52a14.28,14.28,0,0,0-2-1.43c-6.61-3.86-10.55-10.39-15.67-15.73-.82-.86-2.24-1.7-1.26-3.37a1.69,1.69,0,0,1,2.05-.89,2.56,2.56,0,0,1,2.28,2.76c.1,1.88.69,2.41,2.89,1.78,1.89-.55,3.94.76,5.63,2.16a10.9,10.9,0,0,0,5.37,2.48c-.45,2.39.43,4.33,1.66,6.38,2.53,4.2,3.88,8.68,1.21,13.43Z"/><path class="cls-4" d="M57.58,426.29c1.11-3.86,6.73-2.72,7.59-6.85,5.13,3.79,3.75-3.13,6.19-3.77.83-.22,1.69-.51,2.33.2s-.07,1.44-.41,2.17c-2.41,5.18-6,9.43-10,13.43A23.75,23.75,0,0,1,57.58,426.29Z"/><path class="cls-13" d="M118.46,462.3c-.3.59-.59,1.19-.89,1.78-4.69-1.68-8.89-4.31-13.11-6.89.07-2.94.15-5.87.22-8.81l2.82-1.08h0c1.21,2.85-3.35,6.93,1.92,9.14l2.86-5.51c-.24,3.29-.07,5.91,4.23,5.35C116.14,458.63,119,459.93,118.46,462.3Z"/><path class="cls-2" d="M172.28,481.11c2.65.18,7-1.34,4.21,4.28-.45.89-2,2.71.11,2.84,1.37.09,3.62,2.78,4.78-.64.36-1.06.62-2.84,2.41-2.55.34,0,.46,1.44.67,2.21-.37,2.74-.75,5.47-1.13,8.21-4-1.91-7.38-5.18-12-6C173.33,486.84,172,483.89,172.28,481.11Z"/><path class="cls-14" d="M285.68,440.43a8.3,8.3,0,0,1-5.21,2.88c-.79-1.19,1.84-5.41-2.82-3.19l-1.46-6.7c1.89-.84,1.6-3.62,3.78-4.32l1.82,5.46c1-1.87.43-4.69,3.5-4A22.05,22.05,0,0,0,285.68,440.43Z"/><path class="cls-3" d="M285.68,440.43a22.2,22.2,0,0,1-.4-9.86l2-1.13c1.86.88,2.73,3.45,5.3,3.11C293.08,437.63,289.43,439.07,285.68,440.43Z"/><path class="cls-13" d="M95.55,452c-1.68-5,2.41-8.68,3.18-13.12.11-.64.63-1.37,1.32-.5a4.91,4.91,0,0,1,.5,1.88l-.15,14.16Z"/><path class="cls-12" d="M100.4,454.45l.15-14.16,3,1c.38,2.36-1,5,1.17,7.08-.07,2.94-.15,5.87-.22,8.81A10,10,0,0,1,100.4,454.45Z"/><path class="cls-14" d="M10.58,302.37c1.75-1,2.3-3.26,4.35-3.89,3,1.29,5.78,2.86,6.63,6.41l-1,.45-.84-.56-.18.66.09-.07-8.83-1.15Z"/><path class="cls-12" d="M183.33,495.46c.38-2.74.76-5.47,1.13-8.21.7.16,1.48,2.48,2-.05.34-1.52.91-2,2.16-.8l-.18,10.86C185.93,499.06,184.65,497.21,183.33,495.46Z"/><path class="cls-13" d="M271.29,437.74c0,3.05.09,6.09.14,9.14l-2.85.5a6.68,6.68,0,0,0-4.89-4.19c1-3.45,5.52-2.76,6.77-5.88A9.33,9.33,0,0,0,271.29,437.74Z"/><path class="cls-13" d="M164.38,483.78l1.4-8.88c2.12,0,1.8,2.56,3.5,2.51-.44,3,1.38,6.34-1.39,9C166.13,486.32,165.2,485.12,164.38,483.78Z"/><path class="cls-13" d="M276.19,433.42l1.46,6.7c4.66-2.22,2,2,2.82,3.19a7.45,7.45,0,0,1-5.88,2.12,52.19,52.19,0,0,1,1-12Z"/><path class="cls-13" d="M188.49,497.26l.18-10.86c1.58-.1,1.58-2,2.82-2.55,3.07,2.89-1.37,6.61,1.07,9.51A13.64,13.64,0,0,1,188.49,497.26Z"/><path class="cls-12" d="M167.89,486.39c2.77-2.64,1-6,1.39-9,.61-1.73,1.36-1.77,2-.07a36.61,36.61,0,0,1,1,3.77c-.3,2.78,1.05,5.73-.9,8.33A4.81,4.81,0,0,1,167.89,486.39Z"/><path class="cls-13" d="M130.5,468c.21-1.39-.05-4,1.18-3.78,2.15.42,4.74-.72,6.46,1,2.57,2.6-1.57,2.71-1.85,4.31Z"/><path class="cls-8" d="M10.79,304.22l8.83,1.15c-2.65,2.22-5.91,3-9.11,3.91C9.73,307.54,8.76,305.8,10.79,304.22Z"/><path class="cls-3" d="M341.48,397.08l2.76,4.05c-.22,1.47-1.44,1.74-2.58,2.12-2.13-.76-2.32-3.87-4.92-4.06.93-1.25,3.58,0,3.65-2.51Z"/><path class="cls-3" d="M292.69,432.41a1.55,1.55,0,0,1,.94-1.83A1.59,1.59,0,0,1,292.69,432.41Z"/><path class="cls-10" d="M103.72,227.43c-.89,4.86-.34,5.63,5.72,7.75-2.09,2.88-5.46,3.12-8.22,3.8-3,.73-2.82-2.06-2.47-4a39.48,39.48,0,0,0-.06-15.73c-.66-4.94-.84-10.07-5.9-14-.37,5.23-.68,9.78-1,14.33-1.59,5.67-3.17,11.34-.1,17,.38.71,1,1.49,0,2.1a5.33,5.33,0,0,1-3.82.74c-1.56-.3-1.62-1.56-1.41-2.71a13.49,13.49,0,0,0-2.09-10.32c.76-12.05,1.77-24-4.44-35.35-3.11-5.72-4.81-12.39-.49-18.75.21-3.24,2-5.71,3.61-8.4,1.28-2.09,3.2-4.22,2.85-7.2-.18-1.48.87-2.38,2.56-2.29,3.71.18,7.72-4.92,11,.18,1.22,1.89,1.5,4.05,4.14,4.9,1.38.44-.26,1.55-.49,2.37l.18.2c-1,.34-2.13.6-3.15,1-3.38,1.41-2.2,2.42.33,3.27,4.69,3.79,2.62,9.51,4,14.26.33,1.15-1.19,2.36-2.26,2.18-4.36-.71-2.58,2.84-1.82,3.37,3.36,2.33,2.59,5.13,2.07,8.34-.29,1.83.63,3.87,1,5.81-.38,7.24,3,14.16,1.77,21.47C103.74,223.44,103.7,225.43,103.72,227.43Z"/><path class="cls-3" d="M98.91,79.62c-3.48-4.28-6.27-3.7-8.71-.3C87.58,83,85.28,86.8,82.93,90.61a9.24,9.24,0,0,1-6.11,4.93c4.92-5.44,4.52-11.37,6.5-16.59a6.93,6.93,0,0,1,4-4.25c8-2.82,12.65-8.86,16-16.1a55.59,55.59,0,0,1,9.81-14.21C109.11,56.38,98.41,65.58,98.91,79.62Z"/><path class="cls-7" d="M137.49,83.45c8.87,7.3,8.87,7.29,17.77-.56.46-.4,1-.75,2.24-1.72-1,4.77-1.82,8.63-5.54,10.86-3,1.77-2,2.78.51,3.8-7.81,2.51-13.16-2-14.94-12.42Z"/><path class="cls-3" d="M39.84,117.06c.74-8.25,7.16-12.81,11.34-18.63,5.31,4,5.07,6.37-1,9.34-2,1-3.29,2.74-4.56,4.5C43.33,115.41,43.31,115.39,39.84,117.06Z"/><path class="cls-3" d="M229,90.31c2.15.27,3.56-.17,4.11,1.21.63,1.57-.55,2.59-1.65,3.25-5,3-11,3.68-15.73,7.32a1.57,1.57,0,0,1-1.38-.14,1,1,0,0,1,0-1.69C219.16,96.39,223.63,91.88,229,90.31Z"/><path class="cls-7" d="M137.53,83.41l-.36-.17.32.21Z"/><path class="cls-7" d="M105.24,221.86c1.26-7.31-2.15-14.23-1.77-21.47a4.63,4.63,0,0,1,3,1.47c6,5,10.63,5,16.19-.25,3.72-3.54,7.56-7,10.55-11.26,2.39-3.44,5.76-6,10.18-4.81,11.11,2.93,20-.37,27.86-8.42,11.84-12.19,26.43-10.84,41.25-7.84a10.85,10.85,0,0,1,7.16,5.07c3.89,6.35,10,8,16.68,8,11.75-.07,23.47-.4,35.08,2.19,7,1.55,12.32,5.35,17.19,10.31,4.72,4.81,11.82,6,16.81,10.43A369.77,369.77,0,0,1,272.19,226c-7.15,3.95-15,2.71-22.48,2-10.34-.93-20.57-3.09-30.87-4.51-5-.69-9.61.43-13.24,4.23-3.09,3.23-6.26,6.35-9.1,9.85a30.33,30.33,0,0,1-17.79,11,47,47,0,0,0-19.75,9c-1.2,1-2.32,1.9-2.43,3.57l-20.66-4c-3.1-2-3.85-6.21-7.32-7.89,2.82-6.61,5.93-13.12,7-20.33,2.07-3.56.7-5.46-3-6.11-1.58-.28-3.21-.3-4.81-.44.63-4.88-1.33-8.67-4.94-11.76a5.61,5.61,0,0,0-7.31,0c-2.14,2.06,1.87,2.53,2.47,4.15.22.57.51,1.11,1,2.18-4.42-.08-7.27,1.79-8.88,5.44Z"/><path class="cls-15" d="M135.87,257.26l20.66,4c8.62,1.75,17.25,3.47,25.86,5.25a34.72,34.72,0,0,1,11.23,4c3.42,2.08,3.56,4.2.23,6.43-2.75,1.84-5.89,3.07-8.74,4.77-2.39,1.42-5.63,2.78-5.22,6,.47,3.64,4.22,4,7.05,4.45,10.33,1.58,20.72,2.82,31.07,4.25,13.55,1.89,26.9,4.31,38.43,12.53a21.15,21.15,0,0,0,7.77,3.22c11.87,2.53,23.45,6.07,35.09,9.43,1.38,11.41-7.57,16.61-14.63,23.76,3.21-.68,5.64,4.3,8.56-.44.76-1.24,1.6,1.81,3.44,1.73,1.37-.05.54,1.48-.1,2.17-3.7,4-7.2,8.34-13.16,9.07l-.51-2.06a5.24,5.24,0,0,0,.7-.63c.95-.16,3.84.75,1.25-1.61-7.65-7-11.7-15.68-12.82-26.49-1.57,2.37-1.31,4.39-1.54,6.34-.68,5.55-2.05,11-6.86,14.39-2.53,1.77-4.19,4.21-6.47,6.1-.25.21-.54.37-.81.57s-.11.33.16.64c.71.85,6.26,1.75,6.7.85,2-4,2.49,1.53,4.54.74,1.17-.44.11,1.69-.53,2.36-2.85,3-5.49,6.27-9.61,7.73a6.22,6.22,0,0,0-3.8,3c-.4.82-1.54,1.43-.87,2.59a1.78,1.78,0,0,0,2.57.71c3.78-1.84.25,2.42,2.44,2.28.8-1.11,1.49-3.45,4.07-2.06.57.31,1.84-.33,1.59,1-.34,1.8-.79,3.89-2.68,4.53-3.28,1.13-5.73,4.05-9.4,4.24-3.2-3.71-2.31-8.78-4.63-14.28-1,5.31-.68,9.59-2.48,13.39-4-2.43-5.18-6.66-6.71-11.31-.66,2.25-1.05,3.86-1.62,5.41s-1.29,3-2.82,3.29c-1.93.41-2.13-1.66-3-2.78-2.71-3.63-3.05-8.15-4.48-13.1-1.5,6.12-.59,12.37-6.37,15.79-2.28-3-5.89-4.25-8.72-6.54-11.48-9.31-10.31-19.28,2.92-25,2.14-.92,4.34-2,5.5-4.13,3.12-5.8,7.58-10.46,12.17-15.1,3.48-3.51,2.91-6.38-1.41-8.79-4.87-2.71-10.29-3.72-15.69-4.74-14.09-2.65-28.51-2.35-42.59-4.95-9.66-1.79-19.27-4-28.1-8.45-8.11-4.13-9-11.63-2.4-17.84a13.81,13.81,0,0,1,9-3.75c4-.26,8-.56,11.93-1,1.65-.19,3.5-.72,4-2.52.55-2-1.19-3.07-2.59-3.82-3.22-1.73-6.57-3.2-9.89-4.76C147.28,265.19,140.7,262.66,135.87,257.26Z"/><path class="cls-6" d="M283.41,357.87c6-.73,9.46-5.06,13.16-9.07.64-.69,1.47-2.22.1-2.17-1.84.08-2.68-3-3.44-1.73-2.92,4.74-5.35-.24-8.56.44,7.06-7.15,16-12.35,14.63-23.76.22-.95.41-1.92.7-2.85.07-.22.51-.33.91-.58.51,1.73,1,3.41,1.5,5.08-.45,4.51,2.84,7.71,4,11.64a11,11,0,0,1-5,6l3.88,2.86c.43,2.16.87,4.33,1.3,6.49-1.43,2.94-5.3,2.77-6.93,5.42-.89,1.45-3.17,3.12-1.32,4.61,1.27,1,4.81,1.32,5.57.43,1.64-1.91,3.52-2.13,4.53-.81,1.25,1.63.19,4-1.56,5.06-2.66,1.66-5.47,3.52-8.46,4.12-2.76.56-4,1.5-4.46,4.16-.43,2.44-3.85,3.3-3.62,6.23-1.43-.69-2.85-3.35-4.3,0-3.22-1.59-4.57,3-7.8,2.32-.94-.2-.72,1.79.33,2.66,4.13,3.45,6-.48,8.36-2.61,2.48,1.14,2.76-.85,3.38-2.37,3.14-1,5.71-3.7,9.49-3a2.49,2.49,0,0,0,2.64-1.58c.93-3.55,2.56-1,4-.5l0,0c.43,3-1.71,4-3.87,5-6.49,3.1-11.54,7.6-14.16,14.63,4.61-.95,4.61-.95,6.1-3.7,1.48,3.54,1.75,3.83-.69,6-3.68,3.32-4.94,7.94-7.35,11.94l-.15-2.92c-2,4.18-8.92,3.45-9,9.54,0,1-.38-1.76-1.91-1.52-.79,3.5-3.55,5.05-6.87,5.92l-.09-2.94c.92-1.56,2.4-3,2.67-4.69.85-5.17,4.09-8.91,7.35-12.44,2.11-2.28,1.18-3.54-.41-6.55-.43,4.51-3,4.4-5.44,4.62-.1-2.13,1.42-3.43,2.42-4.83,1.56-2.16,2.42-4.17,1.42-6.86a8.87,8.87,0,0,1,.88-7.95c1.5-2.7,2.3-5.15,6.05-5.06,1,0,2.06-1.52,3.09-2.34,2.9-.18,4.87-1.35,6-4.33,1-2.61-.87-3.24-2.12-2.73-2.6,1.08-5.82-.31-8,2.16l.09.06c-.13-.59-.4-1.05-1.09-1.08l.09.1c-1-2.71,2.37-4.1,2-6.63Z"/><path class="cls-15" d="M306.46,334.87c-1.21-3.93-4.5-7.13-4-11.64L314,326.38C312.86,330.44,311.18,334,306.46,334.87Z"/><path class="cls-7" d="M197.08,135c-9.36.56-18.33,2.52-26.82,7.3C172.4,136.42,183.36,133.46,197.08,135Z"/><path class="cls-1" d="M100.5,166.43c-2.53-.85-3.71-1.86-.33-3.27,1-.43,2.1-.69,3.15-1C103.77,164.48,101,164.7,100.5,166.43Z"/><path class="cls-7" d="M165,144.58a11.33,11.33,0,0,1,2-1.63c.66-.3,1.3.07,1.11.9a1.82,1.82,0,0,1-1.72,1.38C166,145.26,165.61,144.91,165,144.58Z"/><path class="cls-13" d="M135.87,257.26c4.83,5.4,11.41,7.93,17.73,10.89,3.32,1.56,6.67,3,9.89,4.76,1.4.75,3.14,1.82,2.59,3.82-.5,1.8-2.35,2.33-4,2.52-4,.46-8,.76-11.93,1a13.81,13.81,0,0,0-9,3.75c-6.59,6.21-5.71,13.71,2.4,17.84,8.83,4.49,18.44,6.66,28.1,8.45,14.08,2.6,28.5,2.3,42.59,4.95,5.4,1,10.82,2,15.69,4.74,4.32,2.41,4.89,5.28,1.41,8.79-4.59,4.64-9.05,9.3-12.17,15.1-1.16,2.16-3.36,3.21-5.5,4.13-13.23,5.7-14.4,15.67-2.92,25,2.83,2.29,6.44,3.53,8.72,6.54-.88,1-1.84,1.88-2.62,2.92s-2.94,2-1.64,3.55c.83,1,2.5,2.68,4.33.48,1.17-1.41,2.07.32,2.78.88,1.21.95,0,1.73-.66,2.32-2,1.92-4.12,3.75-6.19,5.62-6.08-4.95-8.61-11.75-10-19.16-.17-1-.38-1.91-.6-2.85,0-.08-.27-.09-.9-.29-.75,4.31-.9,8.72-2.51,12.79-1,2.49-1.79,5.1-5,5.53-2.63-4.12-7-7.4-6.47-13.26,2,2.34,3.6,5.95,6.2.73.22-.44,1.51-.35,2.3-.51l.27.23-.33-.17c-7.38-7.61-12.54-16.41-14.27-27.16-.78,5.25-1.37,10.21-4.45,15.05-7.1-9.76-8.93-20.68-10.56-33.07-3.36,23.05-3.36,23.05-11.67,33.17-2.34-.37-3-2.44-4-4.09-1.82-3.14-4.14-6.05-5.1-9.63-.88-3.3-1.55-6.65-2.41-10.42-1.41,2.5-1.14,4.7-1.51,6.79-1,5.65-1.69,11.58-8,14.32-1.63-5.2-5.21-9.87-4.92-16.09,2.2,1.11,1.2,4.16,3.39,3.91,2.56-.29.2-2.39.79-3.53.43-.83,1.13-.23,1.71-.23l.46.18-.41-.24c-1.64-3.76-3.37-7.49-4.91-11.3a73.16,73.16,0,0,1-4.75-21.34c-.25,10.75-2.19,20.9-9.26,29.31-2.78,3.31-.06,4.53,1.94,5.57s.36-2.76,2.22-2.35c3,2.36,2.26,4.54.76,7.62-2.64,5.39-9.11,8-10,14.49a2.62,2.62,0,0,0-.1.88c-3.28-3.75-7-7.28-6.62-13.66,2.36,6,4.74,4.62,7.2.9.06-.09.31-.06.47-.09l.41.16-.39-.17c0-1.91-1.57-2.68-2.63-3.87-3.13-3.51-6.25-7.07-6.43-12.16,2-2,3.69-4.4,6-5.95,8.41-5.7,10.26-13.78,8.67-23.06-.49-2.85.07-4.74,2.29-6.49a9.09,9.09,0,0,0,2.7-3.48c1.42-3.41-.25-5.81-3.92-6a27.8,27.8,0,0,1-5.42-.41c-2.89-.75-4.16-2.62-2.75-5.63,4.09-8.69,8.21-17.37,12.26-26.07,1.17-2.51,4-5.22-.87-7.18-1.39-.57-.15-1.65.37-2.39,1.24-1.76,2.52-3.49,3.78-5.24C132,251.05,132.77,255.25,135.87,257.26Z"/><path class="cls-12" d="M114.5,357.34c-.16,0-.41,0-.47.09-2.46,3.72-4.84,5.06-7.2-.9-.39,6.38,3.34,9.91,6.62,13.66.73,1.49,3.4,2.13,2.07,4.49-1.06,1.89-2.72,2.5-5.37,1,1.58,4.49,3.79,6.39,7.37,4.31,1.38-.81,1.79-.78,2.76.16,1.15,1.1.88,2-.06,3-1.86,1.9-3.55,4.05-6.16,4.93-1.1.38-1.78,2.05-3.38,1-2-1.24-3.19-.77-2.9,1.15.44,2.89,1.36,5.52,5.3,5.2,1.32-.11,3.26-1.82,4,.1.89,2.37-1.68,2.94-3.21,3.61-4.33,1.91-8.46,3.91-9.38,9.24-3.73-.29-6.72-2.75-9.31-4.74-1.57-1.21-2.21-4.89-3.63-7.29,5.45-5.13,8.75,2.44,14.78,2.77-5.38-6-10.36-10.79-11.78-17.77h0c2.22-.62,5.26,2.81,6.56-.37s-2.18-4.62-4.42-6.14c-2.73-1.85-5.58-3.55-6.17-7.21,2.6-2.75,6-4.81,7.79-9.06l-4.79.59c0-1.31,1.91-3-1.06-3.67-1.26-.28-1.84-1.77-2-3.18,7.25-5.7,8.19-7.73,10.48-22.67,2.26,3.57.09,8.9,4.52,11.68.18,5.09,3.3,8.65,6.43,12.16,1.06,1.19,2.65,2,2.63,3.87Z"/><path class="cls-9" d="M96.13,286.79c-1.16.23-1.76-.7-1.46-1.4,3.58-8.43,2.82-18.44,9.19-25.85,3.73-4.34,9.3-6.34,13.39-10.26.5-.48,1.26-.76,1.7-.08a2.24,2.24,0,0,1,.11,1.83,39.49,39.49,0,0,1-3.16,6.22,41,41,0,0,0-6.32,16.1c-.25,1.32-.08,3.06-1.35,3.58A26.47,26.47,0,0,0,97,286.29C96.8,286.54,96.42,286.63,96.13,286.79Z"/><path class="cls-9" d="M49.52,291.35c-.43,3-2.44,5.35-3.27,8.38,3.63-1.81,4-6.66,7.81-8.82,1.07,3.9.1,6.84-2.82,8.95-7.1,5.13-11.77,12.53-17.8,18.65-.23.23-.31.64-.56.82-2.53,1.84-3.53,6.17-7.58,5.35-1.75-.35-.42-9.25,2.5-10.77,5.94-3.1,7.33-9.06,10.57-13.92,2.66-4,7-6.31,11.16-8.63Z"/><path class="cls-8" d="M127.7,222.49c1.6.14,3.23.16,4.81.44,3.72.65,5.09,2.55,3,6.11l-8,5.63c-2.31-1.12-1.75-3.37-2.06-5.27A13.11,13.11,0,0,1,127.7,222.49Z"/><path class="cls-13" d="M21.56,304.89c-.85-3.55-3.6-5.12-6.63-6.41.12-.49.23-1,.35-1.49.07-1.22.15-2.45.23-3.68a9.14,9.14,0,0,1,1.69-6.71c3.38,5.41,7,10.43,5.28,17.16C22.17,304.13,21.87,304.51,21.56,304.89Z"/><path class="cls-14" d="M125.45,229.4c.31,1.9-.25,4.15,2.06,5.27-.47.85-1.23.85-2,.69-2.63-1.55-1.84-3.84-1.3-6.08Z"/><path class="cls-9" d="M53.06,411c0,.1.16.21.15.31s-.14.17-.22.26C53,411.4,53,411.21,53.06,411Z"/><path class="cls-9" d="M49.53,291.36l.18-.33-.19.32Z"/><path class="cls-8" d="M19.53,305.44l.18-.66.84.56Z"/><path class="cls-6" d="M253.85,65.05c1.71-1.65,4.23-.68,6.57-2.28-4.64-4.67-11.28-7.93-12-16.47,2.95,3.19,4.88,6.15,7.9,8.12,8.62,5.62,12.09,5.7,20.72.17,3.28-2.11,6.32-4.87,11.23-5-1,3.84-2.78,6.44-6.21,7.4a37.07,37.07,0,0,0-14.28,7.77C263.06,68.73,259,68.56,253.85,65.05Z"/><path class="cls-12" d="M198.51,378.29c-.79.16-2.08.07-2.3.51-2.6,5.22-4.18,1.61-6.2-.73-.54,5.86,3.84,9.14,6.47,13.26-2.25,2.79-4.5,5.58-6.84,8.5,1.28,1.73,3.68,1.12,5.54,1.68s4,1.37,3.64,3.17a4.68,4.68,0,0,1-4.46,3.88c-2.6.11-8.57,6-8.49,8.53,0,1.09-.23,3.38,2.48,1.7,2.38-1.47,6.13-1.35,7.17.75,1.25,2.5-1.33,4.62-4.05,5.81-5.12,2.23-10.65,4.15-11.73,11.12,3.95-1.52,8.82-.17,11.56-4.6.11-.18,1.22.14,1.78.4,1,.47.65,1.33.53,2.16-.34,2.43-2.42,2.95-4.14,3.9-5.43,3-10.8,6-12,12.95-.79.2-2.2-.52-2.11,1,0,.86,1.06,2,2,1.57,1.09-.45,0-1.66.16-2.52,1.71-.22,3.67.16,4.5-3,.53,5.4-2.67,11.33-5.66,11.73s-8.17-4.74-8.86-8.79h0c1,0,2,0,3-.07,1.19-.1,2.44-.33,2.59-1.8a2.48,2.48,0,0,0-1.95-2.6c-7.72-1.46-7.35-10.47-13-13.87a1.56,1.56,0,0,1,1-2.79c.85,0,2.72-1.57,3,1.18.21,2.55.57,5.68,4.58,3.09,1.62-1.05,2.63,0,3.56,1.29.68.93,1.09,3.06,2.78,1.58,1.17-1,.32-2.56-.67-3.5-4.13-3.91-5.59-9.83-10.12-13.45-.27-.22-.2-.87-.3-1.38,3.18-1.11,3.54,3.14,6.29,3,1.16,0,2.45,1.14,3.56-.1,1.34-1.49.15-2.81-.6-4a4.07,4.07,0,0,0-1.83-1.61c-6.24-2.47-7.81-9.08-11.92-13.43-.93-1-1.72-3,0-3.86,1.34-.71,1.74,1,2.16,2.07.54,1.39,1.55,2.67,2.86,1.34,1.07-1.09,2.67-2.66,1.58-4.53-.88-1.5-1.61-2.89-1.17-4.65,1.26,0,2.76.45,3.37-1.19s-.43-2.73-1.39-3.9c-1.84-2.24-5.43-2.55-6.33-5.79a22.23,22.23,0,0,0,5.92-7.16c1.51-3,4.8-6.1-.71-8.69.21,4.68-3.65,3.2-6.24,3.82l0,0c0-.27,0-.54-.07-.81l.06-3.21c8.31-10.12,8.31-10.12,11.67-33.17,1.63,12.39,3.46,23.31,10.56,33.07,3.08-4.84,3.67-9.8,4.45-15.05,1.73,10.75,6.89,19.55,14.27,27.16Zm-21.55-1c-.65,2.35-.39,4.34,1.77,5.49.31.17,1.64-.69,1.81-1.28C181.51,378.23,177.51,379.32,177,377.26ZM175.45,439l.35-.19c-.1-.09-.19-.23-.3-.24s-.22.11-.34.17Z"/><path class="cls-14" d="M104.46,408.35c.92-5.33,5.05-7.33,9.38-9.24,1.53-.67,4.1-1.24,3.21-3.61-.71-1.92-2.65-.21-4-.1-3.94.32-4.86-2.31-5.3-5.2-.29-1.92.94-2.39,2.9-1.15,1.6,1,2.28-.66,3.38-1,2.61-.88,4.3-3,6.16-4.93.94-1,1.21-1.86.06-3-1-.94-1.38-1-2.76-.16-3.58,2.08-5.79.18-7.37-4.31,2.65,1.53,4.31.92,5.37-1,1.33-2.36-1.34-3-2.07-4.49a2.62,2.62,0,0,1,.1-.88c8.33.87,11.16-3.64,10.4-11.79,2.79,4.08,1.51,9.12,5.5,11.81.48,4.17,4.36,6,6.33,9.14-2.06,2.79-4.36,3.28-7.24.29.42,3.1,1.21,5.56,2.83,6.58,3.78,2.39,7.14,5,9.14,9.05l-2,2.93a22.18,22.18,0,0,0-2.09-1.25c-1-.49-2.11-2.68-3.17-1s1,2.44,2.32,3a6.91,6.91,0,0,0,2,.24l2.95,1.95c-2.39,2.06-1.13,4.62-1,7h-7c0-1.51-.11-3-2.09-3.2a.83.83,0,0,0-.63.53c-.12,1.93,1.18,2.44,2.74,2.65-.09,2.32,2.25,3.2,3,5-.84,1.38-2.07,2.68-2.4,4.18s-.86,4.42,2.53,2.19c2.52-1.65,1.58.7,1.87,1.63-1.18,1.74.51,2.78,1,4.11-1.44,1.11-2.81,2.84-4.64,2.71-4.84-.36-4,4.07-5.69,6.33-.66.88.52,2,1,1.55,2.49-2.31,6.19-.48,8.55-2.67,1.24-1.15,2.46-1.4,3.32-.05s.91,3.11-.9,3.81c-6.17,2.41-10.72,7-15.54,11.23-1.6-2-2-1.92-2-1.55.67,3.73-7.18,3.33-4,8.26.09.14-.8.92-1.23,1.4l-.91.87,0,0c-4.3.56-4.47-2.06-4.23-5.35l-2.86,5.51c-5.27-2.21-.71-6.29-1.92-9.14.21-.22.43-.43.65-.65l-.48-.29-.19.93-2.82,1.08c-2.12-2.07-.79-4.72-1.17-7.08,3.13-1.11,5.14-4,8.35-5.08,2.46-.82,1.86-3,1.07-4.53-2.48-4.91-5.12-9.74-9.46-13.35,0-1.68,1.41-2.67,2-4,3.09-1.79,5.29-4.86,8.82-6.06a1.54,1.54,0,0,0,.68-2.48c-1.05-1.39-1.57.09-2.22.64C110.34,408.44,107.48,408.72,104.46,408.35Z"/><path class="cls-14" d="M215.46,395.31c2.07-1.87,4.17-3.7,6.19-5.62.62-.59,1.87-1.37.66-2.32-.71-.56-1.61-2.29-2.78-.88-1.83,2.2-3.5.53-4.33-.48-1.3-1.54.83-2.47,1.64-3.55s1.74-1.95,2.62-2.92c5.78-3.42,4.87-9.67,6.37-15.79,1.43,4.95,1.77,9.47,4.48,13.1.83,1.12,1,3.19,3,2.78,1.53-.32,2.3-1.87,2.82-3.29s1-3.16,1.62-5.41c1.53,4.65,2.72,8.88,6.71,11.31-1.62,3.7-3.29,7.38,1.94,9.78.81.37,1.06,1.62.13,2-2.54,1-1.34,2.48-.74,4,.17.44.41,1.22.21,1.39-5.27,4.78-.82,6.77,3.45,9.25-4,.91-4.57,2.11-1.38,4.14a14.29,14.29,0,0,1,4.05,4.25c.61.95,1.68,2.52.59,3.57-.51.5-2.11-.13-3.21-.25l-.3-.21.32.18.67,3.68a10.65,10.65,0,0,1-5.33-2.59c-1.18,3.13.39,6.16.3,9.71-2.71-1.6-2.14-4.93-5.52-6.64,0,6.76,0,13.05,0,19.33,0,1.36,1.41,3.61-.69,3.74-2.54.16-1.35-2.48-1.41-3.87-.18-3.65-.06-7.31-.06-11.89-2.72,3.38-6.87,3.38-9,6.54-1.82-1.25-3.63-2.52-4-4.95,4.1-.6,8.87-.59,6.7-6.61-4.64-1.56-6.38,1.9-8.59,4.55-2.9-3.48-4.06-8.11-8.57-11,4-1.57,5,2.14,7.41,2.2,1.19,0,2.58,1.58,3.48-.07.61-1.11-.54-2.07-1.32-2.94-2.13-2.39-5.05-4.31-5-8.06l.32-.3-.2-.2-.29.32c-2.91.31-4.29-1.31-4.92-3.88,2.26-1.91,7.37-1.77,5-7Zm21.95,27.49a32.72,32.72,0,0,1-2.86,4,1.56,1.56,0,0,0,1.92,2.46C238.36,428.25,237.34,425.74,237.41,422.8Z"/><path class="cls-10" d="M140.51,394.39c-2-4.08-5.36-6.66-9.14-9.05-1.62-1-2.41-3.48-2.83-6.58,2.88,3,5.18,2.5,7.24-.29-2-3.1-5.85-5-6.33-9.14,3.44-.74,5.08-3.58,7.06-6,6.3-2.74,7-8.67,8-14.32.37-2.09.1-4.29,1.51-6.79.86,3.77,1.53,7.12,2.41,10.42,1,3.58,3.28,6.49,5.1,9.63.95,1.65,1.64,3.72,4,4.09l-.06,3.21-.36.24.43.57,0,0c-.1,3.17-1.44,3.91-4.1,2.09,0-1.34-.36-3-1.9-2.57s-.79,1.65.07,2.49l.11,3c-1.58,1.25-.89,3.06-1.15,4.63C149.43,386.36,146.74,391.6,140.51,394.39Zm0-21c-1.33.43-3.6-2.41-4,1.06-.13,1.1.48,2.51,1.77,2.47,2.24-.06,2.15-1.94,2.17-3.57l.21-.3Z"/><path class="cls-13" d="M153.37,372.41c2.66,1.82,4,1.08,4.1-2.09,2.59-.62,6.45.86,6.24-3.82,5.51,2.59,2.22,5.72.71,8.69a22.23,22.23,0,0,1-5.92,7.16c-2.28-.39-2.81-2.54-4-4a6,6,0,0,0-2.83-3c0-1-.07-2-.11-3Z"/><path class="cls-12" d="M117.4,455.46c.43-.48,1.32-1.26,1.23-1.4-3.18-4.93,4.67-4.53,4-8.26-.07-.37.36-.45,2,1.55a8.26,8.26,0,0,0-.08,1c.08,1.79-2.29,4.23.39,5.22,2.9,1.09,2.22-2.45,3.39-3.73a9.33,9.33,0,0,0,.84-1.4c1.51,3.45-.42,9-3.09,8.8-3.68-.32-4.7,1.67-6,4.15-.23.47-1.07.62-1.63.92.51-2.37-2.32-3.67-1.93-6l0,0Z"/><path class="cls-10" d="M154.48,378.36c1.21,1.45,1.74,3.6,4,4,.9,3.24,4.49,3.55,6.33,5.79,1,1.17,2,2.27,1.39,3.9s-2.11,1.17-3.37,1.19C158,390.91,153.52,383,154.48,378.36Z"/><path class="cls-14" d="M226.48,439.3c-2.63,1.38-4.06,3.94-6,6-4.79-.51-.65-6-4.48-7C220.2,434.86,223.61,435,226.48,439.3Z"/><path class="cls-10" d="M139.51,407.33c-.17-2.41-1.43-5,1-7,.93.08,1.64,2.61,2.6.65,1.93-3.94,4.64-.67,5.35,0,1.65,1.62-.92,2.63-1.88,3.69-1.41,1.54-2.62,3.5-5,3.71a2.09,2.09,0,0,0-2-1.07Z"/><path class="cls-13" d="M229.58,461.46l2.57-4.91c1.8,5.49,3.55.37,5.86.19-.48,3.66-2.43,6.15-4.58,8.52A4.12,4.12,0,0,1,229.58,461.46Z"/><path class="cls-12" d="M187.64,470.14c-.08,1.77-.57,3.49-2.59,3.57-2.25.09-1.55-2.18-1.91-3.37-1.17-3.87.13-6.68,4.17-7.94Z"/><path class="cls-10" d="M222.56,431.3c2.21-2.65,3.95-6.11,8.59-4.55,2.17,6-2.6,6-6.7,6.61Z"/><path class="cls-13" d="M218.5,400.34c2.35,5.22-2.76,5.08-5,7-3-1.78-4.17-4.41-3.8-9.26C212.17,405.39,215.35,402.76,218.5,400.34Z"/><path class="cls-10" d="M135.5,412.33c-.74-1.82-3.08-2.7-3-5l0,0h7l0,0a2.25,2.25,0,0,0,1.09,2C139.44,411.24,137.51,411.85,135.5,412.33Z"/><path class="cls-12" d="M192.45,463.34a10.22,10.22,0,0,1,1.85-6.49c.45-.73,1-1.45,1.93-.85.44.3,1,1.38.82,1.53-1.83,2-1,5.7-4.35,6.63C192.61,463.89,192.53,463.62,192.45,463.34Z"/><path class="cls-13" d="M187.64,470.14l-.33-7.74c.65-.61,1.35-2.4,2.07-.23.51,1.52.81,3.06,2.12,4.14l0,0C191.13,468.5,189.1,469,187.64,470.14Z"/><path class="cls-10" d="M138.51,424.44c-.5-1.33-2.19-2.37-1-4.11a6.69,6.69,0,0,0,1,0l4.88.13C143.09,423.36,140.72,423.81,138.51,424.44Z"/><path class="cls-13" d="M140.32,464.24c-1.14-2.73-.68-4.41,1.3-5.55a1.35,1.35,0,0,1,1.27.31C143.87,461.36,141.93,462.37,140.32,464.24Z"/><path class="cls-14" d="M143.38,420.42l-4.88-.13c1.17-1.09.22-4.31,3.57-3.3C144.28,417.65,144.58,418.64,143.38,420.42Z"/><path class="cls-12" d="M137.52,398.35a6.91,6.91,0,0,1-2-.24c-1.32-.59-3.3-1.45-2.32-3s2.12.5,3.17,1a22.18,22.18,0,0,1,2.09,1.25Z"/><path class="cls-12" d="M178.81,480.45c-.47-2-.95-4-1.42-6l1.23-.33C179.63,476,180.83,477.81,178.81,480.45Z"/><path class="cls-14" d="M140.58,409.31a2.25,2.25,0,0,1-1.09-2,2.09,2.09,0,0,1,2,1.07Z"/><path class="cls-13" d="M192.45,463.34c.08.28.16.55.25.82l-1.23,2.13,0,0C191.5,465.22,191.37,464.09,192.45,463.34Z"/><path class="cls-13" d="M144.22,456.47c-.1,0-.27.11-.31.07a1.11,1.11,0,0,1-.12-.35c.11,0,.28-.11.31-.07A.77.77,0,0,1,144.22,456.47Z"/><path class="cls-12" d="M167.49,451.3l-.34-.19.35.19Z"/><path class="cls-4" d="M125.45,229.4l-1.28-.12c-.36-.81-.08-2.15-1.61-2-1.08.12-1.94.53-1.86,1.83s.21,2.83.35,4.72c-3-1.73-.59-4.81-3.07-7.09-.7,5-7.62,7.05-3.59,13.6a4.7,4.7,0,0,1-3.5-5.83c1.37-4.75-.78-5.9-4.7-6.13,2.58-1.11,4-2.94,3.85-5.87,1.61-3.65,4.46-5.52,8.88-5.44-.49-1.07-.78-1.61-1-2.18-.6-1.62-4.61-2.09-2.47-4.15a5.61,5.61,0,0,1,7.31,0c3.61,3.09,5.57,6.88,4.94,11.76A13.11,13.11,0,0,0,125.45,229.4Z"/><path class="cls-7" d="M91.79,219.62c.32-4.55.63-9.1,1-14.33,5.06,3.88,5.24,9,5.9,14Z"/><path class="cls-12" d="M70,271c2.41-3.69,5.32-6.61,10.16-6,1.26.15,3,.09,3.22,1.73.26,1.87-1.62,1.75-2.76,2.12C77.21,269.91,73.51,269.62,70,271Z"/><path class="cls-1" d="M110,222.53c.2,2.93-1.27,4.76-3.85,5.87l-2.47-1c0-2,0-4,1.52-5.57Z"/><path class="cls-2" d="M15.51,293.31c-.08,1.23-.16,2.46-.23,3.68a4.09,4.09,0,0,1-1.72-3.64l-.06.06Z"/><path class="cls-2" d="M13.56,293.35l-.65-.66.41-.24.18,1Z"/><path class="cls-12" d="M105.51,414.3c-.63,1.37-2,2.36-2,4a28.58,28.58,0,0,1-4.27-1.17c-2.4-1.07-2.6-3.6-2-5.41.75-2.16,3-1.46,4.69-.71A7,7,0,0,1,105.51,414.3Z"/><path class="cls-13" d="M93.48,359.14l4.79-.59c-1.74,4.25-5.19,6.31-7.79,9.06C88.25,363.65,91.32,361.55,93.48,359.14Z"/><path class="cls-12" d="M91.52,392.32v4c-1-.19-1.93-.48-1.48-1.81A14.49,14.49,0,0,1,91.52,392.32Z"/><path class="cls-12" d="M94.52,381.32c-.71-.32-1.42-.64-2.1-1,0,0,.16-.71.3-.73,1.32-.21,1.62.71,1.79,1.74Z"/><path class="cls-4" d="M70.53,391.33l.89-1.45c.18.19.54.4.51.54-.14.77-.81.8-1.41.9Z"/><path class="cls-6" d="M276.19,433.42l-.63,0c.48-1.46.95-2.92,1.47-4.53-2.55.2-1.92,3.23-4.11,3.64-1.05-2,.63-3.12,1.39-4.64,2.7-5.36,7.59-8.81,11.16-13.39,1.92-.86,4.65-2.59,5.5-2.67,4.43-.39,3.44-6.51,5.79-6.06,4.42.86,3.15-2.91,5.13-4.31.81,1.7,2,3.87,3.39.25a19.31,19.31,0,0,1,1.63-3.08c.46-.73,1.18-1.3,2.1-.85,1.34.66.64,1.49.19,2.44-2.89,6.08-7.36,10.87-12.2,15.43-4.14,3.91-6.73,9-9.68,13.81l-2,1.13c-3.06-.7-2.46,2.12-3.49,4L280,429.1C277.79,429.8,278.08,432.58,276.19,433.42Z"/><path class="cls-13" d="M319.4,320.88c1.83,1.75,4.65,2.62,5.91.71,2.22-3.37,2.3.4,3.32.6,2.09.4,1.72,1.63.55,2.78-1.88,1.84-3.81,3.63-5.72,5.45A11.14,11.14,0,0,1,319.4,320.88Z"/><path class="cls-5" d="M306.64,350.18c-.43-2.16-.87-4.33-1.3-6.49,3.24,1.81,4.48.34,4.54-2.62-.38,1.79.28,2.93,2.68,3.13C309.17,344.88,310.22,349.67,306.64,350.18Z"/><path class="cls-12" d="M340.39,396.68c-.07,2.51-2.72,1.26-3.65,2.51-2.61-.09-3.4-2.09-3.35-4,0-1.37,2-1.4,3.22-1.64C339,393,340.42,394.09,340.39,396.68Z"/><path class="cls-12" d="M326.3,360c2.05.54,3.31,1,3.59,2.88C327.77,363.5,327,362.44,326.3,360Z"/><path class="cls-6" d="M307.45,373.33l.36-1.21.36.22-.72,1Z"/><path class="cls-12" d="M328.45,341.34l-.33-.19.32.19Z"/><path class="cls-6" d="M306.46,374.34l1-1h0l-1,1Z"/><path class="cls-12" d="M286.52,370.22c-1,.82-2.08,2.36-3.09,2.34-3.75-.09-4.55,2.36-6.05,5.06a8.87,8.87,0,0,0-.88,7.95c1,2.69.14,4.7-1.42,6.86-1,1.4-2.52,2.7-2.42,4.83,2.46-.22,5-.11,5.44-4.62,1.59,3,2.52,4.27.41,6.55-3.26,3.53-6.5,7.27-7.35,12.44-.27,1.67-1.75,3.13-2.67,4.69-7.13-4.7-14-9.6-16.27-19.23,2.61.45,2.68,4.86,5.82,2.53s1.91-4.65.41-7.1c2.45-2.57,2.45-2.57-.09-6.17-1.14.93-.94,3.43-3.29,2.92-1.91-1.62-2.55-4-3.54-6.14,3.67-.19,6.12-3.11,9.4-4.24,1.89-.64,2.34-2.73,2.68-4.53.25-1.34-1-.7-1.59-1-2.58-1.39-3.27.95-4.07,2.06-2.19.14,1.34-4.12-2.44-2.28a1.78,1.78,0,0,1-2.57-.71c-.67-1.16.47-1.77.87-2.59a6.22,6.22,0,0,1,3.8-3c4.12-1.46,6.76-4.74,9.61-7.73.64-.67,1.7-2.8.53-2.36-2.05.79-2.58-4.71-4.54-.74-.44.9-6,0-6.7-.85-.27-.31-.56-.34-.16-.64s.56-.36.81-.57c2.28-1.89,3.94-4.33,6.47-6.1,4.81-3.37,6.18-8.84,6.86-14.39.23-1.95,0-4,1.54-6.34,1.12,10.81,5.17,19.5,12.82,26.49,2.59,2.36-.3,1.45-1.25,1.61l-.64-.54-.06,1.17.51,2.06.06-.1c-4.13,2.85-4-3-6.76-3.51-.43,4.55,2.29,7.29,4.78,10.14l-.09-.1c.12.61.39,1.06,1.09,1.08l-.09-.06C282.8,367.78,284.88,368.81,286.52,370.22Z"/><path class="cls-12" d="M270.46,437.31c-1.25,3.12-5.81,2.43-6.77,5.88-2.54-.05-3.82-1.49-4.25-3.87l.05,0,1.14-.49-1.16-.48h0a2.78,2.78,0,0,0-.17-1c-1.42-2.42.81-3.94,1.4-5.87,1.06,2.17,4.41-.14,5.13,2.6C266.46,436.5,269.16,435.88,270.46,437.31Z"/><path class="cls-12" d="M257.43,431.73c-.13.92-.11,2.51-1.39,1.9-2-.92-3-2.93-3.44-5.06-.18-.82.08-1.68,1.2-1.68S257.45,430.32,257.43,431.73Z"/><path class="cls-15" d="M255.07,389.27c2.35.51,2.15-2,3.29-2.92,2.54,3.6,2.54,3.6.09,6.17C256.25,392.55,255.78,390.79,255.07,389.27Z"/><path class="cls-12" d="M261.46,420.31c-2.18-.51-4.47-.9-5.06-5.08,2,2.44,5.68,1,5.07,5.08Z"/><path class="cls-6" d="M230.46,454.31l-1.23-.4.24-.37,1,.75Z"/><path class="cls-6" d="M230.49,454.29l.38.23-.41-.21Z"/><path class="cls-12" d="M259.44,439.32a3.9,3.9,0,0,1-.31-.73c0-.06.22-.19.34-.29h0c0,.32,0,.64,0,1Z"/><path class="cls-15" d="M286.52,370.22c-1.64-1.41-3.72-2.44-4.12-4.9,2.14-2.47,5.36-1.08,8-2.16,1.25-.51,3.08.12,2.12,2.73C291.39,368.87,289.42,370,286.52,370.22Z"/><path class="cls-12" d="M287,381.75c-2.4,2.13-4.23,6.06-8.36,2.61-1.05-.87-1.27-2.86-.33-2.66,3.23.71,4.58-3.91,7.8-2.32C286.38,380.17,286.68,381,287,381.75Z"/><path class="cls-15" d="M281.49,364.4c-2.49-2.85-5.21-5.59-4.78-10.14,2.75.5,2.63,6.36,6.76,3.51C283.86,360.3,280.47,361.69,281.49,364.4Z"/><path class="cls-15" d="M287,381.75c-.3-.79-.6-1.58-.89-2.37,1.45-3.33,2.87-.67,4.3,0l0,0C289.74,380.9,289.46,382.89,287,381.75Z"/><path class="cls-15" d="M282.49,365.38c-.7,0-1-.47-1.09-1.08C282.09,364.33,282.36,364.79,282.49,365.38Z"/><path class="cls-12" d="M136.51,363.31c-2,2.44-3.62,5.28-7.06,6-4-2.69-2.71-7.73-5.5-11.81.76,8.15-2.07,12.66-10.4,11.79.87-6.48,7.34-9.1,10-14.49,1.5-3.08,2.24-5.26-.76-7.62-1.86-.41-.26,3.37-2.22,2.35s-4.72-2.26-1.94-5.57c7.07-8.41,9-18.56,9.26-29.31A73.16,73.16,0,0,0,132.62,336c1.54,3.81,3.27,7.54,4.91,11.3l-.05.06c-.58,0-1.28-.6-1.71.23-.59,1.14,1.77,3.24-.79,3.53-2.19.25-1.19-2.8-3.39-3.91C131.3,353.44,134.88,358.11,136.51,363.31Z"/><path class="cls-12" d="M114.52,357.33l.39.17-.41-.16Z"/><path class="cls-12" d="M198.45,378.35l.33.17-.27-.23Z"/><path class="cls-12" d="M137.53,347.31l.41.24-.46-.18Z"/><path class="cls-13" d="M177,377.26c.55,2.06,4.55,1,3.58,4.21-.17.59-1.5,1.45-1.81,1.28C176.57,381.6,176.31,379.61,177,377.26Z"/><path class="cls-6" d="M177.51,451.32c-.17.86.93,2.07-.16,2.52-.93.38-1.94-.71-2-1.57-.09-1.51,1.32-.79,2.11-1Z"/><path class="cls-6" d="M175.45,439l-.29-.26c.12-.06.23-.18.34-.17s.2.15.3.24Z"/><path class="cls-13" d="M157.51,370.36l-.43-.57.36-.24C157.46,369.82,157.48,370.09,157.51,370.36Z"/><path class="cls-10" d="M132.51,407.31c-1.56-.21-2.86-.72-2.74-2.65a.83.83,0,0,1,.63-.53c2,.2,2.07,1.69,2.09,3.2Z"/><path class="cls-13" d="M107.5,447.3l.19-.93.48.29c-.22.22-.44.43-.65.65Z"/><path class="cls-13" d="M117.4,455.46l-.91.87Z"/><path class="cls-12" d="M237.41,422.8c-.07,2.94,1,5.45-.94,6.43a1.56,1.56,0,0,1-1.92-2.46A32.72,32.72,0,0,0,237.41,422.8Z"/><path class="cls-10" d="M249.48,420.3l-.32-.18.3.21Z"/><path class="cls-6" d="M218.4,411.21l.29-.32.2.2-.32.3Z"/><path class="cls-6" d="M140.48,373.31c0,1.63.07,3.51-2.17,3.57-1.29,0-1.9-1.37-1.77-2.47.38-3.47,2.65-.63,4-1.06Z"/><path class="cls-6" d="M153.37,372.41l-1.83-.08c-.86-.84-1.59-2.11-.07-2.49S153.34,371.07,153.37,372.41Z"/><path class="cls-6" d="M140.52,373.35l.17-.34-.21.3Z"/><path class="cls-15" d="M282.9,355.81l.06-1.17.64.54A5.24,5.24,0,0,1,282.9,355.81Z"/><path class="cls-10" d="M259.49,439.28c0-.33,0-.65,0-1l1.16.48Z"/></svg>