<svg width="292" height="157" viewBox="0 0 292 157" fill="none" xmlns="http://www.w3.org/2000/svg">
<path d="M210.054 22.9685L128.146 154.162H291.954L210.054 22.9685Z" fill="#D5E0DC"/>
<path d="M82.3347 22.9685L0.435669 154.162H164.243L82.3347 22.9685Z" fill="#D5E0DC"/>
<path d="M151.478 22.9685L69.5701 154.162H233.387L151.478 22.9685Z" fill="#BBD9D0"/>
<path d="M151.478 22.9685L69.5701 154.162H233.387L151.478 22.9685Z" fill="#9FCCBD"/>
<path d="M102.256 133.347C101.739 133.347 101.244 133.141 100.879 132.776C100.514 132.41 100.309 131.915 100.309 131.398V63.235C97.3083 66.9797 93.2259 69.7056 88.6199 71.0397C88.1194 71.1628 87.5906 71.0818 87.1501 70.8146C86.7093 70.5474 86.3928 70.116 86.2697 69.6151C86.147 69.1143 86.228 68.5852 86.4945 68.1437C86.7614 67.7025 87.1925 67.3857 87.6927 67.2626C88.2305 67.1235 100.29 63.9776 100.29 51.1522C100.29 50.6354 100.495 50.1396 100.861 49.7744C101.226 49.4089 101.721 49.2036 102.237 49.2036C102.754 49.2036 103.248 49.4089 103.614 49.7744C103.979 50.1396 104.184 50.6354 104.184 51.1522V131.398C104.184 131.912 103.982 132.405 103.62 132.769C103.26 133.134 102.769 133.342 102.256 133.347Z" fill="white"/>
<path d="M88.0635 120.707H87.6185C87.1206 120.658 86.6606 120.419 86.3341 120.04C86.0072 119.661 85.8389 119.17 85.864 118.67C85.8891 118.17 86.1055 117.698 86.4684 117.354C86.8314 117.009 87.313 116.818 87.8132 116.819C87.8688 116.819 93.5606 117.032 97.2037 113.552C99.2894 111.548 100.346 108.643 100.346 104.903C100.346 104.386 100.551 103.89 100.916 103.525C101.281 103.159 101.776 102.954 102.293 102.954C102.809 102.954 103.304 103.159 103.669 103.525C104.035 103.89 104.239 104.386 104.239 104.903C104.239 109.756 102.766 113.626 99.8549 116.392C95.5908 120.41 89.6952 120.707 88.0635 120.707Z" fill="white"/>
<path d="M88.0635 80.8302H87.6185C87.1206 80.7815 86.6606 80.5426 86.3341 80.1633C86.0072 79.784 85.8389 79.2935 85.864 78.793C85.8891 78.2928 86.1055 77.8215 86.4684 77.477C86.8314 77.1322 87.313 76.9407 87.8132 76.9419C87.8688 76.9419 93.5606 77.1555 97.2037 73.6754C99.2894 71.6708 100.346 68.7569 100.346 65.0263C100.346 64.5091 100.551 64.0136 100.916 63.6481C101.281 63.2826 101.776 63.0773 102.293 63.0773C102.809 63.0773 103.304 63.2826 103.669 63.6481C104.035 64.0136 104.239 64.5091 104.239 65.0263C104.239 69.8798 102.766 73.7401 99.8549 76.5058C95.5908 80.5241 89.6952 80.8302 88.0635 80.8302Z" fill="white"/>
<path d="M88.0637 91.0383H87.6185C87.3629 91.0289 87.1114 90.9686 86.8794 90.8609C86.6474 90.7532 86.4389 90.6003 86.2662 90.411C86.0935 90.2219 85.9604 90.0002 85.8743 89.7591C85.7883 89.5179 85.751 89.2617 85.7648 89.0061C85.7886 88.4905 86.016 88.0057 86.3965 87.6578C86.777 87.3099 87.2797 87.1275 87.7946 87.1501C87.8502 87.1501 93.542 87.3636 97.1851 83.8741C99.2709 81.8695 100.328 78.965 100.328 75.2344C100.328 74.7176 100.532 74.2217 100.898 73.8562C101.263 73.4908 101.758 73.2854 102.274 73.2854C102.791 73.2854 103.286 73.4908 103.651 73.8562C104.016 74.2217 104.221 74.7176 104.221 75.2344C104.221 80.0785 102.747 83.9485 99.8363 86.7139C95.5907 90.7416 89.6952 91.0383 88.0637 91.0383Z" fill="white"/>
<path d="M88.0635 101.256H87.6185C87.1206 101.207 86.6606 100.968 86.3341 100.589C86.0072 100.21 85.8389 99.7192 85.864 99.219C85.8891 98.7188 86.1055 98.2472 86.4684 97.903C86.8314 97.5576 87.313 97.3667 87.8132 97.3677C87.8688 97.3677 93.5606 97.5809 97.2037 94.1008C99.2894 92.0965 100.346 89.1823 100.346 85.4517C100.346 84.9348 100.551 84.4393 100.916 84.0738C101.281 83.7083 101.776 83.503 102.293 83.503C102.809 83.503 103.304 83.7083 103.669 84.0738C104.035 84.4393 104.239 84.9348 104.239 85.4517C104.239 90.3052 102.766 94.1658 99.8549 96.9312C95.5908 100.959 89.6952 101.256 88.0635 101.256Z" fill="white"/>
<path d="M88.0634 111.464H87.6185C87.1049 111.438 86.6223 111.209 86.2772 110.828C85.9321 110.445 85.7525 109.941 85.7786 109.427C85.8044 108.913 86.0332 108.43 86.4147 108.084C86.7962 107.739 87.2995 107.559 87.8132 107.585C87.8688 107.585 93.5606 107.798 97.2037 104.309C99.2894 102.305 100.346 99.3998 100.346 95.6692C100.346 95.1524 100.551 94.6569 100.916 94.2911C101.281 93.9256 101.776 93.7205 102.293 93.7205C102.809 93.7205 103.304 93.9256 103.669 94.2911C104.035 94.6569 104.239 95.1524 104.239 95.6692C104.239 100.523 102.765 104.383 99.8549 107.149C95.5908 111.167 89.6952 111.464 88.0634 111.464Z" fill="white"/>
<path d="M102.58 133.347C102.064 133.347 101.569 133.141 101.203 132.776C100.838 132.41 100.633 131.915 100.633 131.398V51.1522C100.633 50.6354 100.838 50.1396 101.203 49.7744C101.569 49.4089 102.064 49.2036 102.58 49.2036C103.096 49.2036 103.591 49.4089 103.957 49.7744C104.322 50.1396 104.527 50.6354 104.527 51.1522C104.527 63.9961 116.577 67.1326 117.124 67.2626C117.625 67.3857 118.056 67.7025 118.323 68.1437C118.589 68.5852 118.671 69.1143 118.547 69.6151C118.424 70.116 118.108 70.5474 117.667 70.8146C117.226 71.0818 116.698 71.1628 116.198 71.0397C111.595 69.7024 107.516 66.9769 104.518 63.235V131.398C104.518 131.913 104.313 132.408 103.951 132.772C103.588 133.138 103.095 133.344 102.58 133.347Z" fill="white"/>
<path d="M116.8 120.707C115.131 120.707 109.236 120.41 104.999 116.382C102.098 113.598 100.624 109.747 100.624 104.894C100.624 104.377 100.829 103.881 101.194 103.515C101.559 103.15 102.054 102.945 102.571 102.945C103.087 102.945 103.582 103.15 103.947 103.515C104.312 103.881 104.517 104.377 104.517 104.894C104.517 108.606 105.574 111.538 107.66 113.543C111.303 117.032 116.995 116.828 117.05 116.809C117.563 116.796 118.06 116.982 118.439 117.328C118.817 117.674 119.047 118.153 119.08 118.665C119.092 118.921 119.054 119.177 118.968 119.417C118.881 119.657 118.749 119.879 118.576 120.068C118.403 120.257 118.196 120.41 117.964 120.518C117.733 120.626 117.481 120.686 117.226 120.698L116.8 120.707Z" fill="white"/>
<path d="M116.8 80.8302C115.131 80.8302 109.236 80.5241 104.999 76.4964C102.098 73.7122 100.624 69.8704 100.624 65.0169C100.624 64.761 100.674 64.5076 100.772 64.2711C100.87 64.0347 101.013 63.8199 101.194 63.6387C101.375 63.4579 101.59 63.3144 101.825 63.2164C102.062 63.1184 102.315 63.0679 102.571 63.0679C102.827 63.0679 103.08 63.1184 103.316 63.2164C103.551 63.3144 103.766 63.4579 103.947 63.6387C104.128 63.8199 104.272 64.0347 104.369 64.2711C104.467 64.5076 104.517 64.761 104.517 65.0169C104.517 68.729 105.574 71.6614 107.66 73.666C111.303 77.1461 116.995 76.9511 117.05 76.9325C117.563 76.9193 118.06 77.1055 118.439 77.4513C118.817 77.7973 119.047 78.2765 119.08 78.7886C119.092 79.0442 119.054 79.2995 118.968 79.5403C118.881 79.7808 118.749 80.0022 118.576 80.1909C118.403 80.3799 118.196 80.5329 117.964 80.6409C117.733 80.7492 117.481 80.8101 117.226 80.8208L116.8 80.8302Z" fill="white"/>
<path d="M116.8 91.0383C115.131 91.0383 109.236 90.7416 104.999 86.7139C102.098 83.9297 100.624 80.0785 100.624 75.2344C100.624 74.9785 100.674 74.7248 100.772 74.4883C100.87 74.2519 101.013 74.0371 101.194 73.8562C101.375 73.6754 101.59 73.5319 101.825 73.4339C102.062 73.336 102.315 73.2854 102.571 73.2854C102.827 73.2854 103.08 73.336 103.316 73.4339C103.551 73.5319 103.766 73.6754 103.947 73.8562C104.128 74.0371 104.272 74.2519 104.369 74.4883C104.467 74.7248 104.517 74.9785 104.517 75.2344C104.517 78.9465 105.574 81.8695 107.66 83.8741C111.303 87.3636 116.995 87.1592 117.05 87.1501C117.563 87.1347 118.063 87.3196 118.441 87.6663C118.82 88.0126 119.05 88.4934 119.08 89.0061C119.094 89.2617 119.057 89.5179 118.971 89.7591C118.885 90.0002 118.751 90.2219 118.579 90.411C118.406 90.6003 118.198 90.7532 117.965 90.8609C117.733 90.9686 117.482 91.0289 117.226 91.0383H116.8Z" fill="white"/>
<path d="M116.8 101.256C115.131 101.256 109.236 100.959 104.999 96.922C102.098 94.1381 100.624 90.296 100.624 85.4425C100.624 85.1866 100.674 84.9332 100.772 84.6964C100.87 84.46 101.013 84.2455 101.194 84.0643C101.375 83.8835 101.59 83.74 101.825 83.642C102.062 83.544 102.315 83.4935 102.571 83.4935C102.827 83.4935 103.08 83.544 103.316 83.642C103.551 83.74 103.766 83.8835 103.947 84.0643C104.128 84.2455 104.272 84.46 104.369 84.6964C104.467 84.9332 104.517 85.1866 104.517 85.4425C104.517 89.1546 105.574 92.087 107.66 94.0916C111.303 97.5717 116.995 97.3676 117.05 97.3581C117.563 97.3424 118.063 97.528 118.441 97.874C118.82 98.2213 119.05 98.7011 119.08 99.2142C119.092 99.4695 119.054 99.7254 118.968 99.9659C118.881 100.206 118.749 100.428 118.576 100.617C118.403 100.806 118.196 100.959 117.964 101.066C117.733 101.175 117.481 101.235 117.226 101.246L116.8 101.256Z" fill="white"/>
<path d="M116.8 111.464C115.131 111.464 109.236 111.167 104.999 107.14C102.098 104.355 100.624 100.514 100.624 95.6598C100.624 95.4039 100.674 95.1505 100.772 94.9137C100.87 94.6782 101.013 94.4628 101.194 94.282C101.375 94.1008 101.59 93.957 101.825 93.8596C102.062 93.7614 102.315 93.7111 102.571 93.7111C102.827 93.7111 103.08 93.7614 103.316 93.8596C103.551 93.957 103.766 94.1008 103.947 94.282C104.128 94.4628 104.272 94.6782 104.369 94.9137C104.467 95.1505 104.517 95.4039 104.517 95.6598C104.517 99.3719 105.574 102.295 107.66 104.3C111.303 107.789 116.995 107.576 117.05 107.576C117.563 107.563 118.06 107.748 118.439 108.095C118.817 108.441 119.047 108.919 119.08 109.432C119.094 109.688 119.057 109.943 118.971 110.184C118.885 110.426 118.751 110.647 118.579 110.837C118.406 111.026 118.198 111.179 117.965 111.287C117.733 111.394 117.482 111.455 117.226 111.464H116.8Z" fill="white"/>
<path d="M98.3717 133.347C97.8552 133.347 97.3603 133.142 96.9952 132.776C96.6297 132.41 96.425 131.915 96.425 131.398V63.2349C93.4233 66.9781 89.341 69.7033 84.7356 71.0397C84.2354 71.1628 83.7067 71.0818 83.2661 70.8146C82.8253 70.5473 82.5088 70.1159 82.3858 69.6151C82.263 69.1142 82.3437 68.5852 82.6106 68.144C82.8774 67.7028 83.3085 67.3857 83.8087 67.2626C84.3557 67.1235 96.4156 63.9775 96.4156 51.1522C96.4501 50.6598 96.6686 50.1986 97.0294 49.862C97.3898 49.525 97.8646 49.3379 98.3578 49.3379C98.8508 49.3379 99.3255 49.525 99.686 49.862C100.047 50.1986 100.266 50.6598 100.3 51.1522V131.398C100.301 131.652 100.252 131.905 100.156 132.141C100.06 132.377 99.9177 132.591 99.739 132.772C99.5601 132.953 99.3469 133.097 99.1123 133.195C98.8778 133.294 98.6257 133.346 98.3717 133.347Z" fill="#3A494C"/>
<path d="M84.1425 120.707H83.6976C83.2003 120.659 82.7409 120.42 82.4144 120.042C82.0878 119.664 81.9189 119.174 81.9428 118.675C81.9666 118.176 82.1811 117.704 82.5425 117.359C82.9035 117.013 83.3833 116.82 83.8829 116.819C83.9384 116.819 89.6393 117.032 93.2733 113.552C95.3682 111.548 96.425 108.643 96.425 104.903C96.4593 104.41 96.6781 103.949 97.0385 103.613C97.3993 103.276 97.8737 103.089 98.367 103.089C98.8603 103.089 99.3347 103.276 99.6954 103.613C100.056 103.949 100.275 104.41 100.309 104.903C100.309 109.757 98.8442 113.626 95.9337 116.392C91.7066 120.41 85.8016 120.707 84.1425 120.707Z" fill="#3A494C"/>
<path d="M84.142 80.8302H83.6971C83.4412 80.8195 83.1897 80.7583 82.9574 80.6497C82.725 80.5407 82.5169 80.3868 82.3442 80.1972C82.1718 80.0072 82.0387 79.7849 81.9527 79.5431C81.8666 79.3013 81.8296 79.0451 81.8434 78.7886C81.872 78.2749 82.1005 77.7932 82.4801 77.4462C82.8597 77.0993 83.3596 76.9149 83.8733 76.9325C83.9288 76.9325 89.6301 77.146 93.2637 73.666C95.3586 71.6614 96.4155 68.7475 96.4155 65.0168C96.3969 64.7503 96.434 64.4827 96.5228 64.2309C96.612 63.9791 96.752 63.7483 96.9345 63.553C97.1162 63.3574 97.337 63.2016 97.5816 63.0952C97.8262 62.9887 98.0905 62.9338 98.3574 62.9338C98.6246 62.9338 98.8887 62.9887 99.1332 63.0952C99.3782 63.2016 99.5986 63.3574 99.7804 63.553C99.9631 63.7483 100.103 63.9791 100.192 64.2309C100.281 64.4827 100.318 64.7503 100.299 65.0168C100.299 69.8703 98.835 73.731 95.9241 76.4964C91.7064 80.5241 85.8014 80.8302 84.142 80.8302Z" fill="#3A494C"/>
<path d="M84.142 91.0383H83.6971C83.4415 91.0289 83.1903 90.9686 82.958 90.8609C82.726 90.7532 82.5175 90.6003 82.3448 90.4113C82.1721 90.2219 82.039 90.0002 81.953 89.7591C81.8669 89.5179 81.8296 89.2617 81.8434 89.0061C81.8698 88.4915 82.0977 88.0082 82.4776 87.6606C82.8575 87.3133 83.359 87.1297 83.8732 87.1501C83.9288 87.1501 89.63 87.3633 93.2637 83.8741C95.3586 81.8695 96.4154 78.9647 96.4154 75.2344C96.3969 74.9675 96.434 74.7 96.5228 74.4481C96.612 74.1963 96.752 73.9655 96.9344 73.7702C97.1162 73.5749 97.337 73.4192 97.5816 73.3124C97.8261 73.206 98.0905 73.151 98.3574 73.151C98.6246 73.151 98.8886 73.206 99.1332 73.3124C99.3781 73.4192 99.5986 73.5749 99.7803 73.7702C99.9631 73.9655 100.103 74.1963 100.192 74.4481C100.281 74.7 100.318 74.9675 100.299 75.2344C100.299 80.0785 98.835 83.9482 95.9241 86.7139C91.7064 90.7413 85.8014 91.0383 84.142 91.0383Z" fill="#3A494C"/>
<path d="M84.1425 101.256H83.6976C83.2003 101.208 82.7409 100.969 82.4144 100.59C82.0878 100.213 81.9189 99.7226 81.9428 99.2233C81.9666 98.7241 82.1811 98.2528 82.5425 97.9074C82.9035 97.5613 83.3833 97.3682 83.8829 97.3673C83.9384 97.3673 89.6393 97.5808 93.2733 94.1007C95.3682 92.0962 96.425 89.1822 96.425 85.4516C96.4065 85.185 96.4436 84.9175 96.5324 84.6657C96.6216 84.4138 96.7613 84.183 96.944 83.9877C97.1258 83.7924 97.3462 83.6364 97.5912 83.5299C97.8357 83.4235 98.1001 83.3685 98.367 83.3685C98.6339 83.3685 98.8982 83.4235 99.1428 83.5299C99.3877 83.6364 99.6081 83.7924 99.7899 83.9877C99.9724 84.183 100.112 84.4138 100.202 84.6657C100.29 84.9175 100.327 85.185 100.309 85.4516C100.309 90.3051 98.8442 94.1657 95.9337 96.9311C91.7066 100.959 85.8016 101.256 84.1425 101.256Z" fill="#3A494C"/>
<path d="M84.1424 111.464H83.6975C83.1835 111.439 82.7006 111.212 82.3546 110.83C82.0086 110.449 81.828 109.946 81.8528 109.432C81.8773 108.917 82.105 108.434 82.4858 108.087C82.8664 107.741 83.369 107.56 83.8827 107.585C83.9383 107.585 89.6395 107.798 93.2732 104.309C95.3681 102.305 96.4249 99.3998 96.4249 95.6691C96.4064 95.4029 96.4434 95.1347 96.5323 94.8832C96.6215 94.6317 96.7615 94.4006 96.9439 94.2046C97.1257 94.01 97.3464 93.8539 97.591 93.7472C97.8356 93.6404 98.1 93.5858 98.3669 93.5858C98.6338 93.5858 98.8981 93.6404 99.1427 93.7472C99.3876 93.8539 99.608 94.01 99.7898 94.2046C99.9726 94.4006 100.113 94.6317 100.201 94.8832C100.29 95.1347 100.327 95.4029 100.309 95.6691C100.309 100.523 98.8444 104.383 95.9335 107.149C91.7064 111.167 85.8018 111.464 84.1424 111.464Z" fill="#3A494C"/>
<path d="M98.6959 133.347C98.1794 133.347 97.6846 133.142 97.3195 132.776C96.954 132.41 96.7493 131.915 96.7493 131.398V51.1522C96.7835 50.6598 97.0023 50.1986 97.3628 49.862C97.7235 49.525 98.1983 49.3379 98.6912 49.3379C99.1845 49.3379 99.6589 49.525 100.02 49.862C100.38 50.1986 100.599 50.6598 100.633 51.1522C100.633 63.996 112.73 67.1326 113.24 67.2626C113.741 67.3857 114.172 67.7028 114.439 68.144C114.705 68.5852 114.786 69.1142 114.663 69.6151C114.54 70.1159 114.224 70.5473 113.783 70.8146C113.342 71.0818 112.814 71.1628 112.313 71.0397C107.708 69.7033 103.626 66.9781 100.624 63.2349V131.398C100.624 131.911 100.422 132.405 100.06 132.77C99.6997 133.134 99.2087 133.342 98.6959 133.347Z" fill="#3A494C"/>
<path d="M112.916 120.707C111.257 120.707 105.361 120.41 101.125 116.383C98.2231 113.598 96.7493 109.747 96.7493 104.894C96.7835 104.401 97.0023 103.94 97.3628 103.604C97.7235 103.267 98.1983 103.079 98.6912 103.079C99.1845 103.079 99.6589 103.267 100.02 103.604C100.38 103.94 100.599 104.401 100.633 104.894C100.633 108.606 101.699 111.538 103.785 113.543C107.428 117.032 113.12 116.828 113.175 116.809C113.687 116.798 114.183 116.986 114.561 117.331C114.94 117.676 115.17 118.154 115.206 118.665C115.228 119.181 115.046 119.684 114.698 120.065C114.351 120.446 113.866 120.674 113.352 120.698L112.916 120.707Z" fill="#3A494C"/>
<path d="M112.916 80.8302C111.257 80.8302 105.361 80.5241 101.125 76.4964C98.2231 73.7125 96.7493 69.8703 96.7493 65.0168C96.7308 64.7503 96.7678 64.4827 96.8567 64.2309C96.9458 63.9791 97.0859 63.7483 97.2683 63.553C97.4501 63.3574 97.6705 63.2016 97.9154 63.0952C98.16 62.9887 98.4244 62.9338 98.6912 62.9338C98.9581 62.9338 99.2225 62.9887 99.4671 63.0952C99.712 63.2016 99.9324 63.3574 100.114 63.553C100.297 63.7483 100.437 63.9791 100.526 64.2309C100.615 64.4827 100.652 64.7503 100.633 65.0168C100.633 68.729 101.699 71.6614 103.785 73.666C107.428 77.146 113.12 76.951 113.175 76.9325C113.687 76.9218 114.183 77.1087 114.561 77.4541C114.939 77.7998 115.17 78.2774 115.206 78.7886C115.228 79.3042 115.046 79.8075 114.698 80.1884C114.351 80.5696 113.866 80.7969 113.352 80.8211L112.916 80.8302Z" fill="#3A494C"/>
<path d="M112.916 91.0383C111.257 91.0383 105.361 90.7413 101.125 86.7139C98.2231 83.9297 96.7493 80.0785 96.7493 75.2344C96.7308 74.9675 96.7678 74.7 96.8567 74.4481C96.9458 74.1963 97.0859 73.9655 97.2683 73.7702C97.4501 73.5749 97.6705 73.4192 97.9154 73.3124C98.16 73.206 98.4244 73.151 98.6912 73.151C98.9581 73.151 99.2225 73.206 99.4671 73.3124C99.712 73.4192 99.9324 73.5749 100.114 73.7702C100.297 73.9655 100.437 74.1963 100.526 74.4481C100.615 74.7 100.652 74.9675 100.633 75.2344C100.633 78.9462 101.699 81.8695 103.785 83.8741C107.428 87.3633 113.12 87.1592 113.175 87.1501C113.688 87.1369 114.185 87.3228 114.564 87.6688C114.942 88.0148 115.172 88.494 115.206 89.0061C115.217 89.2617 115.179 89.517 115.093 89.7578C115.006 89.9984 114.874 90.2197 114.701 90.4084C114.529 90.5975 114.321 90.7504 114.089 90.8584C113.858 90.9664 113.606 91.0276 113.352 91.0383H112.916Z" fill="#3A494C"/>
<path d="M112.916 101.256C111.257 101.256 105.361 100.959 101.125 96.922C98.2231 94.1381 96.7493 90.296 96.7493 85.4425C96.7308 85.1759 96.7678 84.9084 96.8567 84.6566C96.9458 84.4044 97.0859 84.1736 97.2683 83.9783C97.4501 83.783 97.6705 83.6273 97.9154 83.5208C98.16 83.4141 98.4244 83.3591 98.6912 83.3591C98.9581 83.3591 99.2225 83.4141 99.4671 83.5208C99.712 83.6273 99.9324 83.783 100.114 83.9783C100.297 84.1736 100.437 84.4044 100.526 84.6566C100.615 84.9084 100.652 85.1759 100.633 85.4425C100.633 89.1546 101.699 92.0871 103.785 94.0916C107.428 97.5717 113.12 97.3676 113.175 97.3582C113.688 97.3453 114.185 97.5309 114.564 97.8769C114.942 98.2233 115.172 98.7021 115.206 99.2142C115.228 99.7292 115.046 100.233 114.698 100.614C114.351 100.995 113.866 101.223 113.352 101.246L112.916 101.256Z" fill="#3A494C"/>
<path d="M112.916 111.464C111.257 111.464 105.361 111.167 101.125 107.139C98.2231 104.355 96.7493 100.513 96.7493 95.6597C96.7308 95.3935 96.7678 95.1253 96.8567 94.8738C96.9458 94.6223 97.0859 94.3912 97.2683 94.1956C97.4501 94.0006 97.6705 93.8445 97.9154 93.7378C98.16 93.6313 98.4244 93.5764 98.6912 93.5764C98.9581 93.5764 99.2225 93.6313 99.4671 93.7378C99.712 93.8445 99.9324 94.0006 100.114 94.1956C100.297 94.3912 100.437 94.6223 100.526 94.8738C100.615 95.1253 100.652 95.3935 100.633 95.6597C100.633 99.3719 101.699 102.295 103.785 104.3C107.428 107.789 113.12 107.575 113.175 107.575C113.686 107.567 114.181 107.755 114.558 108.1C114.937 108.445 115.168 108.921 115.206 109.431C115.217 109.687 115.179 109.943 115.093 110.183C115.006 110.424 114.874 110.645 114.701 110.834C114.529 111.023 114.321 111.176 114.089 111.284C113.858 111.392 113.606 111.453 113.352 111.464H112.916Z" fill="#3A494C"/>
<path d="M142.45 134.303C141.926 134.303 141.423 134.095 141.054 133.724C140.683 133.353 140.475 132.85 140.475 132.326V96.8942C138.264 99.6467 135.163 101.54 131.706 102.249C131.448 102.284 131.187 102.268 130.936 102.202C130.683 102.136 130.448 102.021 130.241 101.864C130.034 101.707 129.86 101.51 129.729 101.285C129.598 101.061 129.512 100.813 129.477 100.555C129.441 100.297 129.457 100.035 129.523 99.7839C129.589 99.5314 129.704 99.2959 129.86 99.089C130.018 98.8811 130.214 98.7066 130.439 98.5756C130.663 98.445 130.91 98.3587 131.168 98.3232C131.586 98.2582 140.438 96.7551 140.438 83.9391C140.42 83.6675 140.457 83.395 140.548 83.1384C140.639 82.8819 140.782 82.6467 140.967 82.448C141.153 82.2489 141.377 82.0903 141.627 81.982C141.876 81.8733 142.146 81.8174 142.417 81.8174C142.689 81.8174 142.958 81.8733 143.208 81.982C143.457 82.0903 143.682 82.2489 143.867 82.448C144.052 82.6467 144.195 82.8819 144.287 83.1384C144.378 83.395 144.415 83.6675 144.396 83.9391V132.326C144.395 132.845 144.189 133.342 143.825 133.711C143.462 134.081 142.968 134.293 142.45 134.303Z" fill="white"/>
<path d="M127.924 114.146H127.47C127.201 114.146 126.936 114.09 126.689 113.985C126.442 113.878 126.22 113.723 126.035 113.528C125.85 113.333 125.706 113.103 125.613 112.851C125.519 112.599 125.478 112.331 125.491 112.063C125.505 111.794 125.572 111.531 125.69 111.289C125.808 111.048 125.973 110.833 126.175 110.658C126.38 110.481 126.616 110.348 126.872 110.268C127.127 110.186 127.397 110.157 127.664 110.183C127.72 110.183 133.513 110.406 137.231 106.852C139.353 104.81 140.438 101.85 140.438 98.0449C140.472 97.5428 140.696 97.0725 141.063 96.7289C141.431 96.3854 141.915 96.1945 142.417 96.1945C142.92 96.1945 143.403 96.3854 143.771 96.7289C144.139 97.0725 144.362 97.5428 144.396 98.0449C144.396 102.991 142.895 106.926 139.937 109.738C135.664 113.858 129.657 114.146 127.924 114.146Z" fill="white"/>
<path d="M127.924 124.568H127.469C126.949 124.534 126.464 124.298 126.117 123.909C125.77 123.52 125.59 123.01 125.616 122.489C125.654 121.97 125.892 121.487 126.279 121.14C126.667 120.794 127.173 120.612 127.692 120.633C127.748 120.633 133.541 120.856 137.259 117.301C139.381 115.26 140.466 112.299 140.466 108.494C140.5 107.992 140.724 107.522 141.091 107.178C141.459 106.835 141.942 106.644 142.445 106.644C142.947 106.644 143.431 106.835 143.799 107.178C144.166 107.522 144.39 107.992 144.424 108.494C144.424 113.441 142.922 117.375 139.965 120.197C135.664 124.261 129.657 124.568 127.924 124.568Z" fill="white"/>
<path d="M142.756 134.303C142.231 134.303 141.727 134.095 141.356 133.724C140.984 133.354 140.774 132.851 140.772 132.326V83.9391C140.753 83.6675 140.79 83.395 140.881 83.1384C140.973 82.8819 141.116 82.6467 141.301 82.448C141.487 82.2489 141.711 82.0903 141.96 81.982C142.21 81.8733 142.479 81.8174 142.751 81.8174C143.023 81.8174 143.292 81.8733 143.542 81.982C143.791 82.0903 144.015 82.2489 144.201 82.448C144.386 82.6467 144.529 82.8819 144.62 83.1384C144.711 83.395 144.749 83.6675 144.73 83.9391C144.73 96.9312 154.204 99.2514 154.602 99.344C154.856 99.3999 155.097 99.5048 155.31 99.6533C155.523 99.8015 155.705 99.9908 155.845 100.209C155.985 100.428 156.082 100.673 156.127 100.928C156.174 101.184 156.169 101.447 156.113 101.701C156.058 101.956 155.953 102.196 155.805 102.409C155.656 102.623 155.467 102.806 155.25 102.946C155.031 103.086 154.786 103.182 154.53 103.228C154.275 103.274 154.013 103.27 153.759 103.214C150.163 102.181 146.996 100.013 144.73 97.0333V132.298C144.734 132.56 144.685 132.82 144.588 133.063C144.49 133.306 144.345 133.528 144.162 133.714C143.978 133.901 143.759 134.048 143.517 134.149C143.277 134.25 143.017 134.303 142.756 134.303Z" fill="white"/>
<path d="M157.272 114.146C155.576 114.146 149.569 113.84 145.221 109.729C142.264 106.945 140.763 102.982 140.763 98.0358C140.797 97.5337 141.02 97.0631 141.387 96.7199C141.755 96.3763 142.239 96.1851 142.742 96.1851C143.244 96.1851 143.728 96.3763 144.096 96.7199C144.463 97.0631 144.687 97.5337 144.721 98.0358C144.721 101.841 145.805 104.801 147.928 106.843C151.636 110.397 157.439 110.184 157.495 110.174C158.011 110.158 158.514 110.342 158.899 110.687C159.285 111.034 159.522 111.514 159.562 112.03C159.587 112.55 159.407 113.059 159.059 113.446C158.713 113.833 158.227 114.068 157.708 114.1L157.272 114.146Z" fill="white"/>
<path d="M157.272 124.567C155.576 124.567 149.569 124.261 145.221 120.16C142.264 117.376 140.763 113.404 140.763 108.457C140.797 107.955 141.02 107.485 141.387 107.141C141.755 106.798 142.239 106.607 142.742 106.607C143.244 106.607 143.728 106.798 144.096 107.141C144.463 107.485 144.687 107.955 144.721 108.457C144.721 112.262 145.805 115.223 147.928 117.264C151.636 120.818 157.439 120.605 157.495 120.596C158.011 120.58 158.514 120.764 158.899 121.11C159.285 121.455 159.522 121.936 159.562 122.452C159.587 122.971 159.407 123.48 159.059 123.868C158.713 124.255 158.227 124.49 157.708 124.521L157.272 124.567Z" fill="white"/>
<path d="M138.491 134.303C137.968 134.303 137.465 134.095 137.096 133.724C136.725 133.353 136.517 132.85 136.517 132.326V96.8942C134.305 99.6467 131.204 101.54 127.748 102.249C127.228 102.32 126.701 102.182 126.283 101.864C125.865 101.546 125.59 101.076 125.518 100.555C125.447 100.034 125.585 99.5076 125.902 99.089C126.22 98.6705 126.69 98.3948 127.21 98.3232C127.627 98.2582 136.48 96.7551 136.48 83.9391C136.461 83.6675 136.498 83.395 136.59 83.1384C136.681 82.8819 136.824 82.6467 137.009 82.448C137.195 82.2489 137.419 82.0903 137.668 81.982C137.918 81.8733 138.188 81.8174 138.459 81.8174C138.731 81.8174 139 81.8733 139.25 81.982C139.499 82.0903 139.724 82.2489 139.909 82.448C140.094 82.6467 140.237 82.8819 140.329 83.1384C140.42 83.395 140.457 83.6675 140.438 83.9391V132.326C140.436 132.845 140.231 133.342 139.867 133.711C139.504 134.081 139.01 134.293 138.491 134.303Z" fill="#3A494C"/>
<path d="M124.003 114.146H123.549C123.041 114.097 122.573 113.855 122.241 113.47C121.907 113.084 121.734 112.585 121.759 112.076C121.782 111.567 122 111.087 122.368 110.735C122.736 110.382 123.225 110.185 123.734 110.183C123.799 110.183 129.592 110.406 133.3 106.852C135.432 104.81 136.517 101.85 136.517 98.0449C136.551 97.5428 136.775 97.0725 137.142 96.7289C137.51 96.3854 137.994 96.1945 138.496 96.1945C138.999 96.1945 139.482 96.3854 139.85 96.7289C140.217 97.0725 140.441 97.5428 140.475 98.0449C140.475 102.991 138.973 106.926 136.016 109.738C131.706 113.858 125.69 114.146 124.003 114.146Z" fill="#3A494C"/>
<path d="M124.003 124.568H123.549C123.028 124.534 122.543 124.298 122.196 123.909C121.849 123.52 121.67 123.01 121.695 122.489C121.733 121.972 121.969 121.49 122.355 121.144C122.74 120.798 123.245 120.614 123.762 120.633C123.827 120.633 129.62 120.856 133.328 117.301C135.46 115.26 136.545 112.299 136.545 108.494C136.579 107.992 136.803 107.522 137.17 107.178C137.538 106.835 138.022 106.644 138.524 106.644C139.026 106.644 139.51 106.835 139.878 107.178C140.245 107.522 140.469 107.992 140.503 108.494C140.503 113.441 139.002 117.375 136.044 120.197C131.706 124.261 125.69 124.568 124.003 124.568Z" fill="#3A494C"/>
<path d="M138.825 134.303C138.3 134.303 137.797 134.095 137.425 133.724C137.054 133.354 136.844 132.851 136.841 132.326V83.9391C136.823 83.6675 136.86 83.395 136.952 83.1384C137.042 82.8819 137.185 82.6467 137.37 82.448C137.556 82.2489 137.78 82.0903 138.03 81.982C138.279 81.8733 138.549 81.8174 138.82 81.8174C139.092 81.8174 139.362 81.8733 139.611 81.982C139.86 82.0903 140.085 82.2489 140.27 82.448C140.456 82.6467 140.598 82.8819 140.689 83.1384C140.781 83.395 140.818 83.6675 140.799 83.9391C140.799 96.9312 150.273 99.2514 150.672 99.344C151.185 99.4564 151.631 99.7673 151.915 100.209C152.199 100.652 152.295 101.188 152.183 101.701C152.071 102.215 151.76 102.662 151.319 102.946C150.877 103.23 150.341 103.326 149.828 103.214C146.233 102.181 143.065 100.013 140.799 97.0333V132.298C140.803 132.56 140.755 132.82 140.658 133.063C140.56 133.306 140.415 133.528 140.231 133.714C140.048 133.901 139.829 134.048 139.587 134.149C139.346 134.25 139.086 134.303 138.825 134.303Z" fill="#3A494C"/>
<path d="M153.314 114.146C151.618 114.146 145.611 113.84 141.263 109.729C138.306 106.945 136.804 102.982 136.804 98.0358C136.839 97.5337 137.062 97.0631 137.429 96.7199C137.797 96.3763 138.281 96.1851 138.783 96.1851C139.286 96.1851 139.77 96.3763 140.138 96.7199C140.505 97.0631 140.728 97.5337 140.762 98.0358C140.762 101.841 141.847 104.801 143.97 106.843C147.678 110.397 153.481 110.184 153.536 110.174C154.053 110.16 154.554 110.345 154.939 110.69C155.324 111.035 155.561 111.515 155.604 112.03C155.629 112.55 155.449 113.059 155.101 113.446C154.754 113.833 154.269 114.068 153.75 114.1L153.314 114.146Z" fill="#3A494C"/>
<path d="M153.314 124.567C151.618 124.567 145.611 124.261 141.263 120.16C138.306 117.376 136.804 113.404 136.804 108.457C136.839 107.955 137.062 107.485 137.429 107.141C137.797 106.798 138.281 106.607 138.783 106.607C139.286 106.607 139.77 106.798 140.138 107.141C140.505 107.485 140.728 107.955 140.762 108.457C140.762 112.262 141.847 115.223 143.97 117.264C147.678 120.818 153.481 120.605 153.536 120.596C154.053 120.582 154.554 120.767 154.939 121.112C155.324 121.457 155.561 121.937 155.604 122.452C155.629 122.971 155.449 123.48 155.101 123.868C154.754 124.255 154.269 124.49 153.75 124.521L153.314 124.567Z" fill="#3A494C"/>
<path d="M140.994 75.7447C140.463 75.744 139.953 75.534 139.576 75.16C139.202 74.7841 138.992 74.2755 138.992 73.7448C138.992 73.2141 139.202 72.7055 139.576 72.3296L150.376 61.5183L147.335 59.3931C147.106 59.2308 146.913 59.0226 146.769 58.7814C146.626 58.5403 146.533 58.2718 146.5 57.993C146.465 57.7142 146.489 57.4312 146.571 57.1628C146.654 56.894 146.79 56.6453 146.973 56.4327L160.461 40.9441C160.634 40.7465 160.843 40.5851 161.077 40.4687C161.312 40.3522 161.567 40.2834 161.828 40.2655C162.09 40.2479 162.352 40.2818 162.6 40.3657C162.848 40.4495 163.077 40.5814 163.274 40.7538C163.472 40.9262 163.633 41.1359 163.749 41.3708C163.866 41.6056 163.934 41.8612 163.952 42.1228C163.97 42.3844 163.935 42.6466 163.852 42.8949C163.769 43.1436 163.637 43.3728 163.464 43.5703L151.414 57.3885L154.584 59.6157C154.823 59.7815 155.022 59.9979 155.169 60.2497C155.314 60.5015 155.402 60.7826 155.427 61.0727C155.453 61.3632 155.415 61.6555 155.315 61.9296C155.216 62.2037 155.058 62.4527 154.853 62.6597L142.403 75.1694C142.218 75.3534 141.998 75.4988 141.756 75.5977C141.514 75.6963 141.256 75.7462 140.994 75.7447Z" fill="#3A494C"/>
<path d="M233.387 136.177H69.5699C69.157 136.176 68.7517 136.066 68.396 135.856C68.0402 135.645 67.747 135.345 67.5467 134.983C67.3463 134.622 67.2459 134.212 67.2562 133.8C67.2663 133.387 67.3868 132.983 67.6047 132.632L75.8178 119.482C75.9622 119.192 76.1654 118.934 76.415 118.728C76.6643 118.521 76.9544 118.369 77.2665 118.28C77.5783 118.193 77.9051 118.172 78.2257 118.218C78.5466 118.265 78.854 118.378 79.1281 118.55C79.4022 118.723 79.6373 118.952 79.8179 119.221C79.9984 119.491 80.1205 119.795 80.1764 120.114C80.232 120.434 80.2204 120.762 80.1419 121.077C80.0634 121.391 79.9199 121.685 79.7205 121.941L73.7229 131.537H229.178L151.478 7.04368L119.034 59.0126C118.708 59.5345 118.189 59.9053 117.59 60.0435C116.991 60.1819 116.362 60.0764 115.841 59.7505C115.319 59.4242 114.949 58.9043 114.81 58.3045C114.673 57.7051 114.778 57.0752 115.103 56.5533L149.495 1.4663C149.701 1.13047 149.99 0.853186 150.335 0.660858C150.678 0.468527 151.066 0.367554 151.46 0.367554C151.854 0.367554 152.241 0.468527 152.585 0.660858C152.929 0.853186 153.218 1.13047 153.425 1.4663L235.333 132.66C235.551 133.011 235.672 133.414 235.682 133.827C235.692 134.24 235.592 134.65 235.392 135.011C235.191 135.373 234.898 135.673 234.543 135.884C234.187 136.094 233.781 136.204 233.368 136.205L233.387 136.177Z" fill="#3A494C"/>
</svg>
