<svg width="315" height="247" viewBox="0 0 315 247" fill="none" xmlns="http://www.w3.org/2000/svg">
  <path d="M226.6 24.75L138.24 166.12H314.95L226.6 24.75Z" fill="#D5E0DC" />
  <path d="M88.82 24.75L0.469971 166.12H177.18L88.82 24.75Z" fill="#D5E0DC" />
  <path d="M163.41 24.75L75.05 166.12H251.77L163.41 24.75Z" fill="#BBD9D0" />
  <path d="M163.41 24.75L75.05 166.12H251.77L163.41 24.75Z" fill="#9FCCBD" />
  <path d="M110.31 143.69C109.753 143.69 109.219 143.469 108.825 143.075C108.431 142.681 108.21 142.147 108.21 141.59V68.14C104.973 72.1753 100.569 75.1125 95.6001 76.55C95.0603 76.6826 94.49 76.5954 94.0146 76.3075C93.5392 76.0197 93.1977 75.5547 93.065 75.015C92.9324 74.4753 93.0197 73.905 93.3075 73.4296C93.5954 72.9542 94.0603 72.6126 94.6001 72.48C95.1801 72.33 108.19 68.94 108.19 55.12C108.19 54.5631 108.411 54.0289 108.805 53.6351C109.199 53.2413 109.733 53.02 110.29 53.02C110.847 53.02 111.381 53.2413 111.775 53.6351C112.169 54.0289 112.39 54.5631 112.39 55.12V141.59C112.39 142.144 112.172 142.675 111.782 143.068C111.393 143.461 110.864 143.685 110.31 143.69Z" fill="white" />
  <path d="M95 130.07H94.52C93.9829 130.017 93.4866 129.76 93.1342 129.351C92.7818 128.943 92.6003 128.414 92.6273 127.875C92.6543 127.336 92.8878 126.828 93.2793 126.457C93.6708 126.085 94.1903 125.879 94.73 125.88C94.79 125.88 100.93 126.11 104.86 122.36C107.11 120.2 108.25 117.07 108.25 113.04C108.25 112.483 108.471 111.949 108.865 111.555C109.259 111.161 109.793 110.94 110.35 110.94C110.907 110.94 111.441 111.161 111.835 111.555C112.229 111.949 112.45 112.483 112.45 113.04C112.45 118.27 110.86 122.44 107.72 125.42C103.12 129.75 96.76 130.07 95 130.07Z" fill="white" />
  <path d="M95 87.1H94.52C93.9829 87.0474 93.4866 86.79 93.1342 86.3813C92.7818 85.9726 92.6003 85.4439 92.6273 84.9048C92.6543 84.3658 92.8878 83.8579 93.2793 83.4865C93.6708 83.115 94.1903 82.9086 94.73 82.91C94.79 82.91 100.93 83.14 104.86 79.39C107.11 77.23 108.25 74.09 108.25 70.07C108.25 69.513 108.471 68.9789 108.865 68.5851C109.259 68.1912 109.793 67.97 110.35 67.97C110.907 67.97 111.441 68.1912 111.835 68.5851C112.229 68.9789 112.45 69.513 112.45 70.07C112.45 75.3 110.86 79.46 107.72 82.44C103.12 86.77 96.76 87.1 95 87.1Z" fill="white" />
  <path d="M95 98.1H94.52C94.2441 98.0898 93.973 98.0247 93.7226 97.9087C93.4721 97.7926 93.2472 97.6279 93.0611 97.424C92.8749 97.2202 92.7312 96.9814 92.6383 96.7214C92.5454 96.4615 92.5052 96.1856 92.52 95.91C92.5459 95.3546 92.791 94.8322 93.2015 94.4573C93.6121 94.0824 94.1545 93.8855 94.71 93.91C94.77 93.91 100.91 94.14 104.84 90.38C107.09 88.22 108.23 85.09 108.23 81.07C108.23 80.513 108.451 79.9789 108.845 79.5851C109.239 79.1912 109.773 78.97 110.33 78.97C110.887 78.97 111.421 79.1912 111.815 79.5851C112.209 79.9789 112.43 80.513 112.43 81.07C112.43 86.29 110.84 90.46 107.7 93.44C103.12 97.78 96.76 98.1 95 98.1Z" fill="white" />
  <path d="M95 109.11H94.52C93.9829 109.057 93.4866 108.8 93.1342 108.391C92.7818 107.983 92.6003 107.454 92.6273 106.915C92.6543 106.376 92.8878 105.868 93.2793 105.497C93.6708 105.125 94.1903 104.919 94.73 104.92C94.79 104.92 100.93 105.15 104.86 101.4C107.11 99.24 108.25 96.1 108.25 92.08C108.25 91.523 108.471 90.9889 108.865 90.5951C109.259 90.2012 109.793 89.98 110.35 89.98C110.907 89.98 111.441 90.2012 111.835 90.5951C112.229 90.9889 112.45 91.523 112.45 92.08C112.45 97.31 110.86 101.47 107.72 104.45C103.12 108.79 96.76 109.11 95 109.11Z" fill="white" />
  <path d="M95 120.11H94.52C93.9657 120.082 93.4451 119.835 93.0729 119.424C92.7006 119.012 92.5071 118.469 92.535 117.915C92.5628 117.361 92.8097 116.84 93.2214 116.468C93.633 116.096 94.1757 115.902 94.73 115.93C94.79 115.93 100.93 116.16 104.86 112.4C107.11 110.24 108.25 107.11 108.25 103.09C108.25 102.533 108.471 101.999 108.865 101.605C109.259 101.211 109.793 100.99 110.35 100.99C110.907 100.99 111.441 101.211 111.835 101.605C112.229 101.999 112.45 102.533 112.45 103.09C112.45 108.32 110.86 112.48 107.72 115.46C103.12 119.79 96.76 120.11 95 120.11Z" fill="white" />
  <path d="M110.66 143.69C110.103 143.69 109.569 143.469 109.175 143.075C108.781 142.681 108.56 142.147 108.56 141.59V55.12C108.56 54.5631 108.781 54.0289 109.175 53.6351C109.569 53.2413 110.103 53.02 110.66 53.02C111.217 53.02 111.751 53.2413 112.145 53.6351C112.539 54.0289 112.76 54.5631 112.76 55.12C112.76 68.96 125.76 72.34 126.35 72.48C126.89 72.6126 127.355 72.9542 127.643 73.4296C127.93 73.905 128.018 74.4753 127.885 75.015C127.752 75.5547 127.411 76.0197 126.935 76.3075C126.46 76.5954 125.89 76.6826 125.35 76.55C120.385 75.1089 115.985 72.1722 112.75 68.14V141.59C112.75 142.145 112.53 142.678 112.139 143.071C111.747 143.465 111.215 143.687 110.66 143.69Z" fill="white" />
  <path d="M126 130.07C124.2 130.07 117.84 129.75 113.27 125.41C110.14 122.41 108.55 118.26 108.55 113.03C108.55 112.473 108.771 111.939 109.165 111.545C109.559 111.151 110.093 110.93 110.65 110.93C111.207 110.93 111.741 111.151 112.135 111.545C112.529 111.939 112.75 112.473 112.75 113.03C112.75 117.03 113.89 120.19 116.14 122.35C120.07 126.11 126.21 125.89 126.27 125.87C126.823 125.856 127.359 126.056 127.768 126.429C128.176 126.802 128.424 127.318 128.46 127.87C128.473 128.145 128.432 128.421 128.339 128.68C128.245 128.939 128.102 129.178 127.916 129.381C127.73 129.585 127.506 129.75 127.256 129.866C127.006 129.983 126.735 130.048 126.46 130.06L126 130.07Z" fill="white" />
  <path d="M126 87.1C124.2 87.1 117.84 86.77 113.27 82.43C110.14 79.43 108.55 75.29 108.55 70.06C108.55 69.7842 108.604 69.5112 108.71 69.2564C108.815 69.0016 108.97 68.7701 109.165 68.5751C109.36 68.3801 109.592 68.2254 109.846 68.1199C110.101 68.0143 110.374 67.96 110.65 67.96C110.926 67.96 111.199 68.0143 111.454 68.1199C111.708 68.2254 111.94 68.3801 112.135 68.5751C112.33 68.7701 112.485 69.0016 112.59 69.2564C112.696 69.5112 112.75 69.7842 112.75 70.06C112.75 74.06 113.89 77.22 116.14 79.38C120.07 83.13 126.21 82.92 126.27 82.9C126.823 82.8859 127.359 83.0863 127.768 83.4591C128.176 83.832 128.424 84.3483 128.46 84.9C128.473 85.1754 128.432 85.4506 128.339 85.71C128.245 85.9694 128.102 86.2077 127.916 86.4112C127.73 86.6148 127.506 86.7796 127.256 86.8961C127.006 87.0126 126.735 87.0785 126.46 87.09L126 87.1Z" fill="white" />
  <path d="M126 98.1C124.2 98.1 117.84 97.78 113.27 93.44C110.14 90.44 108.55 86.29 108.55 81.07C108.55 80.7942 108.604 80.5211 108.71 80.2663C108.815 80.0115 108.97 79.7801 109.165 79.5851C109.36 79.39 109.592 79.2354 109.846 79.1298C110.101 79.0243 110.374 78.97 110.65 78.97C110.926 78.97 111.199 79.0243 111.454 79.1298C111.708 79.2354 111.94 79.39 112.135 79.5851C112.33 79.7801 112.485 80.0115 112.59 80.2663C112.696 80.5211 112.75 80.7942 112.75 81.07C112.75 85.07 113.89 88.22 116.14 90.38C120.07 94.14 126.21 93.92 126.27 93.91C126.823 93.8934 127.362 94.0929 127.77 94.4662C128.179 94.8395 128.427 95.3574 128.46 95.91C128.475 96.1856 128.435 96.4615 128.342 96.7214C128.249 96.9814 128.105 97.2202 127.919 97.424C127.733 97.6279 127.508 97.7926 127.257 97.9087C127.007 98.0247 126.736 98.0898 126.46 98.1H126Z" fill="white" />
  <path d="M126 109.11C124.2 109.11 117.84 108.79 113.27 104.44C110.14 101.44 108.55 97.3 108.55 92.07C108.55 91.7942 108.604 91.5211 108.71 91.2663C108.815 91.0115 108.97 90.7801 109.165 90.5851C109.36 90.39 109.592 90.2354 109.846 90.1298C110.101 90.0243 110.374 89.97 110.65 89.97C110.926 89.97 111.199 90.0243 111.454 90.1298C111.708 90.2354 111.94 90.39 112.135 90.5851C112.33 90.7801 112.485 91.0115 112.59 91.2663C112.696 91.5211 112.75 91.7942 112.75 92.07C112.75 96.07 113.89 99.23 116.14 101.39C120.07 105.14 126.21 104.92 126.27 104.91C126.823 104.893 127.362 105.093 127.77 105.466C128.179 105.84 128.427 106.357 128.46 106.91C128.473 107.185 128.432 107.461 128.339 107.72C128.245 107.979 128.102 108.218 127.916 108.421C127.73 108.625 127.506 108.79 127.256 108.906C127.006 109.023 126.735 109.088 126.46 109.1L126 109.11Z" fill="white" />
  <path d="M126 120.11C124.2 120.11 117.84 119.79 113.27 115.45C110.14 112.45 108.55 108.31 108.55 103.08C108.55 102.804 108.604 102.531 108.71 102.276C108.815 102.022 108.97 101.79 109.165 101.595C109.36 101.4 109.592 101.245 109.846 101.14C110.101 101.034 110.374 100.98 110.65 100.98C110.926 100.98 111.199 101.034 111.454 101.14C111.708 101.245 111.94 101.4 112.135 101.595C112.33 101.79 112.485 102.022 112.59 102.276C112.696 102.531 112.75 102.804 112.75 103.08C112.75 107.08 113.89 110.23 116.14 112.39C120.07 116.15 126.21 115.92 126.27 115.92C126.823 115.906 127.359 116.106 127.768 116.479C128.176 116.852 128.424 117.368 128.46 117.92C128.475 118.196 128.435 118.471 128.342 118.731C128.249 118.991 128.105 119.23 127.919 119.434C127.733 119.638 127.508 119.803 127.257 119.919C127.007 120.035 126.736 120.1 126.46 120.11H126Z" fill="white" />
  <path d="M106.12 143.69C105.563 143.69 105.029 143.469 104.635 143.075C104.241 142.681 104.02 142.147 104.02 141.59V68.14C100.782 72.1734 96.3782 75.1101 91.41 76.55C90.8703 76.6826 90.3 76.5953 89.8246 76.3075C89.3492 76.0196 89.0076 75.5547 88.875 75.015C88.7424 74.4753 88.8296 73.905 89.1175 73.4296C89.4053 72.9542 89.8703 72.6126 90.41 72.48C91 72.33 104.01 68.94 104.01 55.12C104.047 54.5893 104.283 54.0924 104.672 53.7295C105.061 53.3666 105.573 53.1648 106.105 53.1648C106.637 53.1648 107.149 53.3666 107.538 53.7295C107.927 54.0924 108.163 54.5893 108.2 55.12V141.59C108.201 141.864 108.149 142.136 108.045 142.391C107.941 142.645 107.788 142.876 107.595 143.071C107.402 143.266 107.172 143.421 106.919 143.527C106.666 143.633 106.394 143.689 106.12 143.69Z" fill="#3A494C" />
  <path d="M90.77 130.07H90.29C89.7537 130.018 89.2582 129.761 88.9059 129.353C88.5535 128.946 88.3714 128.418 88.397 127.88C88.4227 127.342 88.6543 126.834 89.0439 126.462C89.4334 126.089 89.9512 125.881 90.49 125.88C90.55 125.88 96.7 126.11 100.62 122.36C102.88 120.2 104.02 117.07 104.02 113.04C104.057 112.509 104.293 112.012 104.682 111.65C105.071 111.287 105.583 111.085 106.115 111.085C106.647 111.085 107.159 111.287 107.548 111.65C107.937 112.012 108.173 112.509 108.21 113.04C108.21 118.27 106.63 122.44 103.49 125.42C98.93 129.75 92.56 130.07 90.77 130.07Z" fill="#3A494C" />
  <path d="M90.77 87.1H90.29C90.0137 87.0885 89.7424 87.0223 89.4919 86.9052C89.2413 86.788 89.0166 86.6223 88.8305 86.4177C88.6445 86.2131 88.5009 85.9736 88.4081 85.713C88.3153 85.4525 88.2752 85.1762 88.29 84.9C88.321 84.3465 88.5677 83.8272 88.977 83.4533C89.3864 83.0795 89.9259 82.8808 90.48 82.9C90.54 82.9 96.69 83.13 100.61 79.38C102.87 77.22 104.01 74.08 104.01 70.06C103.99 69.7727 104.03 69.4844 104.126 69.213C104.222 68.9416 104.373 68.6929 104.57 68.4824C104.766 68.2718 105.004 68.104 105.268 67.9892C105.532 67.8744 105.817 67.8152 106.105 67.8152C106.393 67.8152 106.678 67.8744 106.942 67.9892C107.206 68.104 107.444 68.2718 107.64 68.4824C107.837 68.6929 107.988 68.9416 108.084 69.213C108.18 69.4844 108.22 69.7727 108.2 70.06C108.2 75.29 106.62 79.45 103.48 82.43C98.93 86.77 92.56 87.1 90.77 87.1Z" fill="#3A494C" />
  <path d="M90.77 98.1H90.29C90.0141 98.0898 89.7431 98.0248 89.4926 97.9087C89.2421 97.7927 89.0172 97.6279 88.8311 97.4241C88.6449 97.2202 88.5012 96.9814 88.4083 96.7215C88.3154 96.4615 88.2752 96.1857 88.29 95.91C88.3185 95.3556 88.5644 94.8347 88.9743 94.4603C89.3843 94.086 89.9252 93.8882 90.48 93.91C90.54 93.91 96.69 94.14 100.61 90.38C102.87 88.22 104.01 85.09 104.01 81.07C103.99 80.7827 104.03 80.4944 104.126 80.223C104.222 79.9516 104.373 79.7029 104.57 79.4924C104.766 79.2819 105.004 79.114 105.268 78.9992C105.532 78.8844 105.817 78.8252 106.105 78.8252C106.393 78.8252 106.678 78.8844 106.942 78.9992C107.206 79.114 107.444 79.2819 107.64 79.4924C107.837 79.7029 107.988 79.9516 108.084 80.223C108.18 80.4944 108.22 80.7827 108.2 81.07C108.2 86.29 106.62 90.46 103.48 93.44C98.93 97.78 92.56 98.1 90.77 98.1Z" fill="#3A494C" />
  <path d="M90.77 109.11H90.29C89.7537 109.058 89.2582 108.801 88.9059 108.393C88.5535 107.986 88.3714 107.458 88.397 106.92C88.4227 106.382 88.6543 105.874 89.0439 105.502C89.4334 105.129 89.9512 104.921 90.49 104.92C90.55 104.92 96.7 105.15 100.62 101.4C102.88 99.24 104.02 96.1 104.02 92.08C104 91.7927 104.04 91.5044 104.136 91.233C104.232 90.9616 104.383 90.7129 104.58 90.5024C104.776 90.2919 105.014 90.124 105.278 90.0092C105.542 89.8944 105.827 89.8352 106.115 89.8352C106.403 89.8352 106.688 89.8944 106.952 90.0092C107.216 90.124 107.454 90.2919 107.65 90.5024C107.847 90.7129 107.998 90.9616 108.094 91.233C108.19 91.5044 108.23 91.7927 108.21 92.08C108.21 97.31 106.63 101.47 103.49 104.45C98.93 108.79 92.56 109.11 90.77 109.11Z" fill="#3A494C" />
  <path d="M90.77 120.11H90.29C89.7357 120.083 89.2146 119.838 88.8414 119.427C88.4682 119.016 88.2735 118.474 88.3 117.92C88.3265 117.366 88.5722 116.845 88.9829 116.471C89.3936 116.098 89.9357 115.903 90.49 115.93C90.55 115.93 96.7 116.16 100.62 112.4C102.88 110.24 104.02 107.11 104.02 103.09C104 102.803 104.04 102.514 104.136 102.243C104.232 101.972 104.383 101.723 104.58 101.512C104.776 101.302 105.014 101.134 105.278 101.019C105.542 100.904 105.827 100.845 106.115 100.845C106.403 100.845 106.688 100.904 106.952 101.019C107.216 101.134 107.454 101.302 107.65 101.512C107.847 101.723 107.998 101.972 108.094 102.243C108.19 102.514 108.23 102.803 108.21 103.09C108.21 108.32 106.63 112.48 103.49 115.46C98.93 119.79 92.56 120.11 90.77 120.11Z" fill="#3A494C" />
  <path d="M106.47 143.69C105.913 143.69 105.379 143.469 104.985 143.075C104.591 142.681 104.37 142.147 104.37 141.59V55.12C104.407 54.5893 104.643 54.0924 105.032 53.7295C105.421 53.3666 105.933 53.1648 106.465 53.1648C106.997 53.1648 107.509 53.3666 107.898 53.7295C108.287 54.0924 108.523 54.5893 108.56 55.12C108.56 68.96 121.61 72.34 122.16 72.48C122.7 72.6126 123.165 72.9542 123.453 73.4296C123.74 73.905 123.828 74.4753 123.695 75.015C123.562 75.5547 123.221 76.0196 122.745 76.3075C122.27 76.5953 121.7 76.6826 121.16 76.55C116.192 75.1101 111.788 72.1734 108.55 68.14V141.59C108.55 142.143 108.332 142.675 107.942 143.068C107.553 143.461 107.023 143.685 106.47 143.69Z" fill="#3A494C" />
  <path d="M121.81 130.07C120.02 130.07 113.66 129.75 109.09 125.41C105.96 122.41 104.37 118.26 104.37 113.03C104.407 112.499 104.643 112.002 105.032 111.64C105.421 111.277 105.933 111.075 106.465 111.075C106.997 111.075 107.509 111.277 107.898 111.64C108.287 112.002 108.523 112.499 108.56 113.03C108.56 117.03 109.71 120.19 111.96 122.35C115.89 126.11 122.03 125.89 122.09 125.87C122.642 125.858 123.177 126.06 123.585 126.432C123.993 126.804 124.242 127.319 124.28 127.87C124.304 128.425 124.108 128.968 123.733 129.378C123.358 129.789 122.835 130.034 122.28 130.06L121.81 130.07Z" fill="#3A494C" />
  <path d="M121.81 87.1C120.02 87.1 113.66 86.77 109.09 82.43C105.96 79.43 104.37 75.29 104.37 70.06C104.35 69.7727 104.39 69.4844 104.486 69.213C104.582 68.9416 104.733 68.6929 104.93 68.4824C105.126 68.2718 105.364 68.104 105.628 67.9892C105.892 67.8744 106.177 67.8152 106.465 67.8152C106.753 67.8152 107.038 67.8744 107.302 67.9892C107.566 68.104 107.804 68.2718 108 68.4824C108.197 68.6929 108.348 68.9416 108.444 69.213C108.54 69.4844 108.58 69.7727 108.56 70.06C108.56 74.06 109.71 77.22 111.96 79.38C115.89 83.13 122.03 82.92 122.09 82.9C122.642 82.8884 123.177 83.0896 123.585 83.462C123.993 83.8343 124.242 84.3492 124.28 84.9C124.304 85.4554 124.108 85.9979 123.733 86.4084C123.358 86.819 122.835 87.0641 122.28 87.09L121.81 87.1Z" fill="#3A494C" />
  <path d="M121.81 98.1C120.02 98.1 113.66 97.78 109.09 93.44C105.96 90.44 104.37 86.29 104.37 81.07C104.35 80.7827 104.39 80.4944 104.486 80.223C104.582 79.9516 104.733 79.7029 104.93 79.4924C105.126 79.2819 105.364 79.114 105.628 78.9992C105.892 78.8844 106.177 78.8252 106.465 78.8252C106.753 78.8252 107.038 78.8844 107.302 78.9992C107.566 79.114 107.804 79.2819 108 79.4924C108.197 79.7029 108.348 79.9516 108.444 80.223C108.54 80.4944 108.58 80.7827 108.56 81.07C108.56 85.07 109.71 88.22 111.96 90.38C115.89 94.14 122.03 93.92 122.09 93.91C122.643 93.8959 123.179 94.0963 123.588 94.4691C123.996 94.8419 124.244 95.3583 124.28 95.91C124.293 96.1854 124.252 96.4606 124.159 96.72C124.065 96.9794 123.922 97.2177 123.736 97.4212C123.55 97.6248 123.326 97.7896 123.076 97.9061C122.826 98.0226 122.555 98.0885 122.28 98.1H121.81Z" fill="#3A494C" />
  <path d="M121.81 109.11C120.02 109.11 113.66 108.79 109.09 104.44C105.96 101.44 104.37 97.3 104.37 92.07C104.35 91.7827 104.39 91.4944 104.486 91.223C104.582 90.9516 104.733 90.7029 104.93 90.4924C105.126 90.2819 105.364 90.114 105.628 89.9992C105.892 89.8844 106.177 89.8252 106.465 89.8252C106.753 89.8252 107.038 89.8844 107.302 89.9992C107.566 90.114 107.804 90.2819 108 90.4924C108.197 90.7029 108.348 90.9516 108.444 91.223C108.54 91.4944 108.58 91.7827 108.56 92.07C108.56 96.07 109.71 99.23 111.96 101.39C115.89 105.14 122.03 104.92 122.09 104.91C122.643 104.896 123.179 105.096 123.588 105.469C123.996 105.842 124.244 106.358 124.28 106.91C124.304 107.465 124.108 108.008 123.733 108.418C123.358 108.829 122.835 109.074 122.28 109.1L121.81 109.11Z" fill="#3A494C" />
  <path d="M121.81 120.11C120.02 120.11 113.66 119.79 109.09 115.45C105.96 112.45 104.37 108.31 104.37 103.08C104.35 102.793 104.39 102.504 104.486 102.233C104.582 101.962 104.733 101.713 104.93 101.502C105.126 101.292 105.364 101.124 105.628 101.009C105.892 100.894 106.177 100.835 106.465 100.835C106.753 100.835 107.038 100.894 107.302 101.009C107.566 101.124 107.804 101.292 108 101.502C108.197 101.713 108.348 101.962 108.444 102.233C108.54 102.504 108.58 102.793 108.56 103.08C108.56 107.08 109.71 110.23 111.96 112.39C115.89 116.15 122.03 115.92 122.09 115.92C122.641 115.911 123.175 116.113 123.582 116.485C123.99 116.857 124.239 117.37 124.28 117.92C124.293 118.195 124.252 118.471 124.159 118.73C124.065 118.989 123.922 119.228 123.736 119.431C123.55 119.635 123.326 119.8 123.076 119.916C122.826 120.033 122.555 120.098 122.28 120.11H121.81Z" fill="#3A494C" />
  <path d="M153.67 144.72C153.105 144.72 152.563 144.496 152.164 144.096C151.764 143.697 151.54 143.155 151.54 142.59V104.41C149.154 107.376 145.809 109.416 142.08 110.18C141.802 110.218 141.52 110.201 141.249 110.13C140.977 110.059 140.723 109.935 140.5 109.766C140.276 109.596 140.089 109.384 139.947 109.142C139.806 108.9 139.713 108.633 139.675 108.355C139.637 108.077 139.654 107.795 139.725 107.524C139.796 107.252 139.92 106.998 140.089 106.775C140.259 106.551 140.471 106.363 140.713 106.222C140.955 106.081 141.222 105.988 141.5 105.95C141.95 105.88 151.5 104.26 151.5 90.45C151.48 90.1574 151.52 89.8637 151.619 89.5873C151.717 89.3109 151.871 89.0576 152.071 88.8432C152.271 88.6288 152.513 88.4579 152.782 88.341C153.051 88.2241 153.342 88.1638 153.635 88.1638C153.928 88.1638 154.219 88.2241 154.488 88.341C154.757 88.4579 154.999 88.6288 155.199 88.8432C155.399 89.0576 155.553 89.3109 155.652 89.5873C155.75 89.8637 155.79 90.1574 155.77 90.45V142.59C155.768 143.149 155.546 143.685 155.154 144.083C154.762 144.481 154.229 144.71 153.67 144.72Z" fill="white" />
  <path d="M138 123H137.51C137.22 123 136.934 122.94 136.668 122.826C136.402 122.711 136.162 122.544 135.962 122.334C135.763 122.124 135.608 121.876 135.507 121.605C135.406 121.333 135.362 121.044 135.376 120.755C135.39 120.466 135.463 120.182 135.59 119.922C135.717 119.662 135.895 119.43 136.114 119.241C136.334 119.051 136.589 118.908 136.865 118.821C137.141 118.733 137.432 118.702 137.72 118.73C137.78 118.73 144.03 118.97 148.04 115.14C150.33 112.94 151.5 109.75 151.5 105.65C151.537 105.109 151.778 104.602 152.174 104.232C152.571 103.862 153.093 103.656 153.635 103.656C154.177 103.656 154.699 103.862 155.096 104.232C155.492 104.602 155.733 105.109 155.77 105.65C155.77 110.98 154.15 115.22 150.96 118.25C146.35 122.69 139.87 123 138 123Z" fill="white" />
  <path d="M138 134.23H137.51C136.949 134.194 136.425 133.939 136.051 133.52C135.677 133.101 135.483 132.551 135.51 131.99C135.551 131.431 135.808 130.91 136.226 130.537C136.644 130.164 137.19 129.968 137.75 129.99C137.81 129.99 144.06 130.23 148.07 126.4C150.36 124.2 151.53 121.01 151.53 116.91C151.567 116.369 151.808 115.862 152.204 115.492C152.601 115.122 153.123 114.916 153.665 114.916C154.207 114.916 154.729 115.122 155.126 115.492C155.522 115.862 155.763 116.369 155.8 116.91C155.8 122.24 154.18 126.48 150.99 129.52C146.35 133.9 139.87 134.23 138 134.23Z" fill="white" />
  <path d="M154 144.72C153.434 144.72 152.891 144.496 152.49 144.097C152.089 143.698 151.863 143.156 151.86 142.59V90.45C151.84 90.1574 151.88 89.8637 151.978 89.5873C152.077 89.3109 152.231 89.0576 152.431 88.8432C152.631 88.6288 152.873 88.4579 153.142 88.341C153.411 88.2241 153.702 88.1638 153.995 88.1638C154.288 88.1638 154.579 88.2241 154.848 88.341C155.117 88.4579 155.359 88.6288 155.559 88.8432C155.759 89.0576 155.913 89.3109 156.011 89.5873C156.11 89.8637 156.15 90.1574 156.13 90.45C156.13 104.45 166.35 106.95 166.78 107.05C167.054 107.11 167.313 107.223 167.543 107.383C167.773 107.543 167.97 107.747 168.121 107.982C168.272 108.218 168.376 108.482 168.425 108.757C168.475 109.033 168.47 109.316 168.41 109.59C168.35 109.864 168.237 110.123 168.077 110.353C167.917 110.583 167.713 110.78 167.478 110.931C167.242 111.082 166.978 111.186 166.702 111.235C166.427 111.285 166.144 111.28 165.87 111.22C161.991 110.107 158.574 107.771 156.13 104.56V142.56C156.134 142.842 156.082 143.122 155.977 143.384C155.871 143.646 155.715 143.885 155.517 144.086C155.319 144.287 155.082 144.446 154.822 144.555C154.562 144.664 154.282 144.72 154 144.72Z" fill="white" />
  <path d="M169.66 123C167.83 123 161.35 122.67 156.66 118.24C153.47 115.24 151.85 110.97 151.85 105.64C151.887 105.099 152.128 104.592 152.524 104.222C152.921 103.852 153.443 103.646 153.985 103.646C154.527 103.646 155.049 103.852 155.446 104.222C155.842 104.592 156.083 105.099 156.12 105.64C156.12 109.74 157.29 112.93 159.58 115.13C163.58 118.96 169.84 118.73 169.9 118.72C170.457 118.703 171 118.901 171.415 119.273C171.831 119.646 172.087 120.164 172.13 120.72C172.157 121.28 171.963 121.828 171.588 122.246C171.214 122.663 170.69 122.916 170.13 122.95L169.66 123Z" fill="white" />
  <path d="M169.66 134.23C167.83 134.23 161.35 133.9 156.66 129.48C153.47 126.48 151.85 122.2 151.85 116.87C151.887 116.329 152.128 115.822 152.524 115.452C152.921 115.082 153.443 114.876 153.985 114.876C154.527 114.876 155.049 115.082 155.446 115.452C155.842 115.822 156.083 116.329 156.12 116.87C156.12 120.97 157.29 124.16 159.58 126.36C163.58 130.19 169.84 129.96 169.9 129.95C170.457 129.933 171 130.131 171.415 130.504C171.831 130.876 172.087 131.394 172.13 131.95C172.157 132.51 171.963 133.058 171.588 133.476C171.214 133.893 170.69 134.146 170.13 134.18L169.66 134.23Z" fill="white" />
  <path d="M149.4 144.72C148.835 144.72 148.293 144.496 147.894 144.096C147.494 143.697 147.27 143.155 147.27 142.59V104.41C144.884 107.376 141.539 109.416 137.81 110.18C137.249 110.257 136.681 110.108 136.23 109.766C135.779 109.423 135.482 108.916 135.405 108.355C135.328 107.794 135.477 107.226 135.819 106.775C136.162 106.324 136.669 106.027 137.23 105.95C137.68 105.88 147.23 104.26 147.23 90.45C147.21 90.1574 147.25 89.8637 147.349 89.5873C147.447 89.3109 147.601 89.0576 147.801 88.8432C148.001 88.6288 148.243 88.4579 148.512 88.341C148.782 88.2241 149.072 88.1638 149.365 88.1638C149.658 88.1638 149.949 88.2241 150.218 88.341C150.487 88.4579 150.729 88.6288 150.929 88.8432C151.129 89.0576 151.283 89.3109 151.382 89.5873C151.48 89.8637 151.52 90.1574 151.5 90.45V142.59C151.498 143.149 151.276 143.685 150.884 144.083C150.492 144.481 149.959 144.71 149.4 144.72Z" fill="#3A494C" />
  <path d="M133.77 123H133.28C132.733 122.947 132.228 122.686 131.869 122.271C131.509 121.856 131.323 121.318 131.349 120.77C131.375 120.221 131.61 119.704 132.007 119.324C132.403 118.944 132.931 118.732 133.48 118.73C133.55 118.73 139.8 118.97 143.8 115.14C146.1 112.94 147.27 109.75 147.27 105.65C147.307 105.109 147.548 104.602 147.944 104.232C148.341 103.862 148.863 103.656 149.405 103.656C149.947 103.656 150.469 103.862 150.866 104.232C151.262 104.602 151.503 105.109 151.54 105.65C151.54 110.98 149.92 115.22 146.73 118.25C142.08 122.69 135.59 123 133.77 123Z" fill="#3A494C" />
  <path d="M133.77 134.23H133.28C132.719 134.194 132.195 133.939 131.821 133.52C131.447 133.101 131.253 132.551 131.28 131.99C131.321 131.433 131.576 130.914 131.992 130.541C132.408 130.168 132.952 129.97 133.51 129.99C133.58 129.99 139.83 130.23 143.83 126.4C146.13 124.2 147.3 121.01 147.3 116.91C147.337 116.369 147.578 115.862 147.974 115.492C148.371 115.122 148.893 114.916 149.435 114.916C149.977 114.916 150.499 115.122 150.896 115.492C151.292 115.862 151.533 116.369 151.57 116.91C151.57 122.24 149.95 126.48 146.76 129.52C142.08 133.9 135.59 134.23 133.77 134.23Z" fill="#3A494C" />
  <path d="M149.76 144.72C149.194 144.72 148.651 144.496 148.25 144.097C147.849 143.698 147.623 143.156 147.62 142.59V90.45C147.6 90.1574 147.64 89.8637 147.739 89.5873C147.837 89.3109 147.991 89.0576 148.191 88.8432C148.391 88.6288 148.633 88.4579 148.902 88.341C149.171 88.2241 149.462 88.1638 149.755 88.1638C150.048 88.1638 150.339 88.2241 150.608 88.341C150.877 88.4579 151.119 88.6288 151.319 88.8432C151.519 89.0576 151.673 89.3109 151.771 89.5873C151.87 89.8637 151.91 90.1574 151.89 90.45C151.89 104.45 162.11 106.95 162.54 107.05C163.093 107.171 163.575 107.506 163.881 107.982C164.187 108.459 164.291 109.037 164.17 109.59C164.049 110.143 163.714 110.625 163.238 110.931C162.761 111.237 162.183 111.341 161.63 111.22C157.751 110.107 154.334 107.771 151.89 104.56V142.56C151.894 142.842 151.842 143.122 151.737 143.384C151.631 143.646 151.475 143.885 151.277 144.086C151.079 144.287 150.843 144.446 150.582 144.555C150.322 144.664 150.042 144.72 149.76 144.72Z" fill="#3A494C" />
  <path d="M165.39 123C163.56 123 157.08 122.67 152.39 118.24C149.2 115.24 147.58 110.97 147.58 105.64C147.617 105.099 147.858 104.592 148.254 104.222C148.651 103.852 149.173 103.646 149.715 103.646C150.257 103.646 150.779 103.852 151.176 104.222C151.572 104.592 151.813 105.099 151.85 105.64C151.85 109.74 153.02 112.93 155.31 115.13C159.31 118.96 165.57 118.73 165.63 118.72C166.187 118.705 166.728 118.904 167.143 119.276C167.558 119.648 167.814 120.165 167.86 120.72C167.887 121.28 167.693 121.828 167.318 122.246C166.944 122.663 166.42 122.916 165.86 122.95L165.39 123Z" fill="#3A494C" />
  <path d="M165.39 134.23C163.56 134.23 157.08 133.9 152.39 129.48C149.2 126.48 147.58 122.2 147.58 116.87C147.617 116.329 147.858 115.822 148.254 115.452C148.651 115.082 149.173 114.876 149.715 114.876C150.257 114.876 150.779 115.082 151.176 115.452C151.572 115.822 151.813 116.329 151.85 116.87C151.85 120.97 153.02 124.16 155.31 126.36C159.31 130.19 165.57 129.96 165.63 129.95C166.187 129.935 166.728 130.134 167.143 130.506C167.558 130.878 167.814 131.395 167.86 131.95C167.887 132.51 167.693 133.058 167.318 133.476C166.944 133.893 166.42 134.146 165.86 134.18L165.39 134.23Z" fill="#3A494C" />
  <path d="M152.1 81.62C151.527 81.6192 150.977 81.3929 150.57 80.99C150.166 80.5851 149.94 80.0367 149.94 79.465C149.94 78.8933 150.166 78.3449 150.57 77.94L162.22 66.29L158.94 64C158.693 63.8253 158.485 63.6008 158.33 63.341C158.175 63.0812 158.075 62.7918 158.039 62.4914C158.002 62.1909 158.028 61.8862 158.116 61.5966C158.205 61.307 158.352 61.0391 158.55 60.81L173.1 44.12C173.286 43.9072 173.512 43.7332 173.765 43.6078C174.018 43.4823 174.293 43.408 174.575 43.3889C174.857 43.3699 175.14 43.4065 175.407 43.4968C175.675 43.5871 175.922 43.7292 176.135 43.915C176.348 44.1008 176.522 44.3267 176.647 44.5798C176.773 44.8329 176.847 45.1082 176.866 45.39C176.885 45.6719 176.848 45.9547 176.758 46.2223C176.668 46.49 176.526 46.7372 176.34 46.95L163.34 61.84L166.76 64.24C167.018 64.4185 167.233 64.6518 167.391 64.9232C167.548 65.1946 167.643 65.4974 167.67 65.81C167.697 66.123 167.656 66.4381 167.549 66.7334C167.442 67.0288 167.271 67.2972 167.05 67.52L153.62 81C153.42 81.1983 153.183 81.3551 152.922 81.4615C152.661 81.5679 152.382 81.6218 152.1 81.62Z" fill="#3A494C" />
  <path class="loading__frame" d="M251.77 146.74H75.05C74.6045 146.739 74.1672 146.62 73.7835 146.394C73.3997 146.167 73.0833 145.843 72.8672 145.453C72.651 145.064 72.5428 144.623 72.5539 144.178C72.5649 143.733 72.6948 143.298 72.93 142.92L81.79 128.75C81.9455 128.437 82.1649 128.16 82.434 127.937C82.7031 127.714 83.0161 127.55 83.3525 127.455C83.689 127.361 84.0416 127.338 84.3875 127.388C84.7335 127.438 85.065 127.56 85.3608 127.746C85.6566 127.932 85.9101 128.179 86.1049 128.469C86.2997 128.759 86.4314 129.087 86.4917 129.431C86.5519 129.776 86.5393 130.129 86.4546 130.468C86.3699 130.807 86.215 131.124 86 131.4L79.53 141.74H247.23L163.41 7.59L128.41 63.59C128.059 64.1523 127.498 64.5519 126.852 64.701C126.206 64.8501 125.527 64.7364 124.965 64.385C124.403 64.0336 124.003 63.4732 123.854 62.8271C123.705 62.1811 123.819 61.5023 124.17 60.94L161.27 1.58C161.493 1.21812 161.805 0.91933 162.176 0.712082C162.547 0.504834 162.965 0.396027 163.39 0.396027C163.815 0.396027 164.233 0.504834 164.604 0.712082C164.975 0.91933 165.287 1.21812 165.51 1.58L253.87 142.95C254.105 143.328 254.235 143.763 254.246 144.208C254.257 144.653 254.149 145.094 253.933 145.483C253.717 145.873 253.4 146.197 253.017 146.424C252.633 146.65 252.195 146.769 251.75 146.77L251.77 146.74Z" fill="#3A494C" />
  <path d="M66.595 185.35L66.5527 167.58L57.8369 182.219H54.7482L46.0747 167.961V185.35H39.6436V155.733H45.3131L56.3983 174.138L67.3143 155.733H72.9415L73.0262 185.35H66.595ZM94.396 185.858C91.3215 185.858 88.5431 185.195 86.0609 183.869C83.607 182.543 81.6748 180.724 80.2645 178.411C78.8823 176.07 78.1913 173.447 78.1913 170.541C78.1913 167.636 78.8823 165.027 80.2645 162.714C81.6748 160.373 83.607 158.54 86.0609 157.214C88.5431 155.888 91.3215 155.225 94.396 155.225C97.4705 155.225 100.235 155.888 102.689 157.214C105.143 158.54 107.075 160.373 108.485 162.714C109.895 165.027 110.601 167.636 110.601 170.541C110.601 173.447 109.895 176.07 108.485 178.411C107.075 180.724 105.143 182.543 102.689 183.869C100.235 185.195 97.4705 185.858 94.396 185.858ZM94.396 180.019C96.1448 180.019 97.7244 179.624 99.1347 178.834C100.545 178.016 101.645 176.888 102.435 175.449C103.253 174.011 103.662 172.375 103.662 170.541C103.662 168.708 103.253 167.072 102.435 165.634C101.645 164.195 100.545 163.081 99.1347 162.291C97.7244 161.473 96.1448 161.064 94.396 161.064C92.6472 161.064 91.0676 161.473 89.6573 162.291C88.247 163.081 87.1328 164.195 86.3148 165.634C85.525 167.072 85.1301 168.708 85.1301 170.541C85.1301 172.375 85.525 174.011 86.3148 175.449C87.1328 176.888 88.247 178.016 89.6573 178.834C91.0676 179.624 92.6472 180.019 94.396 180.019ZM128.91 185.858C124.679 185.858 121.379 184.687 119.01 182.346C116.669 180.005 115.498 176.662 115.498 172.318V155.733H122.352V172.065C122.352 177.367 124.552 180.019 128.953 180.019C131.096 180.019 132.732 179.384 133.861 178.115C134.989 176.817 135.553 174.801 135.553 172.065V155.733H142.323V172.318C142.323 176.662 141.138 180.005 138.769 182.346C136.427 184.687 133.141 185.858 128.91 185.858ZM176.259 155.733V185.35H170.632L155.865 167.368V185.35H149.096V155.733H154.765L169.489 173.715V155.733H176.259ZM189.401 161.318H179.924V155.733H205.733V161.318H196.255V185.35H189.401V161.318ZM227.438 179.003H213.687L211.064 185.35H204.041L217.241 155.733H224.011L237.254 185.35H230.061L227.438 179.003ZM225.28 173.799L220.584 162.46L215.887 173.799H225.28ZM240.327 155.733H247.181V185.35H240.327V155.733ZM281.373 155.733V185.35H275.746L260.979 167.368V185.35H254.21V155.733H259.879L274.603 173.715V155.733H281.373Z" fill="#1B2223" />
  <path d="M99.3377 203.461V218.91H95.7623V212.576H88.7441V218.91H85.1687V203.461H88.7441V209.552H95.7623V203.461H99.3377ZM102.993 203.461H106.568V218.91H102.993V203.461ZM115.862 212.841L113.788 215.004V218.91H110.235V203.461H113.788V210.678L120.63 203.461H124.602L118.202 210.347L124.977 218.91H120.806L115.862 212.841ZM126.572 203.461H130.147V218.91H126.572V203.461ZM147.982 203.461V218.91H145.047L137.344 209.53V218.91H133.813V203.461H136.771L144.451 212.841V203.461H147.982ZM162.076 210.943H165.343V217.211C164.504 217.843 163.533 218.329 162.43 218.667C161.326 219.006 160.215 219.175 159.097 219.175C157.493 219.175 156.051 218.836 154.771 218.16C153.491 217.468 152.483 216.519 151.748 215.313C151.027 214.091 150.666 212.716 150.666 211.186C150.666 209.655 151.027 208.287 151.748 207.081C152.483 205.859 153.499 204.91 154.793 204.233C156.088 203.542 157.545 203.196 159.163 203.196C160.517 203.196 161.745 203.424 162.849 203.88C163.952 204.336 164.879 204.999 165.63 205.867L163.334 207.985C162.231 206.823 160.899 206.242 159.34 206.242C158.354 206.242 157.479 206.448 156.713 206.86C155.948 207.272 155.352 207.853 154.926 208.603C154.499 209.354 154.286 210.214 154.286 211.186C154.286 212.142 154.499 212.995 154.926 213.746C155.352 214.496 155.941 215.085 156.691 215.511C157.456 215.923 158.325 216.129 159.296 216.129C160.326 216.129 161.253 215.909 162.076 215.467V210.943ZM182.308 219.175C180.733 219.175 179.306 218.836 178.026 218.16C176.761 217.468 175.76 216.519 175.025 215.313C174.304 214.091 173.943 212.716 173.943 211.186C173.943 209.655 174.304 208.287 175.025 207.081C175.76 205.859 176.761 204.91 178.026 204.233C179.306 203.542 180.741 203.196 182.33 203.196C183.669 203.196 184.875 203.432 185.949 203.902C187.038 204.373 187.95 205.05 188.686 205.933L186.391 208.052C185.346 206.845 184.051 206.242 182.506 206.242C181.55 206.242 180.697 206.455 179.946 206.882C179.196 207.294 178.607 207.875 178.181 208.625C177.769 209.376 177.563 210.229 177.563 211.186C177.563 212.142 177.769 212.995 178.181 213.746C178.607 214.496 179.196 215.085 179.946 215.511C180.697 215.923 181.55 216.129 182.506 216.129C184.051 216.129 185.346 215.519 186.391 214.297L188.686 216.416C187.95 217.314 187.038 217.998 185.949 218.469C184.861 218.939 183.647 219.175 182.308 219.175ZM191.1 203.461H194.676V215.997H202.422V218.91H191.1V203.461ZM211.09 219.175C208.883 219.175 207.161 218.564 205.925 217.343C204.704 216.122 204.094 214.378 204.094 212.112V203.461H207.669V211.98C207.669 214.746 208.817 216.129 211.112 216.129C212.23 216.129 213.083 215.798 213.672 215.136C214.261 214.459 214.555 213.407 214.555 211.98V203.461H218.086V212.112C218.086 214.378 217.468 216.122 216.232 217.343C215.011 218.564 213.297 219.175 211.09 219.175ZM232.963 210.877C233.846 211.156 234.537 211.627 235.038 212.289C235.538 212.936 235.788 213.738 235.788 214.695C235.788 216.048 235.258 217.093 234.199 217.829C233.154 218.55 231.624 218.91 229.608 218.91H221.619V203.461H229.167C231.05 203.461 232.492 203.822 233.493 204.542C234.508 205.263 235.016 206.242 235.016 207.478C235.016 208.228 234.832 208.898 234.464 209.486C234.111 210.075 233.61 210.538 232.963 210.877ZM225.172 206.154V209.795H228.726C229.608 209.795 230.278 209.641 230.734 209.332C231.19 209.023 231.418 208.567 231.418 207.963C231.418 207.36 231.19 206.911 230.734 206.617C230.278 206.308 229.608 206.154 228.726 206.154H225.172ZM229.344 216.217C230.285 216.217 230.991 216.063 231.462 215.754C231.948 215.445 232.191 214.967 232.191 214.319C232.191 213.039 231.242 212.399 229.344 212.399H225.172V216.217H229.344Z" fill="#3A494C" />
  <path d="M199.05 246.67H133C132.536 246.67 132.091 246.486 131.763 246.157C131.434 245.829 131.25 245.384 131.25 244.92C131.249 244.689 131.293 244.461 131.38 244.247C131.468 244.034 131.596 243.84 131.759 243.676C131.922 243.513 132.115 243.383 132.328 243.294C132.541 243.206 132.769 243.16 133 243.16H199.05C199.515 243.163 199.96 243.349 200.288 243.679C200.616 244.009 200.8 244.455 200.8 244.92C200.797 245.383 200.612 245.827 200.285 246.155C199.957 246.482 199.513 246.667 199.05 246.67Z" fill="#3A494C" />
</svg>