<svg width="512" height="341" viewBox="0 0 512 341" fill="none" xmlns="http://www.w3.org/2000/svg">
<path d="M420.523 74.5494C420.925 71.6305 416.802 69.2298 413.696 68.9775C412.214 68.8615 410.685 69.0866 409.286 68.6024C406.234 67.518 405.019 63.6306 402.091 62.3894C399.879 61.455 397.312 62.2871 395.189 63.3646C393.066 64.4422 390.929 65.7994 388.533 65.9494C386.451 66.0858 384.184 65.3083 382.389 66.3245C381.023 67.0815 380.341 68.6501 379.064 69.5708C377.788 70.4915 376.245 70.662 374.722 70.7439C373.2 70.8257 371.63 70.8462 370.244 71.4804C368.858 72.1147 367.718 73.5742 368.005 75.0677L420.523 74.5494Z" fill="#EBEBEB"/>
<path d="M302.503 237.957C303.056 237.213 279.019 199.349 279.019 199.349L261.816 196.621L244.108 219.74L236.598 216.221L184.033 236.743L147.169 189.821L141.544 195.666L126.771 173.726L117.282 194.725L102.659 230.932L92.7674 223.56L65.2969 251.474H328.062C328.062 251.474 301.943 238.7 302.503 237.957Z" fill="#495959"/>
<path d="M397.817 250.812C397.817 250.908 319.345 250.99 222.563 250.99C125.782 250.99 47.2817 250.908 47.2817 250.812C47.2817 250.717 125.747 250.635 222.55 250.635C319.352 250.635 397.817 250.717 397.817 250.812Z" fill="#E0E0E0"/>
<path d="M385.085 260.885C385.085 260.988 368.019 261.07 346.931 261.07C325.844 261.07 308.777 260.988 308.777 260.885C308.777 260.783 325.844 260.708 346.931 260.708C368.019 260.708 385.085 260.79 385.085 260.885Z" fill="#E0E0E0"/>
<path d="M120.429 104.148C121.023 99.8857 114.968 96.3734 110.462 96.012C108.305 95.8346 106.066 96.1688 104.018 95.4527C99.5875 93.9114 97.8125 88.1894 93.4912 86.3685C90.2554 85.0045 86.5349 86.2184 83.3946 87.7939C80.2543 89.3693 77.1414 91.388 73.6598 91.579C70.6151 91.7699 67.3042 90.6446 64.6418 92.1314C62.6552 93.2362 61.6175 95.5414 59.788 96.8713C57.9585 98.2012 55.692 98.474 53.4392 98.5967C51.1864 98.7195 48.9131 98.74 46.8924 99.6607C44.8717 100.581 43.1924 102.723 43.6156 104.912L120.429 104.148Z" fill="#EBEBEB"/>
<path d="M432.531 174.885C433.043 171.175 427.8 168.12 423.861 167.806C421.984 167.649 420.031 167.942 418.256 167.322C414.399 165.958 412.856 161 409.095 159.417C406.282 158.231 403.04 159.288 400.316 160.659C397.592 162.03 394.895 163.755 391.844 163.946C389.195 164.116 386.321 163.134 384 164.43C382.273 165.392 381.365 167.383 379.774 168.556C378.184 169.729 376.183 169.92 374.252 170.05C372.32 170.179 370.319 170.173 368.558 170.977C366.797 171.782 365.343 173.644 365.705 175.547L432.531 174.885Z" fill="#F5F5F5"/>
<path d="M303.548 58.3928C303.91 55.774 300.21 53.6188 297.404 53.3938C296.073 53.2847 294.673 53.4893 293.444 53.0528C290.714 52.1048 289.635 48.5925 286.98 47.474C284.993 46.6352 282.706 47.3854 280.781 48.347C278.856 49.3086 276.951 50.5362 274.801 50.6726C272.937 50.7954 270.903 50.0997 269.264 51.0136C268.049 51.6956 267.408 53.0596 266.281 53.9257C265.112 54.6473 263.758 55.0145 262.383 54.9828C261.014 54.9595 259.653 55.1908 258.369 55.6648C257.127 56.2309 256.096 57.5472 256.355 58.8839L303.548 58.3928Z" fill="#F5F5F5"/>
<path d="M374.054 266.116C373.91 266.142 373.763 266.154 373.617 266.15L372.381 266.185L367.821 266.239L352.802 266.294L337.784 266.239L333.23 266.185L331.988 266.15C331.844 266.154 331.699 266.142 331.558 266.116C331.699 266.086 331.843 266.075 331.988 266.082H333.23L337.784 266.028L352.802 265.973L367.821 266.028L372.381 266.082H373.617C373.763 266.075 373.91 266.086 374.054 266.116Z" fill="#E0E0E0"/>
<path d="M399.838 276.21C400.278 276.525 400.65 276.925 400.931 277.387C401.213 277.848 401.398 278.362 401.476 278.897C401.627 279.971 401.529 281.066 401.19 282.096C400.441 284.138 399.175 285.952 397.517 287.361C396.063 285.553 396.152 282.866 396.254 281.502C396.452 279.347 398.104 275.576 399.838 276.21Z" fill="#E89A76"/>
<path d="M398.916 291.078C398.901 290.473 399.047 289.875 399.34 289.345C399.633 288.815 400.061 288.373 400.582 288.063C401.105 287.76 401.684 287.564 402.285 287.488C402.885 287.412 403.494 287.457 404.077 287.62C404.358 287.66 404.626 287.763 404.862 287.92C405.098 288.077 405.296 288.284 405.442 288.527C405.537 288.771 405.565 289.037 405.523 289.296C405.481 289.555 405.371 289.798 405.203 290C404.86 290.396 404.421 290.697 403.927 290.873C402.268 291.555 400.514 291.882 398.943 291.078" fill="#E89A76"/>
<path d="M395.592 296.95C395.623 296.809 395.669 296.672 395.728 296.54C395.831 296.254 395.967 295.858 396.138 295.442C396.555 294.215 397.168 293.064 397.954 292.032C398.764 291.005 399.834 290.212 401.053 289.734C401.423 289.595 401.808 289.501 402.2 289.454C402.337 289.454 402.446 289.454 402.521 289.454H402.63C402.105 289.533 401.59 289.668 401.094 289.857C399.906 290.349 398.865 291.138 398.07 292.148C397.298 293.175 396.68 294.307 396.234 295.511C396.049 295.968 395.892 296.336 395.783 296.588C395.726 296.712 395.662 296.833 395.592 296.95Z" fill="#263238"/>
<path d="M398.828 279.177C398.835 279.24 398.835 279.304 398.828 279.368C398.828 279.504 398.807 279.681 398.766 279.9C398.712 280.363 398.623 281.025 398.5 281.85C398.261 283.501 397.899 285.765 397.442 288.268C396.984 290.771 396.52 293.042 396.158 294.638C395.981 295.456 395.831 296.111 395.721 296.561C395.667 296.772 395.619 296.95 395.592 297.079C395.579 297.143 395.559 297.205 395.53 297.263C395.53 297.263 395.53 297.195 395.53 297.072C395.53 296.95 395.592 296.766 395.633 296.547L396.029 294.617C396.356 292.987 396.807 290.737 397.264 288.241C397.722 285.744 398.097 283.467 398.363 281.837C398.5 281.025 398.602 280.37 398.684 279.893C398.718 279.675 398.752 279.497 398.773 279.361C398.784 279.298 398.802 279.236 398.828 279.177Z" fill="#263238"/>
<path d="M395.715 291.794C395.727 290.518 395.436 289.258 394.865 288.117C394.294 286.977 393.46 285.988 392.431 285.233C391.905 284.851 391.182 284.551 390.636 284.885C390.09 285.219 390.055 286.017 390.178 286.651C390.459 287.977 391.128 289.188 392.101 290.132C393.073 291.076 394.305 291.709 395.64 291.951" fill="#E89A76"/>
<path d="M392.362 287.218C392.48 287.284 392.591 287.359 392.697 287.443C392.828 287.532 392.954 287.63 393.072 287.736C393.234 287.869 393.389 288.01 393.537 288.159C393.7 288.329 393.885 288.506 394.062 288.718C394.253 288.935 394.431 289.162 394.595 289.4C394.977 289.967 395.293 290.575 395.537 291.214C395.767 291.845 395.927 292.499 396.015 293.165C396.047 293.457 396.063 293.75 396.062 294.044C396.077 294.299 396.077 294.554 396.062 294.808C396.048 295.017 396.021 295.224 395.981 295.429C395.957 295.587 395.925 295.744 395.885 295.899C395.857 296.03 395.818 296.157 395.769 296.281C395.735 296.281 395.892 295.722 395.953 294.801C395.967 294.549 395.967 294.296 395.953 294.044C395.946 293.757 395.924 293.47 395.885 293.185C395.798 292.53 395.637 291.888 395.407 291.269C395.166 290.653 394.859 290.066 394.492 289.516C394.335 289.279 394.164 289.051 393.98 288.834C393.81 288.622 393.632 288.438 393.475 288.268C392.82 287.572 392.342 287.245 392.362 287.218Z" fill="#263238"/>
<path d="M80.3978 309.567L80.6846 309.533C80.0906 300.667 75.6328 291.159 72.397 282.846C69.0724 274.287 65.9526 265.503 58.3818 260.306C66.5666 276.335 73.9151 292.778 80.3978 309.567Z" fill="#283838"/>
<path d="M85.709 264.5C85.709 264.5 85.709 264.541 85.709 264.616L85.6066 264.943L85.1833 266.212C85.0946 266.485 84.9922 266.792 84.8761 267.119L84.5485 268.217C84.3164 269.001 84.0228 269.895 83.7771 270.897C83.6473 271.395 83.504 271.92 83.3606 272.466C83.2173 273.011 83.1012 273.584 82.9647 274.178C82.678 275.357 82.4459 276.633 82.1864 277.976C81.7222 280.704 81.3195 283.644 81.0805 286.788C80.8416 289.932 80.8279 292.926 80.8894 295.654C80.9508 297.018 80.9849 298.314 81.0942 299.521C81.142 300.128 81.1693 300.714 81.2307 301.273C81.2921 301.833 81.3468 302.378 81.3945 302.89C81.4901 303.92 81.6403 304.84 81.7427 305.659L81.8997 306.791C81.9612 307.139 82.0158 307.473 82.0636 307.739C82.1523 308.298 82.2206 308.741 82.2752 309.055L82.323 309.396C82.3261 309.435 82.3261 309.473 82.323 309.512C82.323 309.512 81.7495 307.016 81.2512 302.903C81.1966 302.392 81.1351 301.853 81.0737 301.287C81.0123 300.721 80.9781 300.141 80.9235 299.534C80.8075 298.32 80.7665 297.025 80.7051 295.654C80.63 292.926 80.6641 289.905 80.8825 286.754C81.101 283.603 81.5652 280.616 82.0089 277.929C82.2684 276.565 82.5073 275.303 82.8008 274.123C82.9442 273.53 83.0671 272.957 83.2104 272.411C83.3538 271.866 83.4972 271.34 83.6337 270.843C83.8931 269.84 84.1935 268.953 84.4324 268.162L84.7806 267.071L85.1014 266.164C85.2926 265.632 85.4496 265.209 85.552 264.916C85.6066 264.78 85.6476 264.671 85.6749 264.589L85.709 264.5Z" fill="#455A64"/>
<path d="M84.3727 259.591L81.328 270.326C81.0217 271.406 81.6498 272.529 82.7307 272.835L83.1839 272.964C84.2649 273.27 85.3895 272.642 85.6958 271.562L88.7405 260.827C89.0468 259.748 88.4188 258.624 87.3378 258.318L86.8846 258.19C85.8036 257.884 84.679 258.511 84.3727 259.591Z" fill="#222828"/>
<path d="M83.1897 272.97C83.1897 272.97 83.3126 273.005 83.5515 273.018C83.8986 273.046 84.247 272.983 84.5619 272.834C84.8091 272.722 85.0303 272.56 85.2113 272.358C85.3923 272.156 85.5292 271.919 85.6132 271.661C85.7907 271.047 85.9818 270.331 86.2071 269.547C86.644 267.971 87.1697 266.103 87.7499 264.029C88.0367 262.993 88.3439 261.902 88.6647 260.776C88.737 260.5 88.7475 260.212 88.6956 259.931C88.6437 259.651 88.5306 259.385 88.3643 259.153C88.196 258.914 87.9739 258.718 87.7158 258.58C87.4425 258.447 87.1535 258.349 86.8557 258.287C86.4357 258.174 85.99 258.206 85.59 258.376C85.1901 258.547 84.8593 258.847 84.6506 259.228C84.5269 259.49 84.433 259.764 84.3707 260.047C84.0499 261.172 83.7359 262.263 83.4423 263.3C82.8484 265.346 82.3091 267.228 81.8585 268.803C81.7425 269.192 81.6401 269.567 81.5377 269.922C81.4207 270.242 81.3517 270.577 81.3329 270.918C81.3376 271.189 81.3961 271.456 81.5051 271.704C81.6141 271.952 81.7713 272.177 81.9678 272.364C82.2245 272.597 82.5335 272.765 82.8689 272.855L83.1283 272.936L83.217 272.97H83.1215L82.8552 272.902C82.509 272.826 82.1875 272.664 81.92 272.432C81.7108 272.241 81.5425 272.009 81.4252 271.751C81.3079 271.493 81.244 271.214 81.2373 270.931C81.2548 270.58 81.3214 270.234 81.4353 269.901C81.5309 269.547 81.6332 269.172 81.7425 268.783C82.1862 267.208 82.7119 265.373 83.2921 263.266C83.5789 262.229 83.8861 261.138 84.2069 260.012C84.2708 259.716 84.3693 259.427 84.5005 259.153C84.6542 258.885 84.8637 258.652 85.1149 258.471C85.3757 258.28 85.6765 258.151 85.9946 258.093C86.3127 258.035 86.6398 258.05 86.9512 258.137C87.2595 258.21 87.5593 258.315 87.8455 258.451C88.1173 258.606 88.3506 258.821 88.5282 259.078C88.7104 259.333 88.8343 259.624 88.8909 259.932C88.9475 260.239 88.9356 260.556 88.8559 260.858C88.535 261.983 88.221 263.075 87.9274 264.111L86.3437 269.615C86.1184 270.399 85.9204 271.102 85.7224 271.729C85.5703 272.168 85.2732 272.543 84.8799 272.79C84.4866 273.038 84.0205 273.145 83.5584 273.093C83.4303 273.07 83.3061 273.029 83.1897 272.97Z" fill="#263238"/>
<path d="M82.3093 309.532C82.0294 302.678 82.0226 295.135 85.9138 289.475C88.1188 286.276 91.4365 283.964 94.9864 282.375C98.5846 280.891 102.312 279.741 106.121 278.938C101.909 284.83 92.3718 284.899 88.3714 290.914C87.1699 292.701 86.6101 294.822 86.0708 296.902C84.9444 301.198 83.9613 305.277 82.8349 309.58" fill="#283838"/>
<path d="M52.2378 285.458H52.3334H52.6064C52.8454 285.492 53.2004 285.519 53.6509 285.608C54.9274 285.823 56.1851 286.138 57.4124 286.549C59.2383 287.158 60.9937 287.961 62.6485 288.943C63.6178 289.53 64.5524 290.172 65.4474 290.866C66.4133 291.623 67.3257 292.446 68.1781 293.328C69.0244 294.207 69.8005 295.151 70.4991 296.152C70.8541 296.622 71.1818 297.12 71.4685 297.591C71.7552 298.061 72.0556 298.552 72.3082 299.03C73.2374 300.712 73.9966 302.483 74.5746 304.315C74.972 305.547 75.271 306.808 75.4689 308.087C75.5509 308.537 75.5713 308.892 75.5986 309.13V309.403C75.5986 309.464 75.5986 309.499 75.5986 309.499V309.41C75.5986 309.335 75.5986 309.246 75.5577 309.137C75.5099 308.898 75.4826 308.544 75.387 308.1C75.1625 306.831 74.8454 305.579 74.4381 304.356C73.8483 302.538 73.0824 300.781 72.1512 299.112C71.8986 298.634 71.5982 298.17 71.3115 297.686C71.0248 297.202 70.6971 296.725 70.3489 296.254C69.6485 295.266 68.8749 294.331 68.0347 293.458C67.2002 292.583 66.3061 291.767 65.3586 291.016C64.4694 290.324 63.5417 289.682 62.5802 289.093C59.8326 287.436 56.8111 286.281 53.6577 285.683C53.2072 285.581 52.859 285.547 52.6201 285.499L52.347 285.451L52.2378 285.458Z" fill="#455A64"/>
<path d="M45.4695 281.061L45.2654 281.485C44.7785 282.497 45.2046 283.711 46.2172 284.197L56.2825 289.032C57.2951 289.519 58.5106 289.093 58.9975 288.082L59.2016 287.657C59.6885 286.646 59.2623 285.431 58.2498 284.945L48.1845 280.11C47.1719 279.624 45.9564 280.049 45.4695 281.061Z" fill="#222828"/>
<path d="M59.2077 287.654C59.2077 287.654 59.2623 287.538 59.3169 287.306C59.4216 286.877 59.3812 286.426 59.2022 286.023C59.0231 285.619 58.7154 285.286 58.327 285.076C57.7536 284.79 57.0778 284.483 56.3473 284.128L51.2 281.666L48.1416 280.207C47.8831 280.085 47.6011 280.023 47.3156 280.023C47.0301 280.023 46.7481 280.085 46.4896 280.207C46.2247 280.336 45.9916 280.522 45.8069 280.752C45.633 280.999 45.4865 281.265 45.37 281.543C45.2419 281.808 45.1753 282.098 45.1753 282.392C45.1753 282.686 45.2419 282.977 45.37 283.241C45.4968 283.504 45.6784 283.737 45.9025 283.923C46.1395 284.093 46.3962 284.232 46.6671 284.339L49.7049 285.758L54.8659 288.261L55.9104 288.766C56.2064 288.937 56.5262 289.063 56.8593 289.141C57.1279 289.182 57.402 289.17 57.6657 289.104C57.9294 289.038 58.1774 288.921 58.3953 288.759C58.6677 288.547 58.8855 288.274 59.0302 287.961L59.1599 287.715C59.1736 287.687 59.1896 287.659 59.2077 287.634C59.2121 287.663 59.2121 287.693 59.2077 287.722L59.0984 287.975C58.9626 288.304 58.7467 288.595 58.4704 288.82C58.2469 288.996 57.99 289.123 57.7153 289.196C57.4406 289.269 57.154 289.285 56.8729 289.243C56.5287 289.17 56.1974 289.046 55.8899 288.875L54.8386 288.377L49.664 285.915C48.6946 285.444 47.6706 284.96 46.6125 284.455C46.3318 284.34 46.0659 284.191 45.8206 284.012C45.5726 283.817 45.37 283.57 45.2267 283.289C45.0849 282.999 45.0112 282.681 45.0112 282.358C45.0112 282.036 45.0849 281.717 45.2267 281.427C45.3455 281.135 45.4991 280.858 45.684 280.602C45.9784 280.228 46.391 279.964 46.8546 279.854C47.3183 279.743 47.8056 279.793 48.2372 279.995L51.2819 281.461L56.4429 283.964C57.1733 284.319 57.8082 284.646 58.4226 284.933C58.6683 285.076 58.8813 285.269 59.0482 285.499C59.2151 285.729 59.3322 285.992 59.392 286.27C59.4892 286.613 59.4892 286.976 59.392 287.32C59.3493 287.441 59.2871 287.553 59.2077 287.654Z" fill="#263238"/>
<path d="M450.014 128.857C450.681 128.683 451.374 128.623 452.062 128.68C452.749 128.624 453.442 128.684 454.11 128.857C453.442 129.03 452.749 129.09 452.062 129.034C451.374 129.091 450.681 129.031 450.014 128.857Z" fill="#263238"/>
<path d="M433.644 128.857C436.369 128.62 439.11 128.62 441.836 128.857C439.11 129.094 436.369 129.094 433.644 128.857Z" fill="#263238"/>
<path d="M417.28 128.857C420.005 128.62 422.746 128.62 425.472 128.857C422.746 129.094 420.005 129.094 417.28 128.857Z" fill="#263238"/>
<path d="M400.91 128.857C403.635 128.62 406.376 128.62 409.102 128.857C406.376 129.094 403.635 129.094 400.91 128.857Z" fill="#263238"/>
<path d="M384.546 128.857C387.271 128.62 390.012 128.62 392.738 128.857C390.012 129.094 387.271 129.094 384.546 128.857Z" fill="#263238"/>
<path d="M368.189 128.496C369.556 128.457 370.923 128.493 372.285 128.605C373.655 128.596 375.023 128.681 376.381 128.857C375.024 129.036 373.651 129.07 372.285 128.959C370.906 128.97 369.531 128.814 368.189 128.496Z" fill="#263238"/>
<path d="M353.717 121.88C353.806 121.805 354.939 123.244 356.761 124.56C358.584 125.877 360.284 126.559 360.236 126.668C359.835 126.61 359.447 126.483 359.089 126.293C358.193 125.903 357.342 125.419 356.55 124.847C355.395 124.082 354.427 123.068 353.717 121.88Z" fill="#263238"/>
<path d="M349.245 106.426C349.334 106.426 349.45 108.247 349.73 110.477C350.01 112.707 350.413 114.494 350.29 114.521C349.789 113.242 349.48 111.895 349.375 110.525C349.14 109.171 349.097 107.792 349.245 106.426Z" fill="#263238"/>
<path d="M343.285 91.538C344.302 92.4659 345.165 93.5475 345.845 94.7434C346.62 95.8833 347.199 97.144 347.559 98.474C347.463 98.5149 346.733 96.8372 345.545 94.9276C344.357 93.018 343.203 91.6062 343.285 91.538Z" fill="#263238"/>
<path d="M329.851 82.5561C331.202 82.8075 332.505 83.2677 333.714 83.9201C334.975 84.4719 336.145 85.2124 337.182 86.1161C337.128 86.2048 335.585 85.2227 333.564 84.2406C331.544 83.2585 329.816 82.6516 329.851 82.5561Z" fill="#263238"/>
<path d="M313.658 81.9286C314.956 81.4708 316.317 81.2154 317.693 81.1716C318.661 81.1119 319.632 81.1119 320.601 81.1716C321.002 81.1568 321.404 81.1957 321.796 81.2875C321.408 81.3985 321.004 81.4446 320.601 81.4239C319.857 81.4239 318.84 81.4717 317.72 81.5603C315.481 81.6899 313.679 82.0309 313.658 81.9286Z" fill="#263238"/>
<path d="M299.438 89.5738C300.279 88.4818 301.291 87.533 302.435 86.764C303.506 85.8971 304.709 85.2065 305.998 84.718C306.046 84.8135 304.449 85.7069 302.647 87.0436C300.844 88.3803 299.513 89.6489 299.438 89.5738Z" fill="#263238"/>
<path d="M292.291 103.957C292.395 101.198 293.211 98.5133 294.659 96.162C294.755 96.2097 293.977 97.8534 293.294 100.008C292.611 102.164 292.4 103.971 292.291 103.957Z" fill="#263238"/>
<path d="M291.915 120.298C291.76 118.94 291.721 117.571 291.799 116.206C291.758 114.838 291.838 113.468 292.038 112.114C292.193 113.472 292.232 114.841 292.154 116.206C292.195 117.574 292.115 118.944 291.915 120.298Z" fill="#263238"/>
<path d="M291.683 136.645C291.522 135.288 291.481 133.918 291.56 132.553C291.522 131.185 291.602 129.816 291.799 128.461C291.959 129.819 292 131.189 291.921 132.553C291.958 133.922 291.879 135.291 291.683 136.645Z" fill="#263238"/>
<path d="M291.444 152.993C291.288 151.635 291.249 150.266 291.328 148.901C291.286 147.533 291.366 146.163 291.567 144.809C291.722 146.167 291.761 147.536 291.683 148.901C291.724 150.269 291.644 151.639 291.444 152.993Z" fill="#263238"/>
<path d="M286.932 168.406C286.843 168.345 287.874 166.831 288.857 164.812C289.84 162.793 290.379 161.054 290.482 161.082C290.268 162.442 289.825 163.757 289.171 164.969C288.621 166.231 287.864 167.393 286.932 168.406Z" fill="#263238"/>
<path d="M274.097 178.166C274.063 178.07 275.763 177.388 277.729 176.304C279.695 175.219 281.183 174.156 281.245 174.258C280.262 175.221 279.133 176.022 277.9 176.631C276.72 177.338 275.437 177.856 274.097 178.166Z" fill="#263238"/>
<path d="M257.959 180.048C259.318 179.885 260.687 179.828 262.055 179.878H263.646H264.943C265.345 179.844 265.749 179.869 266.144 179.953C265.757 180.072 265.354 180.132 264.949 180.13L263.646 180.225C263.161 180.225 262.622 180.225 262.055 180.225C260.687 180.296 259.316 180.237 257.959 180.048Z" fill="#263238"/>
<path d="M242.497 175.356C242.558 175.267 244.108 176.236 246.149 177.17C248.19 178.104 249.924 178.684 249.897 178.786C248.537 178.562 247.222 178.124 245.999 177.49C244.728 176.963 243.547 176.243 242.497 175.356Z" fill="#263238"/>
<path d="M232.291 162.909C232.393 162.875 233.076 164.573 234.216 166.503C235.356 168.434 236.489 169.866 236.407 169.913C235.402 168.973 234.558 167.874 233.909 166.66C233.166 165.508 232.619 164.24 232.291 162.909Z" fill="#263238"/>
<path d="M230.741 146.746C230.917 148.102 230.976 149.471 230.919 150.838C230.976 152.204 230.917 153.573 230.741 154.93C230.562 153.574 230.502 152.204 230.564 150.838C230.502 149.471 230.561 148.102 230.741 146.746Z" fill="#263238"/>
<path d="M230.741 130.398C230.917 131.755 230.976 133.124 230.919 134.49C230.976 135.857 230.917 137.226 230.741 138.582C230.561 137.226 230.502 135.857 230.564 134.49C230.502 133.124 230.561 131.754 230.741 130.398Z" fill="#263238"/>
<path d="M230.741 114.044C230.917 115.401 230.976 116.769 230.919 118.136C230.976 119.503 230.917 120.872 230.741 122.228C230.561 120.872 230.502 119.503 230.564 118.136C230.502 116.769 230.562 115.4 230.741 114.044Z" fill="#263238"/>
<path d="M230.741 97.6965C230.917 99.0529 230.976 100.422 230.919 101.788C230.976 103.155 230.917 104.524 230.741 105.88C230.562 104.524 230.502 103.155 230.564 101.788C230.502 100.422 230.561 99.0526 230.741 97.6965Z" fill="#263238"/>
<path d="M230.741 81.3421C230.849 81.7329 230.902 82.137 230.898 82.5424C230.932 83.279 230.953 84.302 230.953 85.4341C231.011 86.8007 230.951 88.1697 230.775 89.5261C230.595 88.17 230.536 86.8007 230.598 85.4341C230.598 84.302 230.598 83.279 230.646 82.5424C230.62 82.1398 230.652 81.7356 230.741 81.3421Z" fill="#263238"/>
<path d="M224.529 66.5291C225.564 67.4381 226.445 68.5091 227.137 69.7003C227.92 70.8339 228.508 72.0901 228.878 73.4173C228.775 73.4582 228.038 71.7805 226.83 69.8913C225.621 68.0022 224.447 66.5973 224.529 66.5291Z" fill="#263238"/>
<path d="M210.78 58.0791C213.496 58.5698 216.064 59.6731 218.289 61.305C218.235 61.3936 216.651 60.4729 214.589 59.5931C212.528 58.7134 210.753 58.1814 210.78 58.0791Z" fill="#263238"/>
<path d="M194.56 57.5472C195.867 57.1149 197.232 56.8849 198.608 56.8652C199.748 56.8038 200.772 56.8652 201.516 56.8652C201.919 56.8495 202.321 56.8931 202.711 56.9948C202.321 57.0955 201.919 57.1369 201.516 57.1175C200.772 57.1584 199.748 57.1175 198.629 57.213C196.362 57.3562 194.56 57.6495 194.56 57.5472Z" fill="#263238"/>
<path d="M180.122 64.824C181.955 62.7683 184.243 61.1686 186.805 60.1523C186.853 60.2478 185.235 61.1003 183.392 62.3893C181.548 63.6783 180.224 64.8991 180.122 64.824Z" fill="#263238"/>
<path d="M172.551 78.9892C172.588 77.6119 172.861 76.2511 173.356 74.9654C173.742 73.6439 174.351 72.3982 175.159 71.2826C175.254 71.3303 174.408 72.9535 173.691 75.0813C172.974 77.2092 172.653 79.0028 172.551 78.9892Z" fill="#263238"/>
<path d="M172.271 95.3231C172.091 93.967 172.032 92.5977 172.093 91.2311C172.032 89.8645 172.091 88.4952 172.271 87.1391C172.447 88.4955 172.506 89.8645 172.448 91.2311C172.506 92.5977 172.447 93.9667 172.271 95.3231Z" fill="#263238"/>
<path d="M172.271 111.677C172.091 110.321 172.032 108.952 172.093 107.585C172.032 106.219 172.092 104.85 172.271 103.493C172.446 104.85 172.506 106.219 172.448 107.585C172.506 108.952 172.447 110.321 172.271 111.677Z" fill="#263238"/>
<path d="M171.854 128.005C171.752 128.005 172.059 126.177 172.086 123.913C172.028 122.546 172.09 121.177 172.271 119.821C172.446 121.177 172.503 122.546 172.441 123.913C172.483 125.3 172.285 126.685 171.854 128.005Z" fill="#263238"/>
<path d="M163.84 141.924C163.772 141.842 165.116 140.601 166.571 138.862C168.025 137.123 168.946 135.568 169.042 135.622C167.848 138.115 166.062 140.279 163.84 141.924Z" fill="#263238"/>
<path d="M149.217 148.792C149.217 148.69 150.999 148.362 153.149 147.701C155.3 147.039 156.972 146.337 157.02 146.405C155.855 147.14 154.585 147.692 153.252 148.042C151.954 148.5 150.593 148.754 149.217 148.792Z" fill="#263238"/>
<path d="M132.867 149.358C134.224 149.167 135.594 149.089 136.963 149.126C138.329 149.044 139.7 149.085 141.059 149.249C139.703 149.44 138.333 149.518 136.963 149.481C135.597 149.562 134.226 149.521 132.867 149.358Z" fill="#263238"/>
<path d="M116.504 149.569C117.86 149.374 119.23 149.296 120.6 149.338C121.966 149.26 123.336 149.298 124.696 149.453C123.34 149.653 121.97 149.733 120.6 149.692C119.234 149.766 117.863 149.725 116.504 149.569Z" fill="#263238"/>
<path d="M100.14 149.801C101.496 149.601 102.866 149.521 104.236 149.563C105.602 149.485 106.973 149.526 108.332 149.685C106.976 149.881 105.606 149.958 104.236 149.917C102.87 149.995 101.5 149.956 100.14 149.801Z" fill="#263238"/>
<path d="M83.7769 150.04C85.1329 149.845 86.5034 149.767 87.8729 149.808C89.239 149.73 90.6094 149.768 91.9689 149.924C90.6133 150.125 89.2426 150.205 87.8729 150.163C86.5065 150.241 85.136 150.2 83.7769 150.04Z" fill="#263238"/>
<path d="M71.4478 150.197C72.1147 150.017 72.8065 149.948 73.4958 149.992C74.182 149.927 74.8743 149.978 75.5438 150.142C74.8775 150.325 74.1851 150.394 73.4958 150.347C72.8096 150.419 72.116 150.369 71.4478 150.197Z" fill="#263238"/>
<path d="M207.599 46.8466C207.6 46.0983 207.429 45.3598 207.098 44.6885C206.767 44.0172 206.285 43.4312 205.691 42.9762C205.096 42.5212 204.404 42.2095 203.67 42.0652C202.935 41.921 202.176 41.9481 201.453 42.1445C200.731 42.3409 200.063 42.7014 199.503 43.1977C198.942 43.694 198.504 44.3129 198.222 45.0061C197.94 45.6994 197.822 46.4482 197.877 47.1945C197.932 47.9407 198.159 48.6642 198.54 49.3086C198.731 49.6223 198.963 49.8474 199.222 50.1815L202.069 53.9325C202.151 54.04 202.257 54.1271 202.378 54.187C202.5 54.247 202.633 54.2781 202.769 54.2781C202.904 54.2781 203.038 54.247 203.159 54.187C203.28 54.1271 203.386 54.04 203.468 53.9325L206.247 50.2566C206.49 49.9567 206.718 49.6449 206.93 49.3222C207.371 48.5718 207.602 47.7168 207.599 46.8466ZM202.752 48.9676C202.328 48.9676 201.913 48.842 201.561 48.6067C201.208 48.3714 200.934 48.0369 200.771 47.6456C200.609 47.2543 200.567 46.8237 200.649 46.4083C200.732 45.9929 200.936 45.6113 201.236 45.3118C201.536 45.0124 201.918 44.8084 202.333 44.7258C202.749 44.6431 203.18 44.6855 203.572 44.8476C203.964 45.0097 204.298 45.2842 204.534 45.6364C204.77 45.9885 204.895 46.4026 204.895 46.8261C204.895 47.3941 204.669 47.9388 204.267 48.3404C203.865 48.742 203.32 48.9676 202.752 48.9676Z" fill="#E89A76"/>
<path d="M392.137 118.839C392.138 118.091 391.966 117.353 391.635 116.683C391.304 116.012 390.823 115.427 390.229 114.973C389.635 114.518 388.944 114.207 388.21 114.062C387.476 113.918 386.718 113.945 385.996 114.14C385.274 114.336 384.607 114.695 384.046 115.19C383.486 115.685 383.047 116.303 382.764 116.995C382.481 117.687 382.361 118.434 382.415 119.18C382.468 119.926 382.693 120.649 383.071 121.294C383.256 121.607 383.488 121.832 383.754 122.16L386.58 125.897C386.662 126 386.766 126.082 386.884 126.139C387.002 126.196 387.132 126.225 387.263 126.225C387.394 126.225 387.524 126.196 387.642 126.139C387.76 126.082 387.864 126 387.946 125.897L390.724 122.221C390.967 121.921 391.195 121.61 391.407 121.287C391.865 120.551 392.117 119.705 392.137 118.839ZM387.27 120.953C386.845 120.954 386.43 120.83 386.077 120.595C385.724 120.361 385.448 120.027 385.284 119.635C385.121 119.244 385.078 118.813 385.16 118.398C385.242 117.982 385.445 117.6 385.745 117.299C386.044 116.999 386.426 116.795 386.842 116.711C387.258 116.628 387.69 116.67 388.082 116.832C388.474 116.994 388.809 117.268 389.045 117.621C389.281 117.973 389.406 118.387 389.406 118.811C389.407 119.092 389.353 119.37 389.246 119.63C389.139 119.89 388.982 120.126 388.783 120.325C388.585 120.524 388.349 120.682 388.089 120.79C387.829 120.897 387.551 120.953 387.27 120.953Z" fill="#E89A76"/>
<path d="M323.741 70.6893C323.743 69.9407 323.573 69.2017 323.243 68.5297C322.912 67.8578 322.431 67.2711 321.837 66.8153C321.243 66.3595 320.551 66.0469 319.816 65.902C319.081 65.757 318.322 65.7836 317.599 65.9796C316.876 66.1756 316.208 66.5357 315.647 67.0319C315.086 67.5282 314.647 68.1471 314.365 68.8405C314.082 69.5339 313.964 70.283 314.019 71.0295C314.074 71.7761 314.301 72.4999 314.682 73.1445C314.866 73.4582 315.098 73.6833 315.364 74.0174L318.191 77.7548C318.273 77.8623 318.379 77.9494 318.5 78.0093C318.621 78.0692 318.755 78.1004 318.89 78.1004C319.026 78.1004 319.159 78.0692 319.281 78.0093C319.402 77.9494 319.508 77.8623 319.59 77.7548L322.369 74.0788C322.612 73.779 322.839 73.4671 323.051 73.1445C323.496 72.4022 323.734 71.5545 323.741 70.6893ZM318.88 72.8035C318.456 72.8048 318.041 72.6804 317.687 72.4459C317.334 72.2114 317.058 71.8774 316.895 71.4863C316.732 71.0951 316.688 70.6643 316.77 70.2484C316.852 69.8326 317.056 69.4504 317.355 69.1502C317.655 68.85 318.037 68.6454 318.453 68.5622C318.869 68.479 319.3 68.521 319.692 68.6829C320.084 68.8448 320.419 69.1192 320.655 69.4716C320.891 69.8239 321.017 70.2382 321.017 70.662C321.017 71.2288 320.792 71.7724 320.391 72.1739C319.991 72.5753 319.447 72.8017 318.88 72.8035Z" fill="#283838"/>
<path d="M123.139 135.411C123.145 134.484 122.937 133.569 122.53 132.736C122.123 131.904 121.528 131.176 120.793 130.611C120.058 130.046 119.202 129.658 118.293 129.478C117.383 129.299 116.443 129.331 115.548 129.574C114.653 129.817 113.827 130.264 113.133 130.879C112.439 131.494 111.897 132.261 111.549 133.12C111.202 133.979 111.058 134.907 111.128 135.831C111.199 136.755 111.483 137.65 111.957 138.446C112.209 138.817 112.481 139.174 112.77 139.517L116.258 144.141C116.358 144.276 116.489 144.386 116.64 144.462C116.79 144.538 116.956 144.577 117.125 144.577C117.294 144.577 117.46 144.538 117.61 144.462C117.761 144.386 117.892 144.276 117.992 144.141L121.405 139.599C121.719 139.229 122.01 138.842 122.279 138.439C122.831 137.525 123.128 136.479 123.139 135.411ZM117.118 138.03C116.594 138.03 116.082 137.875 115.647 137.584C115.211 137.293 114.872 136.88 114.671 136.396C114.471 135.913 114.418 135.381 114.52 134.868C114.623 134.354 114.875 133.883 115.245 133.513C115.616 133.143 116.088 132.891 116.601 132.788C117.115 132.686 117.648 132.739 118.132 132.939C118.616 133.139 119.029 133.479 119.321 133.914C119.612 134.349 119.767 134.86 119.767 135.384C119.767 136.086 119.488 136.759 118.991 137.255C118.494 137.751 117.821 138.03 117.118 138.03Z" fill="#283838"/>
<path d="M232.106 116.697C228.37 116.496 224.645 117.272 221.3 118.948C217.729 120.612 214.357 123.074 212.582 126.586C210.807 130.098 211.005 134.77 213.804 137.553C208.425 138.978 204.376 143.759 202.683 149.051C200.99 154.343 201.352 160.1 202.424 165.556C202.936 168.134 203.844 171.012 206.227 172.116C207.756 172.798 209.64 172.662 211.073 173.542C212.507 174.422 213.162 176.031 214.07 177.402C214.938 178.713 216.063 179.835 217.378 180.698C218.693 181.562 220.169 182.149 221.718 182.425C223.267 182.7 224.856 182.658 226.389 182.301C227.921 181.944 229.365 181.28 230.632 180.348L241.664 121.778C239.5 118.75 235.813 117.011 232.106 116.697Z" fill="#495959"/>
<path d="M239.52 123.006C239.292 123.33 239.039 123.635 238.762 123.919C238.25 124.492 237.506 125.283 236.564 126.306C234.147 128.946 231.435 131.3 228.481 133.324C225.5 135.353 222.088 136.665 218.514 137.157C217.434 137.291 216.343 137.314 215.258 137.225C214.876 137.225 214.575 137.143 214.378 137.116C214.275 137.109 214.173 137.086 214.077 137.048C214.077 137.048 214.507 137.048 215.265 137.089C216.34 137.124 217.416 137.065 218.48 136.912C221.993 136.352 225.34 135.027 228.283 133.031C231.21 131.024 233.925 128.725 236.387 126.17L238.66 123.858C238.923 123.551 239.211 123.266 239.52 123.006Z" fill="#263238"/>
<path d="M218.016 140.553C217.975 140.553 217.798 140.281 217.647 139.762C217.472 139.071 217.437 138.353 217.545 137.648C217.657 136.944 217.913 136.271 218.296 135.67C218.596 135.213 218.856 134.988 218.89 134.988C218.437 135.831 218.103 136.733 217.9 137.669C217.8 138.631 217.839 139.602 218.016 140.553Z" fill="#263238"/>
<path d="M221.73 142.729C221.793 142.829 221.843 142.937 221.88 143.049C221.969 143.261 222.105 143.575 222.249 143.997C222.672 145.17 223.021 146.368 223.293 147.585C224.249 151.621 224.249 155.824 223.293 159.861C222.282 163.9 220.066 167.537 216.937 170.289C215.992 171.11 214.954 171.819 213.845 172.403C213.463 172.621 213.162 172.737 212.93 172.839C212.823 172.89 212.711 172.931 212.596 172.962C212.979 172.713 213.375 172.486 213.784 172.28C214.852 171.658 215.853 170.929 216.774 170.104C219.799 167.337 221.947 163.745 222.952 159.772C223.896 155.792 223.935 151.651 223.068 147.653C222.754 146.112 222.385 144.925 222.146 144.052C221.979 143.62 221.84 143.178 221.73 142.729Z" fill="#263238"/>
<path d="M223.628 151.956C223.345 151.925 223.065 151.864 222.795 151.772C222.263 151.629 221.491 151.438 220.536 151.213C215.562 150.046 210.448 149.587 205.346 149.849C204.37 149.897 203.578 149.951 203.032 149.999C202.749 150.032 202.462 150.032 202.179 149.999C202.451 149.91 202.733 149.853 203.018 149.829C203.558 149.74 204.35 149.651 205.333 149.569C210.461 149.161 215.622 149.622 220.597 150.933C221.553 151.186 222.311 151.418 222.829 151.615C223.109 151.695 223.377 151.809 223.628 151.956Z" fill="#263238"/>
<g opacity="0.3">
<path opacity="0.3" d="M214.555 137.082C218.269 139.469 223.28 139.196 227.212 137.184C231.144 135.172 234.038 131.442 235.561 127.302C230.42 133.236 222.788 137.539 214.555 137.082Z" fill="black"/>
</g>
<g opacity="0.3">
<path opacity="0.3" d="M212.569 172.948C214.112 172.84 215.612 172.393 216.962 171.638C218.312 170.884 219.479 169.841 220.379 168.584C221.993 166.028 222.971 163.124 223.232 160.113C222.242 162.688 220.988 165.154 219.491 167.472C218.626 168.565 217.639 169.556 216.549 170.425C215.327 171.424 213.988 172.272 212.562 172.948" fill="black"/>
</g>
<path d="M216.405 150.197C216.655 150.76 216.819 151.358 216.89 151.97C217.006 152.529 217.136 153.177 217.334 153.9C217.454 154.31 217.454 154.745 217.334 155.155C217.267 155.395 217.123 155.607 216.925 155.759C216.727 155.91 216.484 155.993 216.235 155.994C215.991 155.96 215.761 155.857 215.575 155.696C215.388 155.535 215.252 155.323 215.183 155.087C215.067 154.679 215.067 154.247 215.183 153.839C215.381 153.095 215.593 152.475 215.764 151.922C215.916 151.329 216.124 150.751 216.385 150.197C216.317 150.808 216.189 151.411 216.003 151.997C215.852 152.577 215.682 153.218 215.504 153.907C215.409 154.258 215.409 154.627 215.504 154.978C215.552 155.149 215.647 155.304 215.779 155.425C215.91 155.545 216.073 155.627 216.248 155.66C216.422 155.655 216.589 155.593 216.724 155.485C216.86 155.377 216.956 155.227 216.999 155.059C217.092 154.711 217.092 154.344 216.999 153.996C216.837 153.351 216.711 152.697 216.624 152.038C216.515 150.892 216.405 150.21 216.405 150.197Z" fill="#263238"/>
<path d="M232.564 128.277C231.81 127.9 231.081 127.477 230.379 127.009C228.658 125.938 226.873 124.972 225.034 124.117C223.2 123.267 221.267 122.648 219.279 122.276C217.75 121.996 216.781 121.989 216.781 121.928C217.005 121.884 217.235 121.87 217.463 121.887C218.083 121.89 218.701 121.935 219.313 122.023C221.345 122.329 223.322 122.924 225.184 123.79C227.04 124.647 228.823 125.653 230.516 126.797C231.165 127.227 231.683 127.589 232.038 127.848C232.231 127.969 232.407 128.113 232.564 128.277Z" fill="#263238"/>
<path d="M231.54 127.82C231.581 127.82 231.615 128.052 231.424 128.346C231.294 128.539 231.11 128.69 230.896 128.779C230.681 128.869 230.444 128.894 230.216 128.85L229.99 128.809L230.093 128.598C230.29 128.203 230.636 127.901 231.055 127.759C231.369 127.657 231.574 127.698 231.581 127.759C231.588 127.82 231.403 127.868 231.158 128.011C230.839 128.187 230.58 128.452 230.413 128.775L230.297 128.523C230.468 128.551 230.643 128.537 230.807 128.482C230.971 128.428 231.12 128.334 231.24 128.209C231.424 127.998 231.485 127.814 231.54 127.82Z" fill="#263238"/>
<path d="M289.205 126.511C289.205 126.511 286.474 122.924 286.474 121.471L287.607 113.028C287.607 113.028 288.099 112.175 288.863 113.587C289.546 114.883 289.164 116.888 289.164 116.888L289.642 118.873L290.673 117.372L291.833 111.732C291.833 111.732 292.57 107.64 293.198 108.083C293.826 108.527 294.018 109.693 293.697 111.452C293.376 113.212 292.966 115.442 292.966 115.442C292.966 115.442 292.884 116.124 293.54 114.972C294.195 113.819 294.905 108.881 295.171 108.22C295.438 107.558 295.519 105.799 296.537 105.894C297.554 105.99 296.96 108.233 296.96 108.233L295.99 115.503C295.99 115.503 296.933 112.578 297.11 112.093C297.288 111.609 297.567 110 297.909 109.127C298.25 108.254 298.755 107.804 299.199 107.858C299.412 107.87 299.611 107.963 299.757 108.118C299.903 108.273 299.984 108.478 299.984 108.69L298.496 114.91C298.496 114.91 297.67 117.74 297.724 117.925C297.779 118.109 298.824 116.745 298.824 116.745L299.629 114.699C299.629 114.699 300.312 111.841 301.063 111.759C301.814 111.677 301.855 112.257 301.855 112.257L300.592 117.481L298.277 123.442L296.086 127.923C296.086 127.923 293.028 127.445 292.912 127.602C292.796 127.759 289.205 126.511 289.205 126.511Z" fill="#FFBE9D"/>
<path d="M294.625 123.994C294.381 123.575 294.171 123.138 293.997 122.685C293.572 121.624 292.763 120.762 291.731 120.271C291.225 120.05 290.66 120.007 290.126 120.148L289.949 120.196L289.908 120.005C289.71 119.139 289.437 118.341 289.314 117.795C289.202 117.506 289.153 117.197 289.171 116.888C289.313 117.155 289.427 117.436 289.512 117.727C289.796 118.457 290.042 119.202 290.249 119.957L290.024 119.814C290.632 119.635 291.284 119.674 291.867 119.923C292.498 120.186 293.047 120.612 293.458 121.157C293.777 121.595 294.038 122.072 294.236 122.576C294.446 123.023 294.578 123.503 294.625 123.994Z" fill="#EB996E"/>
<path d="M265.557 122.426L280.678 145.007L287.505 125.324L296.803 127.609C296.803 127.609 293.007 154.071 291.56 156.696C290.113 159.322 285.573 163.114 279.955 162.35C274.336 161.586 263.147 146.535 263.147 146.535L265.557 122.426Z" fill="#E89A76"/>
<path d="M282.542 154.071C282.882 150.769 282.165 147.446 280.494 144.577C280.85 144.918 281.141 145.32 281.354 145.764C281.948 146.798 282.376 147.919 282.624 149.085C282.882 150.249 282.96 151.445 282.856 152.632C282.837 153.126 282.731 153.613 282.542 154.071Z" fill="#263238"/>
<g opacity="0.3">
<path opacity="0.3" d="M266.697 151.336C267.191 151.074 267.616 150.699 267.937 150.241C268.257 149.784 268.464 149.257 268.541 148.703C268.687 147.598 268.653 146.476 268.438 145.382C267.831 140.928 266.977 136.291 266.39 131.837L266.629 150.872" fill="black"/>
</g>
<g opacity="0.3">
<path opacity="0.3" d="M282.699 152.973C282.999 152.917 283.28 152.789 283.519 152.598C283.757 152.408 283.944 152.162 284.064 151.881C284.301 151.313 284.383 150.692 284.303 150.081C284.195 148.931 283.797 147.826 283.145 146.872C282.493 145.918 281.609 145.144 280.576 144.625C282.065 147.143 282.795 150.037 282.678 152.959" fill="black"/>
</g>
<path d="M282.938 269.547L291.581 289.202L316.293 278.808C315.153 276.517 299.383 277.683 299.383 277.683L293.922 264.336L282.938 269.547Z" fill="#E89A76"/>
<g opacity="0.6">
<path opacity="0.6" d="M292.277 279.313C292.07 279.486 291.934 279.729 291.895 279.996C291.856 280.262 291.917 280.534 292.065 280.759C292.231 280.971 292.472 281.111 292.739 281.152C293.005 281.193 293.277 281.13 293.499 280.977C293.717 280.794 293.859 280.536 293.898 280.254C293.937 279.972 293.87 279.685 293.71 279.45C293.516 279.246 293.251 279.126 292.97 279.113C292.689 279.1 292.414 279.196 292.202 279.381" fill="white"/>
</g>
<g opacity="0.6">
<path opacity="0.6" d="M291.58 289.202L290.802 287.156L314.784 277.949C314.784 277.949 316.088 277.949 316.293 278.788L291.58 289.202Z" fill="white"/>
</g>
<path d="M299.848 277.745C299.895 277.867 299.315 278.181 298.885 278.815C298.455 279.45 298.353 280.091 298.202 280.091C298.052 280.091 297.957 279.32 298.496 278.556C299.035 277.792 299.827 277.629 299.848 277.745Z" fill="#263238"/>
<path d="M303.554 277.506C303.636 277.608 303.199 278.031 303.001 278.713C302.804 279.395 302.92 279.988 302.797 280.029C302.674 280.07 302.305 279.429 302.565 278.583C302.824 277.738 303.507 277.39 303.554 277.506Z" fill="#263238"/>
<path d="M306.23 279.886C306.135 279.954 305.711 279.422 305.746 278.638C305.78 277.854 306.23 277.349 306.319 277.424C306.408 277.499 306.217 278.004 306.196 278.652C306.176 279.3 306.346 279.825 306.23 279.886Z" fill="#263238"/>
<path d="M298.264 274.525C298.264 274.655 297.636 274.723 296.974 275.057C296.311 275.392 295.868 275.828 295.758 275.739C295.649 275.651 295.984 275.017 296.769 274.635C297.554 274.253 298.277 274.41 298.264 274.525Z" fill="#263238"/>
<path d="M196.335 288.827L195.277 278.331L204.042 267.303L193.297 260.401L193.01 260.824L187.549 269.063L180.456 274.655L191.72 293.144L202.691 292.408C202.691 292.408 201.707 289.85 196.335 288.827Z" fill="#E89A76"/>
<g opacity="0.6">
<path opacity="0.6" d="M180.442 274.655L191.706 293.144L202.677 292.408L201.332 290.846L192.375 290.955L181.951 273.468L180.442 274.655Z" fill="white"/>
</g>
<path d="M195.925 284.012C195.857 284.128 195.195 283.814 194.348 283.896C193.502 283.978 192.901 284.367 192.812 284.265C192.724 284.162 193.277 283.494 194.314 283.412C195.352 283.33 196.035 283.924 195.925 284.012Z" fill="#263238"/>
<path d="M195.591 281.414C195.481 281.502 194.949 280.889 194.068 280.779C193.188 280.67 192.505 281.114 192.43 281.004C192.355 280.895 192.505 280.766 192.798 280.575C193.197 280.333 193.667 280.234 194.13 280.295C194.593 280.355 195.022 280.572 195.345 280.909C195.577 281.168 195.638 281.38 195.591 281.414Z" fill="#263238"/>
<path d="M195.434 278.058C195.318 278.133 194.901 277.519 194.123 277.308C193.345 277.097 192.669 277.39 192.607 277.274C192.546 277.158 192.703 277.056 192.997 276.926C193.393 276.758 193.836 276.729 194.251 276.844C194.666 276.959 195.03 277.212 195.283 277.56C195.468 277.826 195.488 278.031 195.434 278.058Z" fill="#263238"/>
<path d="M198.199 275.269C198.069 275.323 197.721 274.716 197.011 274.328C196.301 273.939 195.645 273.912 195.598 273.775C195.55 273.639 196.39 273.407 197.25 273.905C198.11 274.403 198.328 275.242 198.199 275.269Z" fill="#263238"/>
<path d="M199.475 272.923C199.42 272.964 199.031 272.548 198.444 271.838C198.11 271.429 197.762 271.013 197.427 270.584C197.195 270.333 197.004 270.048 196.86 269.738C196.813 269.63 196.789 269.514 196.789 269.397C196.789 269.279 196.813 269.163 196.86 269.056C196.916 268.935 197.006 268.834 197.119 268.763C197.232 268.693 197.362 268.657 197.495 268.66C197.888 268.709 198.258 268.87 198.56 269.124C199.292 269.677 199.79 270.481 199.96 271.382C200.106 271.887 200.053 272.429 199.81 272.896C199.774 272.413 199.713 271.933 199.625 271.457C199.493 270.96 199.261 270.496 198.943 270.093C198.756 269.863 198.54 269.659 198.301 269.486C198.073 269.303 197.803 269.179 197.516 269.124C197.474 269.121 197.432 269.13 197.396 269.151C197.359 269.172 197.33 269.203 197.311 269.24C197.277 269.339 197.277 269.448 197.311 269.547C197.439 269.811 197.6 270.059 197.789 270.283C198.103 270.734 198.417 271.17 198.724 271.6C199.047 271.995 199.301 272.443 199.475 272.923Z" fill="#263238"/>
<path d="M199.891 273.223C199.837 273.223 199.844 272.643 200.39 271.947C200.763 271.48 201.28 271.147 201.861 271.002C202.442 270.857 203.055 270.906 203.605 271.143C203.665 271.186 203.714 271.242 203.748 271.307C203.782 271.372 203.801 271.444 203.803 271.518C203.802 271.646 203.764 271.771 203.694 271.879C203.589 272.019 203.465 272.143 203.325 272.248C202.697 272.753 201.954 273.095 201.161 273.243C200.717 273.382 200.24 273.382 199.796 273.243C199.796 273.161 200.315 273.168 201.086 272.943C201.794 272.74 202.452 272.392 203.018 271.92C203.12 271.844 203.212 271.754 203.291 271.654C203.332 271.552 203.291 271.579 203.291 271.552C203.189 271.501 203.078 271.468 202.963 271.456C202.828 271.435 202.691 271.423 202.554 271.422C202.29 271.416 202.027 271.453 201.776 271.531C201.343 271.657 200.951 271.892 200.636 272.213C200.096 272.732 199.967 273.25 199.891 273.223Z" fill="#263238"/>
<g opacity="0.6">
<path opacity="0.6" d="M189.174 273.741C189.191 273.999 189.131 274.257 189.001 274.48C188.872 274.704 188.679 274.885 188.446 274.998C188.214 275.112 187.952 275.154 187.696 275.119C187.439 275.084 187.199 274.973 187.006 274.801C186.813 274.629 186.675 274.404 186.61 274.153C186.546 273.903 186.557 273.639 186.643 273.395C186.729 273.151 186.886 272.938 187.093 272.784C187.301 272.629 187.55 272.54 187.808 272.527C188.15 272.51 188.484 272.628 188.74 272.855C188.995 273.082 189.151 273.4 189.174 273.741Z" fill="white"/>
</g>
<path d="M247.166 87.1392C247.636 84.8861 248.446 82.7175 249.569 80.7079C250.714 78.6856 252.566 77.1576 254.771 76.4181C257.062 75.8192 259.475 75.8783 261.734 76.5886C263.332 77.1335 264.789 78.0256 266.001 79.2007C268.049 80.9671 269.093 83.7223 269.953 86.2798" fill="#E89A76"/>
<path d="M271.401 86.4571C271.002 83.9777 269.668 81.7448 267.673 80.2168C265.645 78.7978 263.252 77.9884 260.778 77.8844C256.949 77.5911 252.47 78.6346 249.856 81.4308C247.241 84.227 245.698 88.0325 246.026 91.4425C246.169 92.977 247.658 97.1304 248.839 98.133L270.78 97.5669C272.09 95.48 271.797 88.9055 271.401 86.4571Z" fill="#E89A76"/>
<path d="M271.019 91.047C270.782 88.0117 269.409 85.177 267.173 83.1079C264.937 81.0388 262.003 79.8872 258.956 79.8827H258.328C251.556 80.2646 248.088 86.2185 248.668 92.9703L249.856 124.165H265.373L265.236 114.01C265.236 114.01 271.749 113.014 271.838 106.508C271.879 103.371 271.442 96.8986 271.019 91.047Z" fill="#FFBE9D"/>
<path d="M265.284 114.003C262.263 113.997 259.306 113.126 256.765 111.493C256.765 111.493 258.758 116.172 265.25 115.585L265.284 114.003Z" fill="#EB996E"/>
<path d="M268.452 96.162C268.452 96.404 268.358 96.6366 268.19 96.8109C268.022 96.9852 267.793 97.0875 267.55 97.0963C267.432 97.1056 267.313 97.0911 267.201 97.0537C267.088 97.0163 266.984 96.9567 266.895 96.8785C266.806 96.8003 266.734 96.7051 266.682 96.5984C266.63 96.4917 266.601 96.3758 266.595 96.2575C266.595 96.0155 266.688 95.7829 266.857 95.6086C267.025 95.4343 267.254 95.332 267.496 95.3232C267.614 95.3139 267.733 95.3284 267.846 95.3658C267.958 95.4032 268.062 95.4628 268.151 95.541C268.24 95.6192 268.313 95.7144 268.364 95.8211C268.416 95.9278 268.446 96.0437 268.452 96.162Z" fill="#263238"/>
<path d="M269.578 94.2251C269.462 94.3479 268.759 93.8228 267.762 93.8228C266.766 93.8228 266.028 94.3206 265.919 94.1978C265.81 94.0751 265.981 93.9319 266.302 93.7C266.735 93.4005 267.249 93.241 267.776 93.2431C268.296 93.2439 268.802 93.4086 269.223 93.7136C269.531 93.9523 269.653 94.1706 269.578 94.2251Z" fill="#263238"/>
<path d="M258.833 96.6326C258.835 96.874 258.743 97.1066 258.576 97.2811C258.409 97.4555 258.18 97.5581 257.939 97.5669C257.821 97.5753 257.702 97.5601 257.59 97.5223C257.478 97.4846 257.374 97.425 257.286 97.3469C257.197 97.2689 257.124 97.174 257.072 97.0678C257.02 96.9616 256.99 96.8461 256.983 96.7281C256.979 96.4855 257.071 96.2512 257.238 96.0752C257.405 95.8993 257.635 95.7958 257.877 95.7869C257.996 95.7786 258.115 95.794 258.227 95.8322C258.34 95.8704 258.444 95.9306 258.533 96.0094C258.622 96.0881 258.694 96.1838 258.746 96.2908C258.797 96.3978 258.827 96.514 258.833 96.6326Z" fill="#263238"/>
<path d="M259.734 94.723C259.625 94.8458 258.915 94.3206 257.918 94.3275C256.922 94.3343 256.184 94.8253 256.075 94.7026C255.966 94.5798 256.144 94.4298 256.464 94.1979C256.896 93.8967 257.412 93.7392 257.939 93.7478C258.458 93.7448 258.965 93.9072 259.386 94.2115C259.687 94.4502 259.796 94.6685 259.734 94.723Z" fill="#263238"/>
<path d="M263.366 101.809C263.893 101.645 264.439 101.546 264.991 101.516C265.243 101.516 265.482 101.441 265.53 101.27C265.552 101.006 265.492 100.742 265.359 100.513L264.608 98.5695C263.564 95.8006 262.813 93.5227 262.922 93.4818C263.031 93.4408 263.973 95.6505 265.011 98.4194C265.264 99.1014 265.503 99.7834 265.735 100.377C265.894 100.686 265.94 101.04 265.864 101.379C265.827 101.469 265.77 101.549 265.696 101.613C265.623 101.677 265.536 101.723 265.441 101.748C265.302 101.789 265.157 101.809 265.011 101.809C264.465 101.878 263.912 101.878 263.366 101.809Z" fill="#263238"/>
<path d="M260.417 102.491C260.581 102.491 260.581 103.569 261.509 104.339C262.438 105.11 263.591 105.021 263.598 105.144C263.605 105.267 263.346 105.355 262.854 105.369C262.218 105.374 261.6 105.157 261.106 104.755C260.634 104.369 260.333 103.813 260.267 103.207C260.226 102.757 260.342 102.484 260.417 102.491Z" fill="#263238"/>
<path d="M260.253 92.4587C260.158 92.7315 259.154 92.6156 257.987 92.7724C256.819 92.9293 255.87 93.2498 255.707 93.0111C255.638 92.8952 255.802 92.636 256.178 92.3701C256.685 92.0429 257.26 91.8354 257.86 91.7633C258.46 91.6913 259.068 91.7565 259.639 91.954C260.096 92.1177 260.294 92.3291 260.253 92.4587Z" fill="#263238"/>
<path d="M269.824 91.3403C269.633 91.5858 268.766 91.4358 267.776 91.5244C266.786 91.6131 265.933 91.8654 265.728 91.654C265.632 91.5449 265.728 91.3062 266.097 91.0539C266.586 90.7346 267.151 90.5488 267.735 90.5151C268.315 90.4575 268.9 90.5564 269.428 90.8015C269.763 90.9993 269.906 91.2175 269.824 91.3403Z" fill="#263238"/>
<path d="M249.603 97.7852C249.494 97.7374 245.139 96.4553 245.268 100.902C245.398 105.349 249.842 104.312 249.849 104.169C249.856 104.025 249.603 97.7852 249.603 97.7852Z" fill="#FFBE9D"/>
<path d="M248.832 102.525C248.832 102.525 248.75 102.58 248.62 102.648C248.437 102.723 248.231 102.723 248.047 102.648C247.754 102.475 247.512 102.227 247.346 101.93C247.181 101.632 247.097 101.297 247.105 100.956C247.083 100.575 247.146 100.193 247.289 99.838C247.327 99.6983 247.398 99.57 247.497 99.4642C247.596 99.3584 247.719 99.2784 247.856 99.231C247.944 99.2049 248.039 99.2104 248.123 99.2465C248.208 99.2826 248.278 99.3471 248.32 99.4288C248.381 99.5516 248.354 99.6402 248.381 99.6471C248.409 99.6539 248.47 99.572 248.429 99.3879C248.402 99.2797 248.34 99.1836 248.252 99.1151C248.125 99.0246 247.968 98.9878 247.815 99.0128C247.633 99.0549 247.466 99.1429 247.328 99.2683C247.191 99.3937 247.088 99.5523 247.03 99.7289C246.849 100.117 246.769 100.543 246.798 100.97C246.786 101.367 246.893 101.759 247.104 102.095C247.316 102.431 247.622 102.697 247.985 102.859C248.102 102.888 248.224 102.891 248.342 102.868C248.46 102.844 248.572 102.795 248.668 102.723C248.825 102.634 248.846 102.532 248.832 102.525Z" fill="#EB996E"/>
<path d="M252.525 84.568L254.723 82.672L261.714 83.7428L266.629 82.4811L267.919 83.8928C267.366 84.6362 268.541 81.4649 267.421 80.6192C265.011 78.7915 262.977 78.8597 259.912 78.8051C256.847 78.7505 250.73 82.4333 248.538 84.5203C246.784 86.1912 246.798 87.6302 246.798 87.6302C246.518 90.0376 247.863 92.7656 248.395 95.1322C248.675 96.3461 249.207 100.029 249.207 100.029C250.231 100.029 250.573 99.2174 250.457 98.208L250.266 94.2456C251.291 93.4384 252.024 92.3188 252.355 91.0571C252.685 89.7953 252.594 88.4604 252.095 87.2551C251.863 86.9004 251.296 85.25 252.525 84.568Z" fill="#263238"/>
<path d="M251.617 85.632C251.854 85.0084 252.282 84.4752 252.84 84.108C253.397 83.7408 254.056 83.5582 254.723 83.586C256.061 83.673 257.319 84.2483 258.259 85.2023C258.499 85.4595 258.767 85.6883 259.058 85.8843C259.204 85.9746 259.371 86.0269 259.543 86.0364C259.714 86.0459 259.886 86.0124 260.041 85.9389C260.137 85.8911 260.232 85.8161 260.335 85.8434C260.406 85.8723 260.464 85.9255 260.499 85.9934C260.752 86.4024 261.107 86.7385 261.529 86.9687C261.742 87.0779 261.984 87.1176 262.22 87.0821C262.457 87.0466 262.676 86.9377 262.847 86.7709C263.091 86.9949 263.396 87.143 263.723 87.1968C264.051 87.2507 264.387 87.2081 264.69 87.0742C264.994 86.9404 265.251 86.7211 265.432 86.4431C265.613 86.1652 265.708 85.8406 265.707 85.5092C266.008 85.5713 266.319 85.5465 266.606 85.4378C266.892 85.329 267.142 85.1409 267.325 84.8954C267.649 84.5292 267.887 84.0959 268.023 83.6266C268.158 83.1573 268.188 82.6638 268.11 82.1817C268.031 81.6996 267.847 81.2408 267.57 80.8385C267.292 80.4363 266.929 80.1005 266.506 79.8554C265.835 79.5149 265.105 79.3043 264.356 79.2348C263.188 79.0714 262.012 78.9825 260.833 78.9688C260.314 78.9403 259.794 79.0026 259.297 79.153C258.614 79.3985 258.055 79.9509 257.345 80.0396C256.879 80.0606 256.415 79.9864 255.979 79.8213C255.35 79.6045 254.685 79.5073 254.02 79.5349C252.716 79.6508 251.638 80.5852 250.777 81.5809C250.128 82.2379 249.658 83.0504 249.412 83.9406C249.298 84.3876 249.319 84.8584 249.474 85.2932C249.628 85.7279 249.908 86.107 250.279 86.3822C250.429 86.485 250.601 86.551 250.782 86.5747C250.962 86.5984 251.145 86.5792 251.317 86.5186C251.4 86.4842 251.475 86.4338 251.539 86.3703C251.602 86.3068 251.653 86.2313 251.687 86.1483C251.721 86.0653 251.739 85.9764 251.738 85.8866C251.738 85.7968 251.72 85.708 251.685 85.6251" fill="#263238"/>
<path d="M248.538 95.8074C248.061 92.3973 248.634 88.3054 251.112 85.3932C253.59 82.4811 257.973 80.701 260.874 81.2535C263.134 81.6831 268.049 81.8604 269.844 86.5867L269.592 82.6857C269.592 82.6857 267.407 78.2527 260.956 78.3891C254.505 78.5255 251.692 79.2757 248.573 83.0676C247.532 84.2232 246.819 85.6346 246.506 87.1569C246.193 88.6792 246.291 90.2573 246.791 91.729C247.241 93.1412 247.826 94.507 248.538 95.8074Z" fill="#E89A76"/>
<path d="M266.308 79.3507C266.226 79.3322 266.146 79.3048 266.069 79.2689C265.919 79.2143 265.701 79.1189 265.387 79.0234C264.565 78.7272 263.72 78.4991 262.861 78.3414C261.589 78.1293 260.298 78.0538 259.011 78.1163C257.435 78.1899 255.879 78.5003 254.396 79.037C252.914 79.599 251.531 80.3933 250.3 81.3899C249.766 81.8246 249.275 82.3087 248.832 82.8358C248.614 83.0745 248.436 83.3268 248.252 83.5655C248.067 83.8042 247.91 84.0429 247.774 84.2816C247.318 85.0232 246.934 85.8065 246.627 86.6209C246.511 86.9005 246.443 87.1324 246.388 87.3029C246.366 87.3838 246.334 87.4616 246.292 87.5347L246.354 87.296C246.409 87.1392 246.463 86.9073 246.572 86.614C246.857 85.7867 247.228 84.9912 247.678 84.2407C247.815 84.002 247.985 83.7633 248.149 83.5109C248.313 83.2586 248.511 83.0063 248.73 82.7607C249.178 82.2286 249.674 81.7378 250.211 81.2944C251.439 80.2833 252.822 79.4773 254.307 78.9074C255.804 78.3637 257.377 78.0554 258.97 77.9936C260.268 77.9304 261.569 78.0174 262.847 78.2527C263.707 78.4064 264.552 78.6346 265.373 78.9347C265.667 79.0438 265.878 79.153 266.056 79.2143L266.308 79.3507Z" fill="#263238"/>
<path d="M248.968 90.099C248.898 90.0802 248.831 90.0503 248.77 90.0104C248.6 89.9051 248.438 89.7866 248.286 89.6557C247.782 89.2192 247.397 88.663 247.165 88.0384C246.934 87.4137 246.864 86.7409 246.961 86.082C246.992 85.885 247.04 85.691 247.105 85.5023C247.152 85.3659 247.187 85.2977 247.193 85.3045C247.2 85.3114 247.118 85.6046 247.07 86.0957C247.01 86.7353 247.091 87.3804 247.309 87.9848C247.536 88.5865 247.896 89.1296 248.361 89.5739C248.716 89.9149 248.982 90.0786 248.968 90.099Z" fill="#263238"/>
<path d="M250.853 86.198C250.64 86.1051 250.449 85.9679 250.293 85.7956C249.887 85.3997 249.581 84.9136 249.399 84.3771C249.21 83.841 249.165 83.2649 249.269 82.7062C249.294 82.4653 249.371 82.2328 249.494 82.0242C249.494 82.0242 249.433 82.2833 249.371 82.7062C249.308 83.2464 249.367 83.7939 249.542 84.3089C249.722 84.8147 250.003 85.2787 250.368 85.6729C250.648 86.0275 250.866 86.1775 250.853 86.198Z" fill="#263238"/>
<path d="M253.904 83.3541C253.729 83.2738 253.569 83.1629 253.433 83.0267C253.082 82.7155 252.791 82.3435 252.573 81.9287C252.358 81.5042 252.235 81.0396 252.211 80.5647C252.186 80.3725 252.202 80.1772 252.259 79.9918C252.293 80.6305 252.446 81.2572 252.709 81.84C253.036 82.3974 253.438 82.907 253.904 83.3541Z" fill="#263238"/>
<path d="M256.846 78.3209C256.967 78.4445 257.062 78.5905 257.126 78.7506C257.317 79.1146 257.466 79.499 257.57 79.8963C257.672 80.296 257.731 80.7051 257.747 81.1171C257.763 81.2887 257.749 81.4617 257.707 81.6286C257.659 81.6286 257.659 80.8511 257.42 79.9373C257.181 79.0234 256.805 78.3414 256.846 78.3209Z" fill="#263238"/>
<path d="M262.512 78.2118C262.619 78.3467 262.695 78.5024 262.738 78.6687C262.866 79.0623 262.919 79.4764 262.895 79.8895C262.874 80.3024 262.774 80.7075 262.601 81.083C262.542 81.2455 262.446 81.3924 262.321 81.5127C262.546 80.9945 262.689 80.4446 262.745 79.8827C262.751 79.3173 262.673 78.754 262.512 78.2118Z" fill="#263238"/>
<path d="M266.151 79.2347C266.28 79.3687 266.382 79.5261 266.452 79.6985C266.64 80.1103 266.745 80.5554 266.759 81.0079C266.772 81.4586 266.691 81.907 266.52 82.3242C266.463 82.5026 266.37 82.6674 266.247 82.8084C266.471 82.234 266.591 81.6244 266.602 81.0079C266.559 80.3947 266.406 79.7942 266.151 79.2347Z" fill="#263238"/>
<path d="M269.654 82.2969C269.712 82.4346 269.738 82.5841 269.729 82.7334C269.754 83.4627 269.512 84.1762 269.046 84.7385C268.862 84.9499 268.718 85.0454 268.711 85.0318C269.007 84.6359 269.252 84.2052 269.442 83.7496C269.573 83.2762 269.645 82.7881 269.654 82.2969Z" fill="#263238"/>
<path d="M271.421 86.1093C271.421 86.4887 271.296 86.8576 271.066 87.1596C270.881 87.4891 270.59 87.7464 270.24 87.8893C270.485 87.631 270.713 87.3577 270.923 87.0709C271.271 86.614 271.373 86.1025 271.421 86.1093Z" fill="#263238"/>
<path d="M271.66 90.3991C271.694 90.3991 271.66 90.6651 271.421 90.8697C271.182 91.0743 270.93 91.0948 270.93 91.0539C270.93 91.0129 271.128 90.9311 271.319 90.7538C271.51 90.5765 271.612 90.3855 271.66 90.3991Z" fill="#263238"/>
<path d="M248.491 93.9387C247.984 93.868 247.5 93.681 247.077 93.3923C246.654 93.1036 246.304 92.7211 246.054 92.2746C246.71 93.0283 247.549 93.6012 248.491 93.9387Z" fill="#263238"/>
<path d="M248.866 96.087C248.866 96.1211 248.647 96.3461 248.252 96.3666C247.856 96.387 247.569 96.1961 247.61 96.162C247.651 96.1279 247.897 96.237 248.245 96.2097C248.593 96.1825 248.845 96.0529 248.866 96.087Z" fill="#263238"/>
<g opacity="0.3">
<path opacity="0.3" d="M265.776 79.2007C264.38 78.2861 262.815 77.6609 261.174 77.3622C259.532 77.0634 257.847 77.0972 256.218 77.4616C254.576 77.8807 253.033 78.6217 251.679 79.6414C250.326 80.6612 249.189 81.9394 248.333 83.4018C248.333 83.4018 252.354 78.3209 258.116 78.1436C263.878 77.9663 265.776 79.2007 265.776 79.2007Z" fill="black"/>
</g>
<path d="M261.325 96.3257C261.298 96.0573 261.255 95.7908 261.195 95.5278C261.004 94.8138 260.578 94.1846 259.987 93.7409C259.585 93.4372 259.117 93.2316 258.621 93.1408C258.05 93.0368 257.461 93.0863 256.915 93.284C256.313 93.5051 255.791 93.899 255.413 94.4161C255.005 94.9708 254.785 95.641 254.785 96.3291C254.785 97.0172 255.005 97.6874 255.413 98.2421C255.791 98.7592 256.313 99.1531 256.915 99.3743C257.425 99.5597 257.974 99.615 258.512 99.5352C259.049 99.4554 259.559 99.2431 259.993 98.9173C260.584 98.4725 261.009 97.8438 261.202 97.1305C261.262 96.8653 261.306 96.5965 261.331 96.3257C261.351 96.6008 261.325 96.8771 261.256 97.1441C261.085 97.884 260.663 98.5418 260.062 99.006C259.644 99.3238 259.158 99.5408 258.642 99.6402C258.049 99.7568 257.435 99.7096 256.867 99.5038C256.558 99.3967 256.268 99.2426 256.007 99.0469C255.734 98.8575 255.492 98.6275 255.29 98.3649C254.86 97.7857 254.628 97.084 254.628 96.3632C254.628 95.6424 254.86 94.9407 255.29 94.3615C255.49 94.0868 255.732 93.8451 256.007 93.6454C256.268 93.4497 256.558 93.2956 256.867 93.1885C257.398 92.9943 257.97 92.9381 258.529 93.0252C259.087 93.1123 259.615 93.3398 260.062 93.6864C260.663 94.1505 261.085 94.8084 261.256 95.5482C261.319 95.8023 261.342 96.0646 261.325 96.3257Z" fill="#455A64"/>
<path d="M271.237 95.937C271.237 95.937 271.237 95.6437 271.1 95.139C270.909 94.4251 270.484 93.7959 269.892 93.3522C269.491 93.0471 269.023 92.8414 268.527 92.752C267.955 92.6481 267.366 92.6975 266.82 92.8952C266.527 93.0022 266.251 93.1516 266.001 93.3385C265.595 93.6407 265.266 94.0333 265.039 94.485C264.813 94.9367 264.695 95.435 264.695 95.9404C264.695 96.4457 264.813 96.944 265.039 97.3957C265.266 97.8474 265.595 98.24 266.001 98.5422C266.251 98.7292 266.527 98.8785 266.82 98.9855C267.331 99.1709 267.88 99.2263 268.417 99.1465C268.955 99.0667 269.464 98.8543 269.899 98.5286C270.489 98.0838 270.914 97.455 271.107 96.7417C271.237 96.237 271.216 95.937 271.244 95.937C271.258 96.2119 271.233 96.4876 271.169 96.7554C270.992 97.4944 270.568 98.1511 269.967 98.6172C269.549 98.935 269.063 99.152 268.547 99.2515C267.954 99.368 267.34 99.3209 266.772 99.1151C266.464 99.0065 266.174 98.8525 265.912 98.6581C265.553 98.3964 265.25 98.0663 265.02 97.6869C264.789 97.3075 264.636 96.8863 264.57 96.4475C264.503 96.0088 264.524 95.5613 264.631 95.1307C264.739 94.7001 264.93 94.295 265.195 93.9387C265.592 93.3996 266.141 92.9911 266.772 92.7657C267.303 92.5715 267.875 92.5153 268.434 92.6023C268.993 92.6894 269.52 92.9169 269.967 93.2635C270.568 93.7296 270.992 94.3863 271.169 95.1254C271.231 95.3911 271.254 95.6645 271.237 95.937Z" fill="#455A64"/>
<path d="M264.718 94.6752C264.718 94.6752 264.526 94.5457 264.199 94.3888C263.77 94.1728 263.292 94.0735 262.812 94.1011C262.333 94.1286 261.869 94.282 261.468 94.5457C261.154 94.7434 260.997 94.9139 260.983 94.8935C261.086 94.7154 261.232 94.5654 261.407 94.457C261.803 94.16 262.278 93.9846 262.772 93.9523C263.273 93.9255 263.771 94.044 264.206 94.2933C264.404 94.3784 264.58 94.5093 264.718 94.6752Z" fill="#455A64"/>
<path d="M254.922 95.7119C254.922 95.7528 253.604 96.2029 251.945 96.7212C250.286 97.2395 248.935 97.6146 248.928 97.5805C248.921 97.5464 250.245 97.0895 251.897 96.5712C253.549 96.0529 254.908 95.6709 254.922 95.7119Z" fill="#455A64"/>
<path d="M257.891 99.0742C257.695 99.0893 257.497 99.0637 257.311 98.9992C256.856 98.8695 256.438 98.636 256.089 98.3172C255.738 97.992 255.467 97.5906 255.297 97.1441C255.217 96.9638 255.178 96.7683 255.181 96.5712C255.263 96.7444 255.336 96.922 255.399 97.1032C255.794 97.9342 256.5 98.5763 257.365 98.89C257.544 98.9421 257.719 99.0035 257.891 99.0742Z" fill="white"/>
<path d="M266.014 97.9897C266.014 97.9897 265.803 97.9488 265.571 97.6965C265.289 97.3635 265.102 96.9605 265.031 96.5303C264.943 96.1051 264.943 95.6664 265.031 95.2413C265.057 95.0639 265.13 94.8967 265.243 94.7571C265.243 94.7571 265.188 94.948 265.134 95.2686C265.07 95.6776 265.07 96.094 265.134 96.503C265.204 96.9088 265.365 97.2935 265.605 97.6283C265.732 97.759 265.869 97.8798 266.014 97.9897Z" fill="white"/>
<path d="M261.215 102.723C261.215 102.689 261.311 102.518 261.502 102.334C261.693 102.15 261.857 102.02 261.891 102.054C261.925 102.089 261.796 102.259 261.604 102.443C261.413 102.627 261.249 102.75 261.215 102.723Z" fill="#263238"/>
<path d="M261.693 103.016C261.693 103.016 261.789 102.777 261.973 102.546C262.158 102.314 262.335 102.136 262.362 102.164C262.39 102.191 262.274 102.402 262.089 102.634C261.905 102.866 261.727 103.043 261.693 103.016Z" fill="#263238"/>
<path d="M262.185 103.378C262.144 103.378 262.226 103.139 262.356 102.887C262.485 102.634 262.629 102.45 262.67 102.464C262.711 102.477 262.629 102.709 262.492 102.962C262.356 103.214 262.219 103.398 262.185 103.378Z" fill="#263238"/>
<path d="M262.929 103.384C262.888 103.384 262.868 103.228 262.881 103.043C262.895 102.859 262.943 102.709 262.984 102.709C263.025 102.709 263.045 102.866 263.031 103.05C263.018 103.234 262.977 103.384 262.929 103.384Z" fill="#263238"/>
<path d="M263.646 103.5C263.598 103.5 263.564 103.364 263.564 103.2C263.564 103.037 263.598 102.893 263.646 102.893C263.694 102.893 263.721 103.03 263.721 103.2C263.721 103.371 263.687 103.5 263.646 103.5Z" fill="#263238"/>
<path d="M264.315 103.562C264.274 103.562 264.199 103.405 264.144 103.187C264.089 102.968 264.089 102.777 264.144 102.771C264.199 102.764 264.26 102.934 264.308 103.152C264.356 103.371 264.356 103.555 264.315 103.562Z" fill="#263238"/>
<path d="M248.927 104.346C248.959 104.614 248.888 104.884 248.729 105.103C248.652 105.233 248.547 105.344 248.422 105.428C248.297 105.513 248.155 105.57 248.006 105.594C247.821 105.618 247.633 105.592 247.462 105.517C247.291 105.443 247.144 105.323 247.036 105.171C246.93 105.023 246.855 104.854 246.815 104.676C246.775 104.498 246.772 104.314 246.804 104.135C246.874 103.842 247.052 103.586 247.303 103.418C247.409 103.336 247.531 103.277 247.662 103.245C247.792 103.213 247.928 103.21 248.06 103.234C247.816 103.275 247.583 103.369 247.378 103.507C247.158 103.676 247.008 103.918 246.954 104.189C246.907 104.513 246.985 104.842 247.173 105.11C247.266 105.24 247.393 105.342 247.539 105.407C247.686 105.472 247.847 105.496 248.006 105.478C248.136 105.46 248.261 105.414 248.371 105.343C248.482 105.273 248.576 105.179 248.647 105.069C248.786 104.848 248.881 104.603 248.927 104.346Z" fill="#263238"/>
<path d="M239.732 204.6C240.558 204.6 274.664 240.064 274.664 242.526C274.664 244.988 279.729 269.97 282.173 273.816C284.617 277.663 286.085 276.762 286.085 276.762L297.424 271.484C297.424 271.484 291.143 232.61 289.764 228.238C288.385 223.867 262.376 189.487 262.376 189.487L237.8 194.159L239.732 204.6Z" fill="#263238"/>
<path d="M227.137 186.868L220.051 230.584C220.051 230.584 197.885 252.756 196.506 255.225C196.506 255.225 194.034 254.4 193.208 256.589C192.549 258.649 192.036 260.752 191.672 262.884L202.677 272.118C202.677 272.118 231.752 248.037 234.503 244.463C237.254 240.889 248.777 217.326 250.982 211.284C253.187 205.241 255.761 191.84 255.761 191.84L227.137 186.868Z" fill="#263238"/>
<path d="M280.378 234.608C280.283 235.084 280.117 235.544 279.886 235.972C279.399 237.038 278.814 238.056 278.139 239.014C277.472 239.982 276.703 240.876 275.845 241.68C275.507 242.036 275.107 242.328 274.664 242.54C274.976 242.173 275.311 241.827 275.668 241.503C276.458 240.647 277.186 239.736 277.845 238.775C279.415 236.593 280.276 234.547 280.378 234.608Z" fill="#455A64"/>
<path d="M224.024 233.612C223.153 233.552 222.329 233.196 221.689 232.603C220.983 232.104 220.464 231.384 220.214 230.557C220.744 231.189 221.312 231.788 221.914 232.351C222.591 232.814 223.295 233.235 224.024 233.612Z" fill="#455A64"/>
<path d="M201.148 260.933C200.036 260.367 199.076 259.544 198.348 258.532C197.62 257.52 197.145 256.349 196.963 255.116C197.424 256.233 197.986 257.306 198.642 258.321C199.391 259.27 200.23 260.145 201.148 260.933Z" fill="#455A64"/>
<path d="M236.284 193.333C236.262 193.503 236.214 193.669 236.141 193.824C235.98 194.26 235.789 194.684 235.568 195.093C234.097 197.827 231.768 200.003 228.939 201.285C228.517 201.48 228.081 201.644 227.635 201.776C227.477 201.843 227.308 201.88 227.137 201.886C227.137 201.824 227.819 201.586 228.83 201.06C230.171 200.371 231.411 199.502 232.516 198.476C233.615 197.441 234.568 196.261 235.349 194.97C235.943 193.974 236.203 193.306 236.284 193.333Z" fill="#455A64"/>
<path d="M253.665 204.505C253.565 204.886 253.437 205.26 253.283 205.623C252.982 206.387 252.6 207.396 252.115 208.624C251.105 211.14 249.685 214.619 247.985 218.404C246.285 222.189 244.626 225.565 243.411 227.993L241.95 230.857C241.784 231.215 241.59 231.559 241.37 231.887C241.495 231.512 241.648 231.148 241.827 230.796L243.193 227.884C244.353 225.421 245.971 222.039 247.664 218.26C249.357 214.482 250.818 211.024 251.883 208.522C252.409 207.321 252.839 206.325 253.16 205.568C253.301 205.202 253.47 204.846 253.665 204.505Z" fill="#455A64"/>
<path d="M247.685 115.872C247.685 115.872 240.176 118.893 238.435 124.165C237.547 126.832 232.373 146.33 232.373 146.33C232.373 146.33 225.546 183.772 226.488 187.339L265.557 193.333C266.525 192.162 267.013 190.669 266.923 189.153L266.288 177.934L266.745 129.846C266.751 129.488 266.726 129.129 266.67 128.775L265.305 119.909L265.742 116.083L248.231 111.459L247.685 115.872Z" fill="#E89A76"/>
<path d="M246.634 112.857C246.681 112.559 246.79 112.273 246.955 112.02C247.12 111.766 247.336 111.549 247.589 111.384C247.842 111.219 248.128 111.109 248.427 111.061C248.725 111.013 249.031 111.028 249.324 111.105L265.332 115.326C265.814 115.454 266.237 115.743 266.53 116.146C266.823 116.548 266.969 117.039 266.943 117.536L266.902 118.218C266.883 118.545 266.789 118.863 266.628 119.149C266.467 119.434 266.244 119.68 265.974 119.866C265.705 120.053 265.396 120.176 265.072 120.226C264.748 120.276 264.417 120.251 264.103 120.155L248.136 115.258C247.637 115.106 247.211 114.78 246.935 114.339C246.659 113.897 246.552 113.371 246.634 112.857Z" fill="#E89A76"/>
<path d="M265.557 119.964C265.275 119.939 264.996 119.887 264.724 119.807L262.506 119.248C260.628 118.757 258.048 118.061 255.208 117.27L251.399 116.192C250.92 116.118 250.448 116.008 249.985 115.865C249.765 115.795 249.553 115.704 249.351 115.592C249.241 115.536 249.142 115.463 249.057 115.374C248.984 115.283 248.92 115.184 248.866 115.081C248.702 114.706 248.65 114.291 248.716 113.887C248.761 113.552 248.85 113.224 248.982 112.912C249.16 112.474 249.409 112.068 249.719 111.712C249.945 111.473 250.095 111.377 250.102 111.391C249.703 111.868 249.387 112.407 249.166 112.987C248.903 113.614 248.883 114.317 249.112 114.958C249.262 115.299 249.658 115.429 250.081 115.572C250.528 115.704 250.984 115.802 251.446 115.865L255.263 116.915C258.102 117.706 260.676 118.443 262.533 118.961L264.724 119.643C265.012 119.723 265.29 119.831 265.557 119.964Z" fill="#263238"/>
<path d="M265.714 122.692C265.752 122.807 265.775 122.926 265.783 123.046C265.817 123.319 265.858 123.653 265.906 124.063C266.001 124.949 266.124 126.231 266.24 127.82C266.493 130.999 266.745 135.391 266.889 140.246C267.032 145.102 267.018 149.508 266.889 152.693C266.841 154.282 266.773 155.571 266.711 156.458C266.677 156.874 266.643 157.208 266.622 157.481C266.623 157.601 266.604 157.721 266.568 157.835C266.553 157.717 266.553 157.598 266.568 157.481C266.568 157.201 266.568 156.867 266.568 156.451C266.568 155.564 266.622 154.275 266.636 152.686C266.684 149.508 266.636 145.109 266.513 140.253C266.39 135.397 266.158 131.012 265.974 127.841C265.878 126.286 265.803 125.017 265.742 124.076C265.742 123.667 265.708 123.326 265.694 123.053C265.687 122.932 265.694 122.811 265.714 122.692Z" fill="#263238"/>
<path d="M254.355 112.673C254.091 113.315 253.878 113.976 253.72 114.651C253.67 115.332 253.67 116.016 253.72 116.697C253.519 116.385 253.384 116.035 253.323 115.67C253.262 115.304 253.276 114.929 253.365 114.569C253.396 114.203 253.499 113.847 253.669 113.522C253.839 113.196 254.072 112.908 254.355 112.673Z" fill="#263238"/>
<path d="M258.901 113.717C258.935 113.717 259.099 113.908 259.236 114.303C259.402 114.83 259.432 115.391 259.325 115.933C259.217 116.475 258.976 116.982 258.621 117.406C258.348 117.72 258.116 117.85 258.089 117.815C258.486 117.216 258.785 116.558 258.976 115.865C259.059 115.149 259.034 114.425 258.901 113.717Z" fill="#263238"/>
<path d="M263.332 114.944C263.366 114.944 263.55 115.108 263.714 115.49C263.927 115.998 263.993 116.555 263.905 117.099C263.817 117.643 263.578 118.151 263.216 118.566C262.936 118.879 262.704 118.995 262.676 118.961C263.142 118.415 263.452 117.754 263.572 117.047C263.692 116.34 263.618 115.613 263.359 114.944H263.332Z" fill="#263238"/>
<path d="M261.025 125.768C259.55 121.416 255.973 117.618 251.467 116.724C246.962 115.831 242.729 116.786 239.514 120.53L235.418 129.225C237.234 128.216 240.142 122.317 243.528 120.312C246.914 118.307 250.682 118.266 253.467 121.055C255.515 123.101 257.051 126.075 257.004 128.993C256.908 134.709 254.526 140.069 252.792 145.525C250.566 152.522 248.805 159.984 243.664 165.242C239.534 169.463 234.005 171.98 228.646 174.401C227.376 175.444 224.44 179.236 225.956 179.857C227.471 180.478 232.981 178.493 234.544 178.009C238.442 176.822 242.49 175.547 245.467 172.751C248.197 170.152 249.713 166.531 251.133 163.025C253.863 156.26 255.652 149.208 258.389 142.436C260.711 136.673 263.018 131.66 261.025 125.768Z" fill="#455A64"/>
<path d="M254.792 198.585L251.679 193.333L241.261 196.962C241.261 196.962 241.944 206.21 243.309 206.475C243.72 206.547 244.14 206.527 244.543 206.419C244.945 206.31 245.318 206.116 245.637 205.848C245.637 205.848 246.415 208.262 247.972 208.365L248.839 208.406C249.119 208.624 250.703 209.77 252.013 209.347C252.013 209.347 253.215 211.952 254.184 211.679C255.153 211.406 255.782 208.269 255.782 208.269L254.792 198.585Z" fill="#FFBE9D"/>
<path d="M245.385 119.057C243.607 119.678 242.02 120.748 240.778 122.163C239.537 123.578 238.682 125.29 238.298 127.132C236.25 136.932 231.363 162.596 231.561 166.21C231.813 170.807 240.585 198.046 240.585 198.046L252.873 194.35L247.296 163.66C247.296 163.66 256 134.947 256.683 130.583C257.434 125.815 253.269 116.329 245.385 119.057Z" fill="#E89A76"/>
<path d="M245.384 119.077C245.696 118.954 246.015 118.851 246.34 118.77C247.287 118.512 248.279 118.461 249.248 118.62C250.811 118.91 252.236 119.7 253.31 120.871C255.581 123.401 256.85 126.672 256.88 130.071C256.867 130.744 256.782 131.414 256.628 132.069C256.491 132.751 256.321 133.433 256.157 134.115C255.474 136.843 254.628 139.796 253.727 142.92C251.917 149.167 249.815 156.158 247.48 163.707V163.632L253.071 194.322V194.479L252.921 194.527L247.159 196.252L240.606 198.223L240.435 198.271L240.387 198.107C238.565 192.522 236.844 187.066 235.26 181.787C234.475 179.148 233.711 176.556 233.021 173.999C232.68 172.723 232.339 171.462 232.045 170.2C231.888 169.572 231.758 168.938 231.635 168.311C231.521 167.682 231.45 167.046 231.424 166.408C231.458 165.156 231.569 163.908 231.758 162.671C231.929 161.457 232.1 160.263 232.291 159.083C232.659 156.73 233.062 154.459 233.451 152.263C234.236 147.871 235.015 143.8 235.731 140.096L237.704 130.112C237.938 128.732 238.248 127.366 238.633 126.02C239.013 124.91 239.556 123.862 240.244 122.91C241.195 121.593 242.429 120.505 243.855 119.725C244.345 119.445 244.862 119.217 245.398 119.043C245.398 119.043 245.268 119.111 245.009 119.22C244.624 119.38 244.25 119.565 243.889 119.773C242.491 120.568 241.283 121.66 240.353 122.971C239.683 123.918 239.154 124.956 238.783 126.054C238.416 127.388 238.118 128.74 237.889 130.105C237.322 133.045 236.68 136.393 235.964 140.096C235.247 143.8 234.503 147.885 233.731 152.27C233.349 154.466 232.96 156.737 232.591 159.09C232.4 160.263 232.229 161.457 232.066 162.671C231.887 163.891 231.78 165.121 231.745 166.353C231.788 166.977 231.875 167.597 232.004 168.208C232.12 168.836 232.257 169.457 232.414 170.084C232.7 171.339 233.049 172.601 233.39 173.869C234.073 176.42 234.851 179.011 235.636 181.644C237.227 186.916 238.947 192.372 240.77 197.957L240.551 197.841L247.105 195.877L252.866 194.145L252.744 194.35C250.764 183.438 248.886 173.051 247.18 163.66V163.619V163.578C249.521 156.028 251.644 149.051 253.474 142.811C254.382 139.694 255.228 136.761 255.932 134.027C256.316 132.733 256.565 131.403 256.676 130.057C256.651 126.707 255.42 123.478 253.208 120.96C252.16 119.802 250.767 119.013 249.235 118.709C248.278 118.54 247.296 118.575 246.354 118.811C246.111 118.861 245.872 118.925 245.637 119.002C245.554 119.032 245.47 119.057 245.384 119.077Z" fill="#263238"/>
<path d="M247.446 163.496C245.492 162.092 243.162 161.305 240.756 161.238C241.971 161.038 243.216 161.139 244.383 161.533C245.55 161.926 246.602 162.6 247.446 163.496Z" fill="#263238"/>
<g opacity="0.3">
<path opacity="0.3" d="M237.616 189.453C231.888 180.969 228.878 169.109 232.155 160.672C231.26 165.726 232.114 170.343 233.622 175.247C235.131 180.15 236.933 185.04 237.227 190.162" fill="black"/>
</g>
<path d="M219.989 310.289L203.032 292.414L189.133 293.199L179.289 297.086L173.042 310.289" fill="#F5F5F5"/>
<path d="M189.133 293.199L203.53 310.289H219.989L203.032 292.414L189.133 293.199Z" fill="#E0E0E0"/>
<path d="M173.042 310.31C173.065 310.223 173.097 310.138 173.138 310.058L173.445 309.342C173.746 308.694 174.128 307.793 174.674 306.654L179.152 297.045V296.99H179.214L189.044 293.076H189.099L195.775 292.694L203.005 292.292H203.087L203.141 292.353L215.224 305.175L218.733 308.953C219.122 309.376 219.416 309.717 219.662 309.976C219.778 310.086 219.881 310.21 219.969 310.344C219.847 310.242 219.73 310.133 219.621 310.017L218.645 309.035L215.061 305.325C212.002 302.133 207.756 297.686 202.889 292.592L203.025 292.646L195.796 293.055L189.119 293.424H189.174L179.323 297.284L179.398 297.209C177.507 301.158 175.93 304.445 174.811 306.757L173.507 309.41L173.159 310.092C173.127 310.168 173.088 310.241 173.042 310.31Z" fill="#263238"/>
<path d="M96.4473 310.29L102.919 299.064L114.722 295.777L125.761 305.154V310.29" fill="#EBEBEB"/>
<path d="M102.919 299.064L125.761 305.154L114.722 295.777L102.919 299.064Z" fill="#E0E0E0"/>
<path d="M125.761 310.31C125.735 310.194 125.724 310.075 125.727 309.955C125.727 309.696 125.727 309.362 125.727 308.953C125.727 308.025 125.727 306.757 125.679 305.175L125.713 305.256L114.633 295.927L114.797 295.961L112.08 296.67L102.96 299.193L103.055 299.118L98.3041 307.214C97.7307 308.169 97.2733 308.932 96.9388 309.492L96.5701 310.092C96.5275 310.161 96.4795 310.227 96.4268 310.29C96.4491 310.211 96.4812 310.135 96.5223 310.065L96.85 309.444L98.1402 307.118L102.755 298.989V298.927H102.823L111.957 296.349L114.647 295.606H114.736L114.804 295.667L125.809 305.093L125.85 305.127V305.181C125.85 306.764 125.809 308.032 125.795 308.96C125.795 309.369 125.795 309.703 125.795 309.962C125.798 310.079 125.786 310.196 125.761 310.31Z" fill="#263238"/>
<path d="M330.793 290.109L314.409 280.786L285.641 291.255L262.403 310.29L344.61 309.867L330.793 290.109Z" fill="#F5F5F5"/>
<path d="M262.403 310.29L291.881 293.199L330.793 290.109L313.753 280.036L285.641 291.255L262.403 310.29Z" fill="#E0E0E0"/>
<path d="M304.756 310.071L319.481 299.991L332.91 299.037L321.673 301.533L315.856 310.017L304.756 310.071Z" fill="#E0E0E0"/>
<path d="M262.403 310.31C262.403 310.31 262.403 310.269 262.506 310.208L262.82 309.928L264.062 308.878L268.8 304.943L285.539 291.153L306.019 282.832L313.583 279.777L313.665 279.743L313.74 279.791L330.806 290.021L340.787 304.397L343.552 308.421L344.235 309.492C344.318 309.61 344.396 309.733 344.467 309.86C344.467 309.86 344.371 309.751 344.2 309.512L343.443 308.475C342.76 307.541 341.825 306.198 340.61 304.499L330.527 290.177L330.574 290.218L313.508 280.022H313.658L306.101 283.085L285.58 291.371H285.621L268.8 305.065L264.021 308.932L262.827 309.949L262.492 310.208L262.403 310.31Z" fill="#263238"/>
<path d="M333.366 299.003C333.017 299.083 332.66 299.131 332.301 299.146L329.373 299.405L319.488 300.169H319.577L317.959 301.274C314.341 303.749 311.057 305.979 308.668 307.575L305.834 309.423L305.049 309.921C304.872 310.03 304.77 310.085 304.763 310.071C304.837 309.992 304.919 309.921 305.008 309.86L305.753 309.308L308.531 307.343C310.886 305.693 314.149 303.429 317.768 300.953L319.385 299.848H319.426H319.488L329.373 299.207L332.315 299.05C332.664 299.01 333.015 298.994 333.366 299.003Z" fill="#263238"/>
<path d="M408.255 300.489L398.411 296.595L382 299.575L374.047 310.256L412.993 310.29L408.255 300.489Z" fill="#F5F5F5"/>
<path d="M382 299.575C382.478 299.487 408.255 300.489 408.255 300.489L398.411 296.602L382 299.575Z" fill="#E0E0E0"/>
<path d="M374.054 310.256C374.084 310.18 374.126 310.108 374.177 310.044L374.586 309.458L376.17 307.255L381.877 299.48L381.911 299.432H381.973L394.186 297.195L398.384 296.431H398.432H398.48L408.31 300.346H408.365V300.394L411.778 307.555L412.693 309.546L412.925 310.071C412.955 310.132 412.978 310.196 412.993 310.262C412.948 310.211 412.911 310.154 412.884 310.092L412.618 309.58C412.372 309.103 412.037 308.441 411.628 307.623C410.767 305.891 409.58 303.456 408.126 300.523L408.201 300.592L398.35 296.731H398.445L394.247 297.495L382.034 299.685L382.13 299.63C379.74 302.788 377.747 305.434 376.313 307.323L374.661 309.471L374.218 310.03C374.113 310.185 374.058 310.26 374.054 310.256Z" fill="#263238"/>
<path d="M481.348 310.31C481.348 310.405 378.948 310.487 252.6 310.487C126.252 310.487 23.8252 310.385 23.8252 310.31C23.8252 310.235 126.225 310.133 252.6 310.133C378.976 310.133 481.348 310.187 481.348 310.31Z" fill="#263238"/>
<path d="M200.431 315.705C200.431 315.807 185.761 315.882 167.663 315.882C149.566 315.882 134.895 315.807 134.895 315.705C134.895 315.602 149.559 315.527 167.663 315.527C185.767 315.527 200.431 315.609 200.431 315.705Z" fill="#263238"/>
<path d="M176.128 319.974C176.128 320.069 171.493 320.151 165.786 320.151C160.079 320.151 155.437 320.069 155.437 319.974C155.437 319.878 160.072 319.797 165.786 319.797C171.5 319.797 176.128 319.858 176.128 319.974Z" fill="#263238"/>
</svg>
