<svg width="324" height="302" viewBox="0 0 324 302" fill="none" xmlns="http://www.w3.org/2000/svg">
<g clip-path="url(#clip0_9_4643)">
<path d="M246.891 71.7666H245.229V26.3095C245.229 19.3318 242.451 12.6399 237.507 7.70587C232.563 2.77189 225.858 0 218.866 0H122.369C115.377 0 108.672 2.77189 103.728 7.70587C98.7843 12.6399 96.0068 19.3318 96.0068 26.3095V275.69C96.0068 282.668 98.7843 289.36 103.728 294.294C108.672 299.228 115.377 302 122.369 302H218.868C225.86 302 232.565 299.228 237.509 294.294C242.453 289.36 245.23 282.668 245.23 275.69V104.124H246.891V71.7666Z" fill="#3F3D56"/>
<path d="M239.855 24.549V277.452C239.855 282.743 237.749 287.816 234.001 291.557C230.253 295.299 225.17 297.401 219.869 297.403H121.387C116.083 297.404 110.997 295.302 107.247 291.56C103.496 287.818 101.389 282.743 101.388 277.45V24.549C101.389 19.2568 103.497 14.182 107.248 10.4406C110.998 6.69928 116.084 4.59781 121.387 4.59839H133.333C132.746 6.03804 132.523 7.59945 132.683 9.14536C132.842 10.6913 133.38 12.1744 134.249 13.4643C135.117 14.7542 136.29 15.8114 137.664 16.5431C139.038 17.2747 140.571 17.6584 142.128 17.6603H198.273C199.831 17.6582 201.363 17.2744 202.737 16.5425C204.111 15.8106 205.284 14.7532 206.152 13.463C207.021 12.1729 207.558 10.6897 207.718 9.14366C207.877 7.59765 207.653 6.03622 207.067 4.59662H219.863C225.164 4.59756 230.247 6.69925 233.996 10.4396C237.745 14.18 239.852 19.253 239.854 24.5432L239.855 24.549Z" fill="#E6E6E6"/>
<path d="M229.362 284.202H111.881C110.878 284.201 109.917 283.803 109.208 283.095C108.499 282.387 108.1 281.428 108.099 280.427V33.9419C108.1 32.9411 108.499 31.9815 109.208 31.2738C109.917 30.5661 110.878 30.168 111.881 30.1669H229.362C230.365 30.168 231.327 30.5661 232.036 31.2738C232.745 31.9815 233.144 32.9411 233.145 33.9419V280.427C233.144 281.428 232.745 282.387 232.036 283.095C231.327 283.803 230.365 284.201 229.362 284.202Z" fill="white"/>
<path d="M170.176 113.386C188.053 113.386 202.544 98.9234 202.544 81.0828C202.544 63.2422 188.053 48.7795 170.176 48.7795C152.3 48.7795 137.809 63.2422 137.809 81.0828C137.809 98.9234 152.3 113.386 170.176 113.386Z" fill="#E6E6E6"/>
<path d="M169.732 109.013C185.188 109.013 197.717 96.5081 197.717 81.0827C197.717 65.6574 185.188 53.1526 169.732 53.1526C154.275 53.1526 141.746 65.6574 141.746 81.0827C141.746 96.5081 154.275 109.013 169.732 109.013Z" fill="white"/>
<path d="M170.355 65.2411C167.199 65.2411 164.114 66.175 161.49 67.9248C158.866 69.6746 156.821 72.1616 155.613 75.0714C154.405 77.9812 154.089 81.183 154.705 84.272C155.321 87.361 156.84 90.1985 159.072 92.4255C161.303 94.6525 164.146 96.1692 167.242 96.7836C170.337 97.3981 173.545 97.0827 176.461 95.8774C179.376 94.6722 181.868 92.6311 183.622 90.0124C185.375 87.3937 186.311 84.3149 186.311 81.1653C186.311 76.942 184.63 72.8916 181.637 69.9052C178.645 66.9188 174.586 65.2411 170.355 65.2411ZM170.355 70.0185C171.301 70.0185 172.227 70.2986 173.014 70.8236C173.801 71.3485 174.415 72.0946 174.777 72.9676C175.139 73.8405 175.234 74.8011 175.049 75.7278C174.865 76.6546 174.409 77.5058 173.739 78.1739C173.07 78.8421 172.217 79.2971 171.288 79.4814C170.36 79.6657 169.397 79.5711 168.523 79.2095C167.648 78.8479 166.9 78.2356 166.374 77.45C165.848 76.6643 165.568 75.7407 165.568 74.7958C165.568 74.1685 165.691 73.5472 165.932 72.9676C166.173 72.388 166.525 71.8613 166.97 71.4177C167.414 70.9741 167.942 70.6222 168.523 70.3821C169.103 70.142 169.726 70.0184 170.355 70.0185ZM170.355 93.0166C168.464 93.008 166.603 92.5391 164.935 91.6506C163.266 90.762 161.841 89.4807 160.781 87.9177C160.857 84.7329 167.163 82.9796 170.355 82.9796C173.546 82.9796 179.851 84.7329 179.928 87.9177C178.868 89.4798 177.441 90.7605 175.773 91.6491C174.105 92.5378 172.245 93.0076 170.355 93.0179V93.0166Z" fill="#E89A76"/>
<path d="M196.89 124.242H140.891V128.442H196.89V124.242Z" fill="#E6E6E6"/>
<path d="M203.873 135.157H133.398V139.357H203.873V135.157Z" fill="#E6E6E6"/>
<path d="M220.261 166.51H120.983V265.589H220.261V166.51Z" fill="#E6E6E6"/>
<path d="M217.639 168.606H122.561V263.494H217.639V168.606Z" fill="white"/>
<path d="M179.151 177.765H142.141V180.541H179.151V177.765Z" fill="#E6E6E6"/>
<path d="M199.293 185.916H142.141V188.692H199.293V185.916Z" fill="#E89A76"/>
<path d="M189.313 193.677H142.735V196.454H189.313V193.677Z" fill="#E6E6E6"/>
<path d="M169.332 202.194H142.141V204.97H169.332V202.194Z" fill="#E6E6E6"/>
<path d="M183.179 210.513H142.141V213.289H183.179V210.513Z" fill="#E89A76"/>
<path d="M179.151 218.883H142.141V221.66H179.151V218.883Z" fill="#E6E6E6"/>
<path d="M199.293 227.033H142.141V229.81H199.293V227.033Z" fill="#E89A76"/>
<path d="M189.313 234.795H142.735V237.571H189.313V234.795Z" fill="#E6E6E6"/>
<path d="M169.332 243.312H142.141V246.088H169.332V243.312Z" fill="#E6E6E6"/>
<path d="M183.179 251.631H142.141V254.407H183.179V251.631Z" fill="#E6E6E6"/>
<path d="M308.285 215.408C308.02 215.87 307.667 216.276 307.245 216.602C306.823 216.928 306.341 217.168 305.826 217.308C305.311 217.448 304.774 217.485 304.245 217.418C303.715 217.351 303.205 217.18 302.741 216.916C302.278 216.651 301.872 216.299 301.545 215.877C301.219 215.456 300.978 214.975 300.838 214.461C300.698 213.948 300.66 213.411 300.728 212.883C300.795 212.355 300.966 211.845 301.231 211.383C301.24 211.367 301.249 211.351 301.259 211.336C301.372 211.146 301.5 210.965 301.641 210.794L298.224 186.483L298.121 185.755L297.427 180.794L297.325 180.079L297.703 180.096L304.325 180.398L306.1 180.478L306.323 185.004L307.582 210.447C308.24 211.076 308.667 211.906 308.795 212.806C308.922 213.706 308.743 214.623 308.285 215.408Z" fill="#FFB8B8"/>
<path d="M298.141 185.975L306.549 185.205C306.985 185.164 307.387 184.952 307.668 184.616C307.948 184.281 308.084 183.848 308.046 183.412L306.489 165.962C306.414 165.13 306.176 164.32 305.788 163.58C305.401 162.839 304.87 162.183 304.228 161.647C303.586 161.111 302.844 160.706 302.045 160.456C301.246 160.207 300.406 160.116 299.572 160.191C298.738 160.265 297.927 160.502 297.185 160.889C296.443 161.277 295.785 161.806 295.248 162.447C294.711 163.088 294.306 163.828 294.055 164.625C293.805 165.423 293.714 166.261 293.789 167.094C293.8 167.214 293.814 167.333 293.831 167.453L296.353 184.569C296.411 184.961 296.608 185.32 296.908 185.579C297.209 185.838 297.592 185.981 297.99 185.982C298.04 185.983 298.091 185.98 298.141 185.975Z" fill="#E89A76"/>
<path d="M304.514 171.877C305.365 169.473 305.404 166.857 304.626 164.429C303.849 162 302.297 159.892 300.207 158.426C297.036 156.261 292.698 155.484 288.025 161.035C278.68 172.138 276.232 184.351 276.232 184.351L295.368 187.46C295.368 187.46 301.875 179.521 304.514 171.877Z" fill="#E89A76"/>
<path d="M273.566 296.943H268.11L265.515 275.942H273.567L273.566 296.943Z" fill="#FFB8B8"/>
<path d="M257.589 301.999H274.736V295.387H264.214C262.457 295.387 260.772 296.084 259.53 297.323C258.287 298.563 257.589 300.245 257.589 301.999Z" fill="#2F2E41"/>
<path d="M318.42 292.194L313.24 293.903L304.17 274.776L311.816 272.254L318.42 292.194Z" fill="#FFB8B8"/>
<path d="M304.839 301.999L321.119 296.628L319.04 290.351L309.05 293.646C308.224 293.919 307.46 294.351 306.801 294.918C306.143 295.485 305.602 296.176 305.211 296.952C304.82 297.728 304.586 298.572 304.522 299.438C304.458 300.304 304.566 301.174 304.839 301.999Z" fill="#2F2E41"/>
<path d="M292.502 152.919C298.538 152.919 303.432 148.036 303.432 142.011C303.432 135.987 298.538 131.103 292.502 131.103C286.466 131.103 281.572 135.987 281.572 142.011C281.572 148.036 286.466 152.919 292.502 152.919Z" fill="#FFB8B8"/>
<path d="M282.932 291.097L287.999 257.724C288.053 257.368 288.229 257.042 288.498 256.801C288.766 256.56 289.11 256.42 289.471 256.404C289.831 256.388 290.186 256.498 290.475 256.715C290.763 256.931 290.967 257.241 291.053 257.591L298.768 289.395C298.89 289.882 299.189 290.307 299.608 290.585C300.027 290.863 300.535 290.975 301.032 290.898L322.315 287.485C322.597 287.44 322.866 287.335 323.104 287.177C323.342 287.019 323.544 286.813 323.695 286.571C323.847 286.329 323.945 286.057 323.982 285.775C324.02 285.492 323.996 285.204 323.913 284.931L296.162 193.621C296.084 193.361 296.074 193.086 296.135 192.821L297.059 188.824C297.161 188.391 297.114 187.936 296.926 187.533C296.738 187.129 296.421 186.8 296.024 186.597C292.245 184.673 282.674 180.673 275.451 185.055C275.216 185.197 275.013 185.386 274.854 185.61C274.695 185.833 274.583 186.087 274.525 186.355L252.847 288.044C252.788 288.321 252.788 288.606 252.848 288.883C252.908 289.159 253.026 289.42 253.194 289.647C253.362 289.875 253.577 290.064 253.824 290.202C254.071 290.341 254.344 290.426 254.627 290.451L280.774 292.788C280.833 292.793 280.892 292.796 280.952 292.796C281.431 292.795 281.893 292.623 282.256 292.312C282.619 292 282.859 291.569 282.931 291.097L282.932 291.097Z" fill="#2F2E41"/>
<path d="M299.75 134.304C298.926 133.81 298.195 133.176 297.589 132.43C297.29 132.054 297.093 131.607 297.018 131.132C296.942 130.658 296.99 130.172 297.157 129.721C297.71 128.505 299.35 128.122 300.622 128.535C301.894 128.948 302.876 129.944 303.805 130.903C304.624 131.747 305.466 132.632 305.852 133.742C306.239 134.852 306.041 136.259 305.075 136.933C304.128 137.594 302.765 137.323 301.854 136.613C300.942 135.904 300.378 134.85 299.84 133.829L299.75 134.304Z" fill="#2F2E41"/>
<path d="M303.452 131.197C303.512 128.123 307.022 125.919 310.054 126.464C313.086 127.009 315.416 129.588 316.582 132.433C319.047 138.445 317.197 145.303 314.822 151.353C312.448 157.402 309.509 163.539 309.856 170.025C310.09 173.53 311.269 176.908 313.267 179.8C315.266 182.692 318.01 184.992 321.21 186.457C317.789 188.005 313.699 186.406 310.824 183.993C304.439 178.635 301.975 169.095 304.967 161.324C306.443 157.491 309.045 154.211 311.076 150.64C313.107 147.069 314.597 142.86 313.548 138.889C312.5 134.918 308.037 131.704 304.222 133.24L303.452 131.197Z" fill="#2F2E41"/>
<path d="M291.847 146.852C292.799 145.245 293.76 143.135 292.019 141.731C291.641 141.439 291.207 141.226 290.745 141.104C290.283 140.982 289.801 140.953 289.327 141.02C287.364 141.256 285.225 141.354 283.325 140.642C282.612 140.397 281.956 140.012 281.395 139.509C280.834 139.006 280.38 138.396 280.061 137.714C279.082 135.394 280.308 132.575 282.359 131.109C283.614 130.244 285.097 129.769 286.621 129.742C288.146 129.715 289.644 130.138 290.929 130.957C293.586 129.786 296.809 130.307 299.223 131.919C301.636 133.531 303.288 136.113 304.185 138.87C305.011 141.242 305.154 143.799 304.596 146.249C304.147 147.953 303.293 149.524 302.106 150.829C300.92 152.133 299.436 153.134 297.78 153.745C297.135 153.999 296.434 154.079 295.748 153.978C295.063 153.876 294.415 153.597 293.872 153.167C293.872 153.167 292.365 151.855 291.894 150.275C291.532 149.059 291.338 147.71 291.847 146.852Z" fill="#2F2E41"/>
<path d="M259.423 156.585C259.477 156.825 259.513 157.068 259.529 157.313L278.645 168.319L283.292 165.65L288.245 172.121L280.48 177.645C279.852 178.092 279.097 178.323 278.326 178.304C277.556 178.286 276.812 178.018 276.208 177.541L256.494 162.021C255.604 162.35 254.635 162.401 253.715 162.167C252.796 161.933 251.97 161.425 251.347 160.71C250.723 159.996 250.333 159.109 250.227 158.168C250.122 157.227 250.306 156.276 250.755 155.442C251.204 154.607 251.897 153.929 252.741 153.498C253.586 153.066 254.542 152.901 255.483 153.026C256.424 153.15 257.305 153.557 258.008 154.193C258.711 154.828 259.204 155.663 259.42 156.585H259.423Z" fill="#FFB8B8"/>
<path d="M279.285 168.841L285.463 176.832C285.639 177.059 285.862 177.246 286.116 177.38C286.371 177.513 286.651 177.59 286.938 177.606C287.225 177.622 287.512 177.576 287.78 177.471C288.048 177.366 288.29 177.204 288.489 176.998L295.483 169.749C296.667 168.87 297.452 167.558 297.666 166.101C297.88 164.645 297.505 163.163 296.625 161.982C295.744 160.8 294.429 160.017 292.969 159.803C291.51 159.59 290.025 159.963 288.841 160.842C288.781 160.887 288.721 160.934 288.663 160.981L279.891 165.876C279.64 166.016 279.422 166.209 279.252 166.441C279.082 166.673 278.964 166.938 278.907 167.22C278.849 167.501 278.853 167.791 278.918 168.071C278.983 168.351 279.108 168.613 279.283 168.841L279.285 168.841Z" fill="#E89A76"/>
<path d="M55.0476 187.887C54.8293 187.986 54.6193 188.103 54.4197 188.236L34.4603 179.735L33.7483 174.487L25.7729 174.438L26.2442 186.474L52.5885 193.428C52.644 193.611 52.7106 193.79 52.7879 193.964C53.1688 194.776 53.7813 195.456 54.5486 195.921C55.3159 196.386 56.2037 196.614 57.1006 196.577C57.9974 196.54 58.8632 196.239 59.5894 195.713C60.3155 195.186 60.8696 194.457 61.1819 193.617C61.4943 192.778 61.5511 191.864 61.3451 190.993C61.1392 190.121 60.6797 189.329 60.0243 188.717C59.369 188.105 58.547 187.699 57.6616 187.552C56.7763 187.405 55.867 187.521 55.048 187.888L55.0476 187.887Z" fill="#A0616A"/>
<path d="M22.8725 296.944H28.3282L30.9235 275.942H22.8716L22.8725 296.944Z" fill="#A0616A"/>
<path d="M32.2253 295.388H21.7036V301.997H38.8501C38.8501 300.244 38.1521 298.562 36.9097 297.322C35.6674 296.082 33.9823 295.386 32.2253 295.386H32.2253L32.2253 295.388Z" fill="#2F2E41"/>
<path d="M1.65479 295.405L7.08385 295.938L11.7301 275.292L3.71694 274.506L1.65479 295.405Z" fill="#A0616A"/>
<path d="M11.1183 294.773L0.649228 293.744L0 300.323L17.0603 302C17.1456 301.136 17.0595 300.263 16.807 299.433C16.5545 298.602 16.1405 297.829 15.5887 297.158C15.0369 296.487 14.3581 295.931 13.591 295.522C12.8239 295.113 11.9835 294.858 11.1179 294.773L11.1183 294.773Z" fill="#2F2E41"/>
<path d="M21.3536 152.212C27.3899 152.212 32.2834 147.329 32.2834 141.304C32.2834 135.28 27.3899 130.396 21.3536 130.396C15.3173 130.396 10.4238 135.28 10.4238 141.304C10.4238 147.329 15.3173 152.212 21.3536 152.212Z" fill="#A0616A"/>
<path d="M29.5478 292.697C30.0168 292.698 30.4712 292.533 30.8306 292.233C31.1901 291.932 31.4316 291.514 31.5125 291.053C34.3343 275.412 43.5668 224.258 43.7875 222.84C43.7925 222.808 43.7948 222.775 43.7946 222.742V218.927C43.795 218.789 43.7516 218.653 43.6705 218.54L42.4512 216.836C42.3932 216.754 42.3172 216.686 42.2289 216.638C42.1407 216.59 42.0425 216.562 41.9421 216.558C34.9902 216.233 12.2229 215.279 11.1228 216.651C10.0183 218.028 10.4108 222.205 10.4998 223.028L10.4954 223.114L0.266926 288.399C0.186804 288.92 0.315352 289.451 0.624751 289.878C0.934151 290.305 1.39951 290.593 1.92012 290.68L8.30861 291.73C8.7844 291.806 9.27181 291.71 9.68218 291.458C10.0926 291.206 10.3986 290.815 10.5448 290.357C12.5206 284.055 19.1463 262.858 21.4425 254.655C21.4572 254.604 21.4901 254.559 21.5352 254.53C21.5803 254.501 21.6345 254.489 21.6877 254.496C21.741 254.504 21.7897 254.53 21.8249 254.571C21.8601 254.611 21.8793 254.663 21.879 254.717C21.7642 262.536 21.487 282.485 21.3895 289.375L21.3793 290.117C21.375 290.619 21.5598 291.105 21.8971 291.478C22.2343 291.851 22.6995 292.084 23.2007 292.131L29.3609 292.688C29.423 292.694 29.4854 292.697 29.5478 292.697Z" fill="#2F2E41"/>
<path d="M28.2905 156.501C30.1978 157.633 31.3393 159.712 31.9943 161.831C33.2068 165.748 33.9367 169.799 34.1677 173.893L34.8601 186.15L43.4287 218.646C36.002 224.918 31.7184 223.492 21.7209 218.363C11.7234 213.233 10.5816 220.073 10.5816 220.073L8.5826 192.423L5.72656 162.209C6.36777 161.438 7.09351 160.742 7.89018 160.133C10.53 158.084 13.6015 156.659 16.8731 155.967C20.1447 155.275 23.5311 155.332 26.7771 156.136L28.2905 156.501Z" fill="#E6E6E6"/>
<path d="M31.0736 194.45C30.8433 194.535 30.6201 194.639 30.4061 194.76L10.6702 184.901L10.3426 179.56L2.20173 179L1.76562 191.175L28.1393 199.879C28.3545 200.802 28.8459 201.637 29.5483 202.274C30.2507 202.91 31.1307 203.319 32.0713 203.444C33.0119 203.569 33.9684 203.406 34.8136 202.976C35.6589 202.545 36.3528 201.868 36.803 201.034C37.2532 200.201 37.4385 199.25 37.334 198.309C37.2296 197.367 36.8405 196.48 36.2185 195.765C35.5964 195.05 34.7709 194.541 33.8518 194.305C32.9327 194.07 31.9635 194.119 31.0732 194.447L31.0736 194.45Z" fill="#A0616A"/>
<path d="M5.86891 162.345C1.01346 164.055 0.157715 182.585 0.157715 182.585C5.87024 179.449 12.7251 184.58 12.7251 184.58C12.7251 184.58 14.1531 179.734 15.8668 173.463C16.3843 171.699 16.4462 169.833 16.0467 168.039C15.6473 166.245 14.7994 164.581 13.5822 163.201C13.5822 163.201 10.7248 160.634 5.86891 162.345Z" fill="#E6E6E6"/>
<path d="M11.5555 144.189C12.9172 143.102 14.7751 145.077 14.7751 145.077L15.8644 135.293C15.8644 135.293 22.673 136.107 27.0314 135.021C31.3898 133.935 32.0702 138.963 32.0702 138.963C32.2949 136.932 32.3404 134.886 32.2064 132.847C31.934 130.401 28.3936 127.954 22.1292 126.323C15.8649 124.692 12.5968 131.76 12.5968 131.76C8.23666 133.934 10.192 145.276 11.5555 144.189Z" fill="#2F2E41"/>
</g>
<defs>
<clipPath id="clip0_9_4643">
<rect width="324" height="302" fill="white"/>
</clipPath>
</defs>
</svg>
