<svg width="16" height="11" viewBox="0 0 16 11" fill="none" xmlns="http://www.w3.org/2000/svg">
<path d="M0.0318647 5.823C1.30386 2.453 4.11486 0 7.99986 0C8.98986 0 9.90986 0.16 10.7539 0.453C10.6888 0.51811 10.6299 0.589076 10.5779 0.665L10.1359 1.305C9.60338 1.14622 9.05448 1.04892 8.49986 1.015V3.5C8.49986 3.63261 8.44719 3.75979 8.35342 3.85355C8.25965 3.94732 8.13247 4 7.99986 4C7.86726 4 7.74008 3.94732 7.64631 3.85355C7.55254 3.75979 7.49986 3.63261 7.49986 3.5V1.016C5.26086 1.156 3.44786 2.246 2.19586 3.915C2.23281 3.93076 2.26773 3.9509 2.29986 3.975L3.79986 5.1C3.90595 5.17957 3.97609 5.29801 3.99484 5.42929C4.01359 5.56056 3.97943 5.69391 3.89986 5.8C3.8203 5.90609 3.70185 5.97622 3.57058 5.99498C3.4393 6.01373 3.30595 5.97956 3.19986 5.9L1.69986 4.775C1.68305 4.76267 1.66702 4.74931 1.65186 4.735C1.38388 5.19566 1.15507 5.67802 0.967865 6.177C0.920921 6.30112 0.826594 6.40151 0.705633 6.45608C0.584672 6.51066 0.446986 6.51494 0.322865 6.468C0.198743 6.42106 0.0983539 6.32673 0.0437808 6.20577C-0.0107923 6.08481 -0.0150786 5.94712 0.0318647 5.823ZM13.2269 2.014C13.2419 1.974 13.2539 1.932 13.2649 1.891C14.4649 2.905 15.3809 4.266 15.9679 5.823C15.9911 5.88446 16.002 5.94989 16 6.01557C15.9979 6.08124 15.983 6.14587 15.9559 6.20577C15.9289 6.26566 15.8904 6.31965 15.8425 6.36464C15.7946 6.40963 15.7383 6.44476 15.6769 6.468C15.6154 6.49124 15.55 6.50216 15.4843 6.50011C15.4186 6.49807 15.354 6.48311 15.2941 6.45608C15.2342 6.42906 15.1802 6.39051 15.1352 6.34262C15.0902 6.29474 15.0551 6.23846 15.0319 6.177C14.8447 5.67768 14.6159 5.19498 14.3479 4.734C14.3328 4.74867 14.3167 4.76237 14.2999 4.775L12.7999 5.9C12.7473 5.9394 12.6876 5.96806 12.624 5.98436C12.5603 6.00065 12.4942 6.00426 12.4292 5.99498C12.3642 5.98569 12.3016 5.96369 12.2451 5.93024C12.1886 5.89678 12.1393 5.85253 12.0999 5.8C12.0605 5.74747 12.0318 5.6877 12.0155 5.62409C11.9992 5.56048 11.9956 5.49429 12.0049 5.42929C12.0142 5.36429 12.0362 5.30175 12.0696 5.24525C12.1031 5.18875 12.1473 5.1394 12.1999 5.1L13.6999 3.975C13.7323 3.95085 13.7676 3.9307 13.8049 3.915C13.5363 3.55588 13.2372 3.22063 12.9109 2.913L13.2269 2.014ZM12.0229 1.07C12.1305 1.1249 12.2147 1.21694 12.2597 1.32908C12.3047 1.44122 12.3076 1.56588 12.2679 1.68L9.62986 9.212C9.50616 9.56514 9.32359 9.89479 9.08986 10.187C7.99986 11.551 5.85286 10.36 6.39986 8.72C6.49803 8.42538 6.63706 8.14599 6.81286 7.89L11.3839 1.234C11.4525 1.13393 11.5551 1.06221 11.6727 1.03222C11.7902 1.00223 11.9147 1.01601 12.0229 1.071V1.07ZM10.0839 4.893L7.63686 8.456C7.51386 8.634 7.41686 8.83 7.34786 9.036C7.14886 9.633 7.92586 10.041 8.30886 9.563C8.47286 9.358 8.59986 9.128 8.68686 8.881L10.0839 4.893Z" fill="#3A494C"/>
</svg>
