<svg width="19" height="18" viewBox="0 0 19 18" fill="none" xmlns="http://www.w3.org/2000/svg">
<path d="M7.56865 6.73122C7.94002 6.3641 8.19292 5.89637 8.29537 5.38718C8.39781 4.87798 8.34521 4.3502 8.1442 3.87056C7.94319 3.39092 7.60281 2.98096 7.1661 2.69254C6.72939 2.40411 6.21596 2.25016 5.69073 2.25016C5.16551 2.25016 4.65208 2.40411 4.21536 2.69254C3.77865 2.98096 3.43827 3.39092 3.23726 3.87056C3.03626 4.3502 2.98365 4.87798 3.0861 5.38718C3.18854 5.89637 3.44144 6.3641 3.81281 6.73122L5.69073 8.58747L7.56865 6.73122ZM5.69073 10.7085L2.73918 7.79247C2.15575 7.21551 1.75849 6.4805 1.59762 5.68038C1.43676 4.88026 1.51952 4.05096 1.83543 3.29733C2.15134 2.54369 2.68623 1.89957 3.37246 1.4464C4.05869 0.993221 4.86544 0.751343 5.69073 0.751343C6.51602 0.751343 7.32278 0.993221 8.00901 1.4464C8.69524 1.89957 9.23012 2.54369 9.54603 3.29733C9.86195 4.05096 9.9447 4.88026 9.78384 5.68038C9.62298 6.4805 9.22572 7.21551 8.64229 7.79247L5.69073 10.71V10.7085ZM5.69073 5.99997C5.38888 5.99997 5.09939 5.88145 4.88595 5.67047C4.67251 5.45949 4.5526 5.17334 4.5526 4.87497C4.5526 4.57661 4.67251 4.29046 4.88595 4.07948C5.09939 3.8685 5.38888 3.74997 5.69073 3.74997C5.99258 3.74997 6.28207 3.8685 6.49551 4.07948C6.70895 4.29046 6.82886 4.57661 6.82886 4.87497C6.82886 5.17334 6.70895 5.45949 6.49551 5.67047C6.28207 5.88145 5.99258 5.99997 5.69073 5.99997ZM12.5195 15.3375L14.3974 13.4812C14.7688 13.1141 15.0217 12.6464 15.1242 12.1372C15.2266 11.628 15.174 11.1002 14.973 10.6206C14.772 10.1409 14.4316 9.73096 13.9949 9.44254C13.5582 9.15411 13.0448 9.00016 12.5195 9.00016C11.9943 9.00016 11.4809 9.15411 11.0442 9.44254C10.6074 9.73096 10.2671 10.1409 10.0661 10.6206C9.86505 11.1002 9.81245 11.628 9.91489 12.1372C10.0173 12.6464 10.2702 13.1141 10.6416 13.4812L12.5195 15.3375ZM15.4711 14.5425L12.5195 17.4585L9.56797 14.5417C8.98454 13.9648 8.58728 13.2297 8.42642 12.4296C8.26555 11.6295 8.34831 10.8002 8.66422 10.0466C8.98014 9.29294 9.51502 8.64882 10.2013 8.19565C10.8875 7.74247 11.6942 7.50059 12.5195 7.50059C13.3448 7.50059 14.1516 7.74247 14.8378 8.19565C15.524 8.64882 16.0589 9.29294 16.3748 10.0466C16.6907 10.8002 16.7735 11.6295 16.6126 12.4296C16.4518 13.2297 16.0545 13.9648 15.4711 14.5417V14.5425ZM12.5195 12.75C12.2177 12.75 11.9282 12.6314 11.7147 12.4205C11.5013 12.2095 11.3814 11.9233 11.3814 11.625C11.3814 11.3266 11.5013 11.0405 11.7147 10.8295C11.9282 10.6185 12.2177 10.5 12.5195 10.5C12.8214 10.5 13.1109 10.6185 13.3243 10.8295C13.5377 11.0405 13.6577 11.3266 13.6577 11.625C13.6577 11.9233 13.5377 12.2095 13.3243 12.4205C13.1109 12.6314 12.8214 12.75 12.5195 12.75Z" fill="#3A494C"/>
</svg>
