<svg width="192" height="45" viewBox="0 0 192 45" fill="none" xmlns="http://www.w3.org/2000/svg">
<path d="M60.6965 6.53241L37.0286 44.4516H84.3617L60.6965 6.53241Z" fill="#D5E0DC"/>
<path d="M23.791 6.53241L0.125854 44.4516H47.4589L23.791 6.53241Z" fill="#D5E0DC"/>
<path d="M43.7705 6.53241L20.1027 44.4516H67.4384L43.7705 6.53241Z" fill="#BBD9D0"/>
<path d="M43.7705 6.53241L20.1027 44.4516H67.4384L43.7705 6.53241Z" fill="#9FCCBD"/>
<path d="M29.5474 38.4354C29.3982 38.4354 29.2552 38.3761 29.1496 38.2704C29.0441 38.1648 28.9849 38.0214 28.9849 37.872V18.1708C28.1178 19.2532 26.9382 20.041 25.6072 20.4266C25.4627 20.4622 25.3099 20.4388 25.1825 20.3616C25.0552 20.2843 24.9637 20.1596 24.9281 20.0149C24.8927 19.8701 24.9161 19.7172 24.9931 19.5896C25.0702 19.4621 25.1948 19.3705 25.3393 19.335C25.4947 19.2947 28.9795 18.3855 28.9795 14.6785C28.9795 14.5291 29.0387 14.3858 29.1443 14.2803C29.2498 14.1746 29.3928 14.1152 29.542 14.1152C29.6912 14.1152 29.8343 14.1746 29.9397 14.2803C30.0453 14.3858 30.1045 14.5291 30.1045 14.6785V37.872C30.1045 38.0207 30.0461 38.1632 29.9416 38.2685C29.8375 38.374 29.6958 38.4341 29.5474 38.4354Z" fill="white"/>
<path d="M25.4463 34.7821H25.3177C25.1738 34.768 25.0409 34.699 24.9466 34.5893C24.8521 34.4799 24.8035 34.338 24.8108 34.1934C24.818 34.0488 24.8805 33.9126 24.9854 33.813C25.0903 33.7133 25.2294 33.658 25.374 33.6583C25.39 33.6583 27.0347 33.72 28.0874 32.7142C28.6901 32.1348 28.9954 31.2952 28.9954 30.2143C28.9954 30.0649 29.0546 29.9216 29.1602 29.816C29.2656 29.7102 29.4087 29.6509 29.5579 29.6509C29.7071 29.6509 29.8501 29.7102 29.9558 29.816C30.0612 29.9216 30.1204 30.0649 30.1204 30.2143C30.1204 31.6171 29.6945 32.7355 28.8535 33.5349C27.6214 34.6964 25.9178 34.7821 25.4463 34.7821Z" fill="white"/>
<path d="M25.4463 23.2563H25.3177C25.1738 23.2423 25.0409 23.1732 24.9466 23.0635C24.8521 22.9539 24.8035 22.8122 24.8108 22.6674C24.818 22.5229 24.8805 22.3867 24.9854 22.2871C25.0903 22.1875 25.2294 22.1321 25.374 22.1324C25.39 22.1324 27.0347 22.1942 28.0874 21.1884C28.6901 20.6089 28.9954 19.7667 28.9954 18.6885C28.9954 18.539 29.0546 18.3958 29.1602 18.2901C29.2656 18.1845 29.4087 18.1251 29.5579 18.1251C29.7071 18.1251 29.8501 18.1845 29.9558 18.2901C30.0612 18.3958 30.1204 18.539 30.1204 18.6885C30.1204 20.0913 29.6945 21.2071 28.8535 22.0064C27.6214 23.1678 25.9178 23.2563 25.4463 23.2563Z" fill="white"/>
<path d="M25.4465 26.2068H25.3178C25.244 26.2041 25.1713 26.1867 25.1042 26.1556C25.0372 26.1244 24.977 26.0802 24.927 26.0255C24.8772 25.9709 24.8387 25.9068 24.8138 25.8371C24.789 25.7674 24.7782 25.6933 24.7822 25.6194C24.7891 25.4704 24.8547 25.3303 24.9647 25.2298C25.0747 25.1292 25.22 25.0765 25.3687 25.083C25.3848 25.083 27.0294 25.1447 28.0822 24.1361C28.6848 23.5567 28.9902 22.7173 28.9902 21.639C28.9902 21.4896 29.0494 21.3463 29.1548 21.2406C29.2604 21.135 29.4035 21.0756 29.5527 21.0756C29.7019 21.0756 29.845 21.135 29.9504 21.2406C30.056 21.3463 30.1152 21.4896 30.1152 21.639C30.1152 23.0391 29.6892 24.1576 28.8482 24.9569C27.6214 26.121 25.9179 26.2068 25.4465 26.2068Z" fill="white"/>
<path d="M25.4463 29.1601H25.3177C25.1738 29.1458 25.0409 29.0769 24.9466 28.9672C24.8521 28.8577 24.8035 28.7159 24.8108 28.5713C24.818 28.4268 24.8805 28.2904 24.9854 28.1909C25.0903 28.0911 25.2294 28.036 25.374 28.0362C25.39 28.0362 27.0347 28.0979 28.0874 27.092C28.6901 26.5127 28.9954 25.6704 28.9954 24.5921C28.9954 24.4427 29.0546 24.2995 29.1602 24.1939C29.2656 24.0882 29.4087 24.0289 29.5579 24.0289C29.7071 24.0289 29.8501 24.0882 29.9558 24.1939C30.0612 24.2995 30.1204 24.4427 30.1204 24.5921C30.1204 25.9949 29.6945 27.1108 28.8535 27.9101C27.6214 29.0742 25.9178 29.1601 25.4463 29.1601Z" fill="white"/>
<path d="M25.4464 32.1105H25.3179C25.1694 32.103 25.03 32.0367 24.9303 31.9265C24.8306 31.816 24.7787 31.6704 24.7862 31.5218C24.7937 31.3732 24.8598 31.2334 24.97 31.1336C25.0803 31.0339 25.2257 30.9819 25.3741 30.9893C25.3902 30.9893 27.0348 31.051 28.0876 30.0424C28.6903 29.4631 28.9956 28.6236 28.9956 27.5453C28.9956 27.3959 29.0548 27.2527 29.1603 27.1469C29.2658 27.0413 29.4089 26.9821 29.5581 26.9821C29.7073 26.9821 29.8503 27.0413 29.9559 27.1469C30.0614 27.2527 30.1206 27.3959 30.1206 27.5453C30.1206 28.9481 29.6947 30.0639 28.8537 30.8632C27.6215 32.0247 25.9179 32.1105 25.4464 32.1105Z" fill="white"/>
<path d="M29.6411 38.4354C29.4919 38.4354 29.3489 38.3761 29.2434 38.2704C29.1378 38.1648 29.0786 38.0214 29.0786 37.872V14.6785C29.0786 14.5291 29.1378 14.3858 29.2434 14.2803C29.3489 14.1746 29.4919 14.1152 29.6411 14.1152C29.7903 14.1152 29.9333 14.1746 30.0389 14.2803C30.1444 14.3858 30.2036 14.5291 30.2036 14.6785C30.2036 18.3908 33.6858 19.2973 33.8438 19.335C33.9884 19.3705 34.113 19.4621 34.1902 19.5896C34.267 19.7172 34.2906 19.8701 34.2549 20.0149C34.2193 20.1596 34.128 20.2843 34.0005 20.3616C33.8733 20.4388 33.7206 20.4622 33.5759 20.4266C32.246 20.0401 31.0675 19.2523 30.2009 18.1708V37.872C30.2009 38.0209 30.142 38.1639 30.0373 38.2693C29.9323 38.3751 29.7898 38.4346 29.6411 38.4354Z" fill="white"/>
<path d="M33.75 34.7821C33.2678 34.7821 31.5643 34.6963 30.3402 33.5321C29.5018 32.7274 29.0759 31.6143 29.0759 30.2115C29.0759 30.0621 29.1351 29.9188 29.2406 29.8131C29.3462 29.7075 29.4892 29.6482 29.6384 29.6482C29.7876 29.6482 29.9306 29.7075 30.0362 29.8131C30.1417 29.9188 30.2009 30.0621 30.2009 30.2115C30.2009 31.2844 30.5062 32.132 31.1089 32.7114C32.1616 33.7199 33.8063 33.6609 33.8223 33.6554C33.9704 33.6518 34.114 33.7054 34.2236 33.8055C34.3328 33.9055 34.3993 34.0439 34.409 34.1919C34.4124 34.2658 34.4014 34.3398 34.3765 34.4092C34.3513 34.4787 34.3131 34.5428 34.2632 34.5973C34.2134 34.652 34.1534 34.6963 34.0864 34.7273C34.0195 34.7587 33.9469 34.7762 33.8732 34.7794L33.75 34.7821Z" fill="white"/>
<path d="M33.75 23.2564C33.2678 23.2564 31.5643 23.1679 30.3402 22.0038C29.5018 21.199 29.0759 20.0886 29.0759 18.6858C29.0759 18.6118 29.0903 18.5385 29.1187 18.4702C29.1469 18.4019 29.1884 18.3398 29.2406 18.2875C29.2928 18.2351 29.355 18.1937 29.4231 18.1654C29.4913 18.1371 29.5645 18.1224 29.6384 18.1224C29.7123 18.1224 29.7854 18.1371 29.8537 18.1654C29.9218 18.1937 29.9839 18.2351 30.0362 18.2875C30.0884 18.3398 30.1299 18.4019 30.158 18.4702C30.1864 18.5385 30.2009 18.6118 30.2009 18.6858C30.2009 19.7587 30.5062 20.6063 31.1089 21.1857C32.1616 22.1915 33.8063 22.1352 33.8223 22.1298C33.9704 22.126 34.114 22.1798 34.2236 22.2797C34.3328 22.3797 34.3993 22.5182 34.409 22.6662C34.4124 22.7401 34.4014 22.8139 34.3765 22.8835C34.3513 22.953 34.3131 23.017 34.2632 23.0716C34.2134 23.1262 34.1534 23.1705 34.0864 23.2017C34.0195 23.233 33.9469 23.2505 33.8732 23.2536L33.75 23.2564Z" fill="white"/>
<path d="M33.75 26.2068C33.2678 26.2068 31.5643 26.121 30.3402 24.9569C29.5018 24.1522 29.0759 23.0391 29.0759 21.639C29.0759 21.565 29.0903 21.4917 29.1187 21.4233C29.1469 21.355 29.1884 21.2929 29.2406 21.2406C29.2928 21.1883 29.355 21.1469 29.4231 21.1186C29.4913 21.0902 29.5645 21.0756 29.6384 21.0756C29.7123 21.0756 29.7854 21.0902 29.8537 21.1186C29.9218 21.1469 29.9839 21.1883 30.0362 21.2406C30.0884 21.2929 30.1299 21.355 30.158 21.4233C30.1864 21.4917 30.2009 21.565 30.2009 21.639C30.2009 22.7119 30.5062 23.5567 31.1089 24.1361C32.1616 25.1447 33.8063 25.0856 33.8223 25.083C33.9704 25.0785 34.1148 25.132 34.2241 25.2322C34.3337 25.3323 34.4001 25.4712 34.409 25.6194C34.4129 25.6933 34.4022 25.7674 34.3773 25.8371C34.3525 25.9068 34.3139 25.9709 34.264 26.0255C34.2142 26.0802 34.1539 26.1244 34.0867 26.1556C34.0197 26.1867 33.9472 26.2041 33.8732 26.2068H33.75Z" fill="white"/>
<path d="M33.75 29.16C33.2678 29.16 31.5643 29.0741 30.3402 27.9074C29.5018 27.1027 29.0759 25.9923 29.0759 24.5894C29.0759 24.5154 29.0903 24.4422 29.1187 24.3738C29.1469 24.3055 29.1884 24.2435 29.2406 24.1911C29.2928 24.1388 29.355 24.0973 29.4231 24.069C29.4913 24.0407 29.5645 24.0261 29.6384 24.0261C29.7123 24.0261 29.7854 24.0407 29.8537 24.069C29.9218 24.0973 29.9839 24.1388 30.0362 24.1911C30.0884 24.2435 30.1299 24.3055 30.158 24.3738C30.1864 24.4422 30.2009 24.5154 30.2009 24.5894C30.2009 25.6624 30.5062 26.5099 31.1089 27.0893C32.1616 28.0952 33.8063 28.0362 33.8223 28.0334C33.9704 28.0289 34.1148 28.0825 34.2241 28.1826C34.3337 28.2829 34.4001 28.4216 34.409 28.5699C34.4124 28.6437 34.4014 28.7177 34.3765 28.7872C34.3513 28.8566 34.3131 28.9208 34.2632 28.9752C34.2134 29.03 34.1534 29.0741 34.0864 29.1053C34.0195 29.1367 33.9469 29.1541 33.8732 29.1573L33.75 29.16Z" fill="white"/>
<path d="M33.75 32.1106C33.2678 32.1106 31.5643 32.0247 30.3402 30.8606C29.5018 30.0559 29.0759 28.9455 29.0759 27.5426C29.0759 27.4686 29.0903 27.3954 29.1187 27.327C29.1469 27.2589 29.1884 27.1966 29.2406 27.1444C29.2928 27.092 29.355 27.0505 29.4231 27.0223C29.4913 26.9939 29.5645 26.9794 29.6384 26.9794C29.7123 26.9794 29.7854 26.9939 29.8537 27.0223C29.9218 27.0505 29.9839 27.092 30.0362 27.1444C30.0884 27.1966 30.1299 27.2589 30.158 27.327C30.1864 27.3954 30.2009 27.4686 30.2009 27.5426C30.2009 28.6155 30.5062 29.4605 31.1089 30.0399C32.1616 31.0484 33.8063 30.9867 33.8223 30.9867C33.9704 30.9829 34.114 31.0365 34.2236 31.1367C34.3328 31.2366 34.3992 31.375 34.409 31.5232C34.4129 31.5971 34.4022 31.6709 34.3773 31.7406C34.3525 31.8104 34.3139 31.8745 34.264 31.9292C34.2142 31.9839 34.1539 32.0282 34.0867 32.0594C34.0197 32.0904 33.9472 32.1078 33.8732 32.1106H33.75Z" fill="white"/>
<path d="M28.425 38.4354C28.2757 38.4354 28.1328 38.3761 28.0272 38.2704C27.9216 38.1648 27.8625 38.0215 27.8625 37.872V18.1707C26.9951 19.2526 25.8155 20.0403 24.4847 20.4266C24.3402 20.4621 24.1875 20.4387 24.0601 20.3615C23.9328 20.2842 23.8413 20.1596 23.8057 20.0148C23.7703 19.87 23.7936 19.7171 23.8707 19.5896C23.9478 19.4621 24.0724 19.3705 24.2169 19.3349C24.375 19.2947 27.8597 18.3854 27.8597 14.6784C27.8697 14.5361 27.9329 14.4028 28.0371 14.3055C28.1413 14.2081 28.2784 14.1541 28.421 14.1541C28.5634 14.1541 28.7006 14.2081 28.8047 14.3055C28.909 14.4028 28.9722 14.5361 28.9821 14.6784V37.872C28.9824 37.9456 28.9684 38.0185 28.9406 38.087C28.9127 38.155 28.8717 38.217 28.8201 38.2693C28.7684 38.3217 28.7068 38.3632 28.639 38.3916C28.5712 38.42 28.4984 38.4351 28.425 38.4354Z" fill="#3A494C"/>
<path d="M24.3134 34.7821H24.1849C24.0411 34.7681 23.9084 34.6992 23.814 34.5898C23.7197 34.4806 23.6709 34.339 23.6778 34.1947C23.6847 34.0504 23.7467 33.9141 23.8511 33.8143C23.9554 33.7143 24.094 33.6585 24.2384 33.6582C24.2545 33.6582 25.9018 33.7199 26.9518 32.714C27.5571 32.1347 27.8625 31.2951 27.8625 30.2142C27.8724 30.0717 27.9356 29.9384 28.0398 29.8413C28.144 29.744 28.2811 29.6898 28.4236 29.6898C28.5662 29.6898 28.7033 29.744 28.8075 29.8413C28.9117 29.9384 28.9749 30.0717 28.9848 30.2142C28.9848 31.617 28.5615 32.7355 27.7205 33.5348C26.4991 34.6963 24.7928 34.7821 24.3134 34.7821Z" fill="#3A494C"/>
<path d="M24.3134 23.2564H24.1848C24.1108 23.2533 24.0382 23.2356 23.971 23.2042C23.9039 23.1727 23.8438 23.1282 23.7938 23.0735C23.7441 23.0186 23.7056 22.9543 23.6807 22.8844C23.6559 22.8145 23.6451 22.7405 23.6491 22.6663C23.6574 22.5179 23.7235 22.3786 23.8331 22.2783C23.9428 22.178 24.0872 22.1247 24.2357 22.1299C24.2517 22.1299 25.8991 22.1915 26.9491 21.1857C27.5544 20.6063 27.8598 19.7641 27.8598 18.6858C27.8545 18.6088 27.8651 18.5314 27.8908 18.4586C27.9166 18.3859 27.957 18.3191 28.0098 18.2628C28.0623 18.2062 28.1261 18.1612 28.1967 18.1304C28.2675 18.0996 28.3438 18.0837 28.421 18.0837C28.4982 18.0837 28.5745 18.0996 28.6451 18.1304C28.7159 18.1612 28.7796 18.2062 28.8321 18.2628C28.885 18.3191 28.9254 18.3859 28.951 18.4586C28.9767 18.5314 28.9875 18.6088 28.9821 18.6858C28.9821 20.0886 28.5589 21.2045 27.7178 22.0038C26.4991 23.1679 24.7928 23.2564 24.3134 23.2564Z" fill="#3A494C"/>
<path d="M24.3133 26.2068H24.1848C24.1109 26.2041 24.0383 26.1867 23.9712 26.1556C23.9042 26.1244 23.8439 26.0802 23.794 26.0256C23.7441 25.9709 23.7057 25.9068 23.6808 25.8371C23.6559 25.7674 23.6451 25.6933 23.6491 25.6195C23.6567 25.4707 23.7226 25.3311 23.8324 25.2306C23.9422 25.1302 24.087 25.0771 24.2357 25.083C24.2517 25.083 25.8991 25.1447 26.9491 24.1362C27.5544 23.5567 27.8598 22.7172 27.8598 21.639C27.8544 21.5618 27.8651 21.4846 27.8908 21.4117C27.9166 21.3389 27.957 21.2723 28.0098 21.2158C28.0623 21.1594 28.1261 21.1144 28.1967 21.0835C28.2675 21.0527 28.3438 21.0368 28.421 21.0368C28.4982 21.0368 28.5744 21.0527 28.6451 21.0835C28.7159 21.1144 28.7795 21.1594 28.8321 21.2158C28.8849 21.2723 28.9254 21.3389 28.951 21.4117C28.9767 21.4846 28.9875 21.5618 28.982 21.639C28.982 23.0391 28.5589 24.1576 27.7178 24.9569C26.4991 26.121 24.7928 26.2068 24.3133 26.2068Z" fill="#3A494C"/>
<path d="M24.3134 29.16H24.1849C24.0411 29.146 23.9084 29.0772 23.814 28.9677C23.7197 28.8585 23.6709 28.7168 23.6778 28.5725C23.6847 28.4283 23.7467 28.292 23.8511 28.1922C23.9554 28.0922 24.094 28.0363 24.2384 28.0361C24.2545 28.0361 25.9018 28.0978 26.9518 27.092C27.5571 26.5126 27.8625 25.6703 27.8625 24.5921C27.8571 24.515 27.8679 24.4377 27.8936 24.3649C27.9193 24.2921 27.9597 24.2254 28.0125 24.1689C28.065 24.1125 28.1287 24.0674 28.1995 24.0366C28.2702 24.0059 28.3465 23.99 28.4237 23.99C28.5008 23.99 28.5771 24.0059 28.6478 24.0366C28.7186 24.0674 28.7823 24.1125 28.8348 24.1689C28.8876 24.2254 28.928 24.2921 28.9537 24.3649C28.9795 24.4377 28.9902 24.515 28.9848 24.5921C28.9848 25.9949 28.5615 27.1107 27.7205 27.9101C26.4991 29.0741 24.7928 29.16 24.3134 29.16Z" fill="#3A494C"/>
<path d="M24.3135 32.1106H24.1849C24.0364 32.1033 23.8969 32.0376 23.7969 31.9274C23.6969 31.8172 23.6447 31.6718 23.6519 31.5232C23.6589 31.3746 23.7247 31.2349 23.8348 31.1345C23.9447 31.0345 24.09 30.9822 24.2384 30.9894C24.2545 30.9894 25.9019 31.0511 26.9519 30.0426C27.5572 29.4632 27.8626 28.6236 27.8626 27.5453C27.8572 27.4684 27.8679 27.3909 27.8936 27.3182C27.9194 27.2455 27.9598 27.1787 28.0125 27.1221C28.0651 27.0658 28.1288 27.0207 28.1995 26.9899C28.2702 26.959 28.3466 26.9432 28.4237 26.9432C28.5008 26.9432 28.5772 26.959 28.6479 26.9899C28.7186 27.0207 28.7823 27.0658 28.8348 27.1221C28.8876 27.1787 28.9281 27.2455 28.9538 27.3182C28.9795 27.3909 28.9902 27.4684 28.9848 27.5453C28.9848 28.9482 28.5617 30.064 27.7205 30.8633C26.4991 32.0247 24.7929 32.1106 24.3135 32.1106Z" fill="#3A494C"/>
<path d="M28.5187 38.4354C28.3695 38.4354 28.2265 38.3761 28.121 38.2704C28.0154 38.1648 27.9562 38.0215 27.9562 37.872V14.6784C27.9661 14.5361 28.0293 14.4028 28.1335 14.3055C28.2377 14.2081 28.3749 14.1541 28.5173 14.1541C28.6599 14.1541 28.797 14.2081 28.9012 14.3055C29.0054 14.4028 29.0686 14.5361 29.0785 14.6784C29.0785 18.3907 32.5741 19.2973 32.7214 19.3349C32.866 19.3705 32.9906 19.4621 33.0677 19.5896C33.1447 19.7171 33.1682 19.87 33.1326 20.0148C33.0969 20.1596 33.0055 20.2842 32.8781 20.3615C32.7509 20.4387 32.5982 20.4621 32.4535 20.4266C31.1228 20.0403 29.9432 19.2526 29.0758 18.1707V37.872C29.0758 38.0204 29.0174 38.1631 28.913 38.2686C28.8088 38.3739 28.6669 38.4341 28.5187 38.4354Z" fill="#3A494C"/>
<path d="M32.6276 34.7821C32.1482 34.7821 30.4446 34.6963 29.2205 33.5321C28.3821 32.7274 27.9562 31.6143 27.9562 30.2115C27.9661 30.0691 28.0293 29.9357 28.1335 29.8386C28.2377 29.7412 28.3749 29.6871 28.5173 29.6871C28.6599 29.6871 28.797 29.7412 28.9012 29.8386C29.0054 29.9357 29.0686 30.0691 29.0785 30.2115C29.0785 31.2844 29.3866 32.1319 29.9893 32.7114C31.0419 33.7199 32.6866 33.6609 32.7026 33.6554C32.8505 33.6523 32.9938 33.7065 33.1031 33.8062C33.2124 33.906 33.2791 34.0442 33.2892 34.1919C33.2957 34.3408 33.2432 34.4865 33.1427 34.5964C33.0423 34.7067 32.9022 34.7724 32.7535 34.7794L32.6276 34.7821Z" fill="#3A494C"/>
<path d="M32.6277 23.2564C32.1483 23.2564 30.4447 23.1679 29.2206 22.0038C28.3822 21.1991 27.9563 20.0886 27.9563 18.6858C27.951 18.6088 27.9616 18.5314 27.9873 18.4586C28.0131 18.3859 28.0535 18.3191 28.1063 18.2628C28.1588 18.2062 28.2225 18.1612 28.2932 18.1304C28.3639 18.0996 28.4403 18.0837 28.5175 18.0837C28.5945 18.0837 28.671 18.0996 28.7416 18.1304C28.8124 18.1612 28.8761 18.2062 28.9286 18.2628C28.9814 18.3191 29.0218 18.3859 29.0475 18.4586C29.0732 18.5314 29.0839 18.6088 29.0786 18.6858C29.0786 19.7587 29.3867 20.6063 29.9893 21.1857C31.042 22.1915 32.6866 22.1352 32.7027 22.1299C32.8506 22.1268 32.9938 22.1808 33.1032 22.2806C33.2124 22.3805 33.2792 22.5186 33.2894 22.6663C33.2958 22.8153 33.2432 22.9608 33.1428 23.0709C33.0424 23.181 32.9023 23.2468 32.7536 23.2537L32.6277 23.2564Z" fill="#3A494C"/>
<path d="M32.6277 26.2068C32.1483 26.2068 30.4447 26.121 29.2206 24.9569C28.3822 24.1522 27.9563 23.0391 27.9563 21.639C27.951 21.5618 27.9616 21.4846 27.9873 21.4117C28.0131 21.3389 28.0535 21.2723 28.1063 21.2158C28.1588 21.1594 28.2225 21.1144 28.2932 21.0835C28.3639 21.0527 28.4403 21.0368 28.5175 21.0368C28.5945 21.0368 28.671 21.0527 28.7416 21.0835C28.8124 21.1144 28.8761 21.1594 28.9286 21.2158C28.9814 21.2723 29.0218 21.3389 29.0475 21.4117C29.0732 21.4846 29.0839 21.5618 29.0786 21.639C29.0786 22.7118 29.3867 23.5567 29.9893 24.1362C31.042 25.1447 32.6866 25.0857 32.7027 25.083C32.8509 25.0792 32.9944 25.1329 33.104 25.2329C33.2132 25.333 33.2797 25.4715 33.2894 25.6195C33.2928 25.6933 33.2818 25.7672 33.2569 25.8368C33.2317 25.9063 33.1935 25.9703 33.1436 26.0248C33.0938 26.0794 33.0338 26.1236 32.9668 26.1549C32.8998 26.1861 32.8273 26.2038 32.7536 26.2068H32.6277Z" fill="#3A494C"/>
<path d="M32.6277 29.16C32.1483 29.16 30.4447 29.0741 29.2206 27.9074C28.3822 27.1027 27.9563 25.9923 27.9563 24.5894C27.951 24.5124 27.9616 24.4351 27.9873 24.3623C28.0131 24.2894 28.0535 24.2227 28.1063 24.1663C28.1588 24.1098 28.2225 24.0648 28.2932 24.034C28.3639 24.0031 28.4403 23.9872 28.5175 23.9872C28.5945 23.9872 28.671 24.0031 28.7416 24.034C28.8124 24.0648 28.8761 24.1098 28.9286 24.1663C28.9814 24.2227 29.0218 24.2894 29.0475 24.3623C29.0732 24.4351 29.0839 24.5124 29.0786 24.5894C29.0786 25.6624 29.3867 26.5099 29.9893 27.0893C31.042 28.0952 32.6866 28.0362 32.7027 28.0334C32.8509 28.0297 32.9944 28.0834 33.104 28.1834C33.2132 28.2835 33.2797 28.4219 33.2894 28.5699C33.2958 28.7188 33.2432 28.8644 33.1428 28.9744C33.0424 29.0847 32.9023 29.1504 32.7536 29.1573L32.6277 29.16Z" fill="#3A494C"/>
<path d="M32.6277 32.1105C32.1483 32.1105 30.4447 32.0247 29.2206 30.8605C28.3822 30.0559 27.9563 28.9454 27.9563 27.5426C27.951 27.4656 27.9616 27.3881 27.9873 27.3154C28.0131 27.2427 28.0535 27.1759 28.1063 27.1194C28.1588 27.063 28.2225 27.0179 28.2932 26.9871C28.3639 26.9563 28.4403 26.9404 28.5175 26.9404C28.5945 26.9404 28.671 26.9563 28.7416 26.9871C28.8124 27.0179 28.8761 27.063 28.9286 27.1194C28.9814 27.1759 29.0218 27.2427 29.0475 27.3154C29.0732 27.3881 29.0839 27.4656 29.0786 27.5426C29.0786 28.6155 29.3867 29.4604 29.9893 30.0398C31.042 31.0483 32.6866 30.9866 32.7027 30.9866C32.8503 30.9843 32.9933 31.0384 33.1023 31.1382C33.2117 31.238 33.2784 31.3755 33.2894 31.5231C33.2928 31.5968 33.2818 31.6709 33.2569 31.7403C33.2317 31.8099 33.1935 31.8739 33.1436 31.9283C33.0938 31.9831 33.0338 32.0274 32.9668 32.0584C32.8998 32.0898 32.8273 32.1073 32.7536 32.1105H32.6277Z" fill="#3A494C"/>
<path d="M41.1617 38.7116C41.0103 38.7116 40.8651 38.6515 40.7582 38.5443C40.6511 38.4372 40.5911 38.2918 40.5911 38.1403V27.8994C39.952 28.6949 39.056 29.2421 38.0572 29.447C37.9828 29.4572 37.9072 29.4526 37.8346 29.4336C37.7617 29.4145 37.6937 29.3813 37.634 29.3359C37.5739 29.2904 37.5239 29.2335 37.4858 29.1686C37.4481 29.1037 37.4232 29.0321 37.413 28.9575C37.4028 28.883 37.4074 28.8073 37.4264 28.7345C37.4454 28.6616 37.4786 28.5936 37.5239 28.5337C37.5694 28.4737 37.6262 28.4232 37.691 28.3854C37.7558 28.3476 37.8273 28.3227 37.9019 28.3124C38.0224 28.2936 40.5804 27.8592 40.5804 24.155C40.5751 24.0764 40.5858 23.9977 40.6123 23.9235C40.6386 23.8494 40.6798 23.7814 40.7333 23.7239C40.7869 23.6664 40.8517 23.6206 40.9238 23.5892C40.9958 23.5579 41.0738 23.5417 41.1523 23.5417C41.2307 23.5417 41.3086 23.5579 41.3808 23.5892C41.4528 23.6206 41.5176 23.6664 41.5713 23.7239C41.6248 23.7814 41.666 23.8494 41.6925 23.9235C41.7188 23.9977 41.7295 24.0764 41.7242 24.155V38.1403C41.7236 38.2902 41.6641 38.434 41.5592 38.5407C41.4542 38.6474 41.3114 38.7089 41.1617 38.7116Z" fill="white"/>
<path d="M36.9643 32.8856H36.8331C36.7553 32.8856 36.6787 32.8696 36.6075 32.839C36.5362 32.8082 36.472 32.7633 36.4183 32.7071C36.3651 32.6507 36.3236 32.5841 36.2965 32.5114C36.2695 32.4385 36.2577 32.361 36.2614 32.2835C36.2652 32.206 36.2847 32.1299 36.3187 32.06C36.3527 31.9904 36.4005 31.9281 36.4591 31.8774C36.5181 31.8265 36.5863 31.7881 36.6602 31.7647C36.7342 31.7412 36.8121 31.7329 36.8893 31.7403C36.9053 31.7403 38.5795 31.8047 39.6536 30.7774C40.267 30.1873 40.5803 29.3316 40.5803 28.2319C40.5903 28.0868 40.6548 27.9509 40.7608 27.8516C40.8672 27.7523 41.0071 27.6971 41.1522 27.6971C41.2974 27.6971 41.4372 27.7523 41.5436 27.8516C41.6496 27.9509 41.7142 28.0868 41.7241 28.2319C41.7241 29.6615 41.2902 30.7989 40.4357 31.6117C39.2009 32.8025 37.4652 32.8856 36.9643 32.8856Z" fill="white"/>
<path d="M36.9643 35.8979H36.8329C36.6828 35.8883 36.5424 35.8198 36.4422 35.7075C36.3421 35.595 36.2901 35.4475 36.2973 35.2971C36.3083 35.1471 36.3771 35.0075 36.4891 34.9073C36.601 34.8073 36.7473 34.7547 36.8973 34.7607C36.9134 34.7607 38.5875 34.8249 39.6616 33.7977C40.275 33.2076 40.5884 32.3519 40.5884 31.2521C40.5982 31.107 40.6629 30.971 40.7689 30.8717C40.8753 30.7726 41.0151 30.7174 41.1603 30.7174C41.3054 30.7174 41.4452 30.7726 41.5516 30.8717C41.6576 30.971 41.7222 31.107 41.7321 31.2521C41.7321 32.6818 41.2982 33.8191 40.4438 34.6345C39.2009 35.8094 37.4651 35.8979 36.9643 35.8979Z" fill="white"/>
<path d="M41.25 38.7116C41.0984 38.7116 40.9528 38.6515 40.8455 38.5445C40.7381 38.4375 40.6775 38.2921 40.6768 38.1403V24.155C40.6714 24.0764 40.6821 23.9977 40.7083 23.9235C40.7349 23.8494 40.7761 23.7814 40.8296 23.7239C40.8833 23.6664 40.948 23.6206 41.0201 23.5892C41.0922 23.5579 41.1702 23.5417 41.2486 23.5417C41.3271 23.5417 41.405 23.5579 41.4771 23.5892C41.5491 23.6206 41.614 23.6664 41.6675 23.7239C41.7211 23.7814 41.7624 23.8494 41.7886 23.9235C41.8151 23.9977 41.8258 24.0764 41.8205 24.155C41.8205 27.9101 44.558 28.5806 44.6731 28.6074C44.7465 28.6236 44.8159 28.6539 44.8775 28.6969C44.9392 28.7397 44.9919 28.7944 45.0324 28.8575C45.0728 28.9207 45.1006 28.9916 45.1138 29.0653C45.1271 29.1393 45.1259 29.2152 45.1097 29.2888C45.0937 29.3622 45.0634 29.4318 45.0205 29.4934C44.9777 29.5551 44.9231 29.6079 44.8602 29.6485C44.7969 29.689 44.7262 29.7168 44.6523 29.73C44.5786 29.7435 44.5028 29.7421 44.4294 29.726C43.3904 29.4274 42.4752 28.8009 41.8205 27.9395V38.1322C41.8215 38.2078 41.8076 38.283 41.7795 38.3532C41.7512 38.4235 41.7093 38.4876 41.6562 38.5415C41.6033 38.5955 41.5398 38.6381 41.4701 38.6673C41.4005 38.6966 41.3255 38.7116 41.25 38.7116Z" fill="white"/>
<path d="M45.4448 32.8856C44.9545 32.8856 43.2189 32.7972 41.9626 31.6089C41.1082 30.8042 40.6742 29.6589 40.6742 28.2293C40.6841 28.0842 40.7487 27.9482 40.8548 27.8489C40.9611 27.7497 41.1009 27.6944 41.246 27.6944C41.3913 27.6944 41.5311 27.7497 41.6375 27.8489C41.7435 27.9482 41.8081 28.0842 41.818 28.2293C41.818 29.329 42.1314 30.1847 42.7448 30.7748C43.8162 31.8021 45.4929 31.7404 45.5091 31.7376C45.6582 31.7331 45.8036 31.7862 45.9148 31.886C46.0263 31.9861 46.0949 32.125 46.1063 32.2741C46.1136 32.4243 46.0616 32.5713 45.9612 32.6834C45.861 32.7953 45.7207 32.8631 45.5707 32.8723L45.4448 32.8856Z" fill="white"/>
<path d="M45.4448 35.8979C44.9545 35.8979 43.2189 35.8094 41.9626 34.6239C41.1082 33.8192 40.6742 32.6711 40.6742 31.2415C40.6841 31.0964 40.7487 30.9604 40.8548 30.8612C40.9611 30.7619 41.1009 30.7066 41.246 30.7066C41.3913 30.7066 41.5311 30.7619 41.6375 30.8612C41.7435 30.9604 41.8081 31.0964 41.818 31.2415C41.818 32.3412 42.1314 33.1969 42.7448 33.787C43.8162 34.8143 45.4929 34.7526 45.5091 34.7499C45.6582 34.7454 45.8036 34.7984 45.9148 34.8985C46.0263 34.9983 46.0949 35.1373 46.1063 35.2863C46.1136 35.4366 46.0616 35.5836 45.9612 35.6957C45.861 35.8075 45.7207 35.8753 45.5707 35.8846L45.4448 35.8979Z" fill="white"/>
<path d="M40.0179 38.7116C39.8666 38.7116 39.7214 38.6515 39.6145 38.5443C39.5074 38.4372 39.4473 38.2918 39.4473 38.1403V27.8994C38.8083 28.6949 37.9123 29.2421 36.9135 29.447C36.7632 29.4677 36.6111 29.4277 36.4902 29.3359C36.3695 29.244 36.2899 29.108 36.2692 28.9575C36.2486 28.807 36.2886 28.6547 36.3802 28.5337C36.472 28.4127 36.6078 28.3331 36.7582 28.3124C36.8786 28.2936 39.4367 27.8592 39.4367 24.155C39.4313 24.0764 39.442 23.9977 39.4686 23.9235C39.4948 23.8494 39.5361 23.7814 39.5896 23.7239C39.6432 23.6664 39.708 23.6206 39.7801 23.5892C39.8523 23.5579 39.9301 23.5417 40.0086 23.5417C40.087 23.5417 40.165 23.5579 40.237 23.5892C40.3091 23.6206 40.3739 23.6664 40.4274 23.7239C40.4811 23.7814 40.5223 23.8494 40.5489 23.9235C40.5751 23.9977 40.5858 24.0764 40.5804 24.155V38.1403C40.5799 38.2902 40.5205 38.434 40.4154 38.5407C40.3104 38.6474 40.1676 38.7089 40.0179 38.7116Z" fill="#3A494C"/>
<path d="M35.8312 32.8856H35.7C35.5535 32.8714 35.4182 32.8014 35.322 32.6902C35.2256 32.5788 35.1758 32.4345 35.1828 32.2875C35.1897 32.1403 35.2526 32.0016 35.359 31.8997C35.4651 31.7978 35.6065 31.7409 35.7535 31.7403C35.7723 31.7403 37.4464 31.8047 38.5178 30.7774C39.1339 30.1873 39.4473 29.3316 39.4473 28.2319C39.4572 28.0868 39.5217 27.9509 39.6279 27.8516C39.7342 27.7523 39.874 27.6971 40.0192 27.6971C40.1644 27.6971 40.3041 27.7523 40.4104 27.8516C40.5165 27.9509 40.5812 28.0868 40.591 28.2319C40.591 29.6615 40.1571 30.7989 39.3026 31.6117C38.0572 32.8025 36.3188 32.8856 35.8312 32.8856Z" fill="#3A494C"/>
<path d="M35.8312 35.8979H35.7C35.5496 35.8883 35.4093 35.8198 35.3092 35.7075C35.209 35.595 35.157 35.4475 35.1642 35.2971C35.1752 35.1477 35.2436 35.0084 35.3549 34.9083C35.4664 34.8083 35.6121 34.7553 35.7616 34.7607C35.7803 34.7607 37.4545 34.8249 38.5258 33.7977C39.142 33.2076 39.4553 32.3519 39.4553 31.2521C39.4652 31.107 39.5298 30.971 39.6358 30.8717C39.7421 30.7726 39.882 30.7174 40.0271 30.7174C40.1723 30.7174 40.3122 30.7726 40.4186 30.8717C40.5246 30.971 40.5891 31.107 40.5991 31.2521C40.5991 32.6818 40.1651 33.8191 39.3107 34.6345C38.057 35.8094 36.3187 35.8979 35.8312 35.8979Z" fill="#3A494C"/>
<path d="M40.1142 38.7116C39.9626 38.7116 39.8171 38.6515 39.7098 38.5445C39.6023 38.4375 39.5417 38.2921 39.541 38.1403V24.155C39.5356 24.0764 39.5464 23.9977 39.5729 23.9235C39.5991 23.8494 39.6404 23.7814 39.6939 23.7239C39.7475 23.6664 39.8123 23.6206 39.8844 23.5892C39.9564 23.5579 40.0344 23.5417 40.1129 23.5417C40.1914 23.5417 40.2693 23.5579 40.3413 23.5892C40.4133 23.6206 40.4782 23.6664 40.5317 23.7239C40.5854 23.7814 40.6267 23.8494 40.6529 23.9235C40.6794 23.9977 40.6901 24.0764 40.6847 24.155C40.6847 27.9101 43.4222 28.5806 43.5374 28.6074C43.6855 28.6399 43.8147 28.7298 43.8966 28.8575C43.9786 28.9854 44.0064 29.1405 43.974 29.2888C43.9416 29.4371 43.8519 29.5663 43.7244 29.6485C43.5967 29.7305 43.4418 29.7584 43.2936 29.726C42.2547 29.4274 41.3394 28.8009 40.6847 27.9395V38.1322C40.6858 38.2078 40.6719 38.283 40.6437 38.3532C40.6154 38.4235 40.5736 38.4876 40.5205 38.5415C40.4675 38.5955 40.4043 38.6381 40.3344 38.6673C40.2648 38.6966 40.1897 38.7116 40.1142 38.7116Z" fill="#3A494C"/>
<path d="M44.3008 32.8856C43.8106 32.8856 42.0749 32.7972 40.8187 31.6089C39.9641 30.8042 39.5303 29.6589 39.5303 28.2293C39.5402 28.0842 39.6047 27.9482 39.7108 27.8489C39.8171 27.7497 39.9569 27.6944 40.1021 27.6944C40.2472 27.6944 40.3871 27.7497 40.4934 27.8489C40.5995 27.9482 40.6641 28.0842 40.674 28.2293C40.674 29.329 40.9874 30.1847 41.6008 30.7748C42.6722 31.8021 44.349 31.7404 44.365 31.7376C44.5143 31.7337 44.6592 31.7871 44.7703 31.8868C44.8815 31.9866 44.95 32.1253 44.9624 32.2741C44.9696 32.4243 44.9177 32.5713 44.8172 32.6834C44.717 32.7953 44.5766 32.8631 44.4267 32.8723L44.3008 32.8856Z" fill="#3A494C"/>
<path d="M44.3008 35.8979C43.8106 35.8979 42.0749 35.8094 40.8187 34.6239C39.9641 33.8192 39.5303 32.6711 39.5303 31.2415C39.5402 31.0964 39.6047 30.9604 39.7108 30.8612C39.8171 30.7619 39.9569 30.7066 40.1021 30.7066C40.2472 30.7066 40.3871 30.7619 40.4934 30.8612C40.5995 30.9604 40.6641 31.0964 40.674 31.2415C40.674 32.3412 40.9874 33.1969 41.6008 33.787C42.6722 34.8143 44.349 34.7526 44.365 34.7499C44.5143 34.7459 44.6592 34.7993 44.7703 34.899C44.8815 34.9988 44.95 35.1376 44.9624 35.2863C44.9696 35.4366 44.9177 35.5836 44.8172 35.6957C44.717 35.8075 44.5766 35.8753 44.4267 35.8846L44.3008 35.8979Z" fill="#3A494C"/>
<path d="M40.7411 21.7866C40.5876 21.7863 40.4403 21.7257 40.3312 21.6175C40.2231 21.5089 40.1625 21.3619 40.1625 21.2085C40.1625 21.0551 40.2231 20.9081 40.3312 20.7994L43.4518 17.6746L42.5732 17.0604C42.507 17.0135 42.4513 16.9533 42.4098 16.8836C42.3683 16.8139 42.3415 16.7363 42.3319 16.6557C42.3219 16.5751 42.3289 16.4934 42.3525 16.4157C42.3763 16.338 42.4157 16.2662 42.4687 16.2047L46.3661 11.728C46.4159 11.6709 46.4764 11.6243 46.5442 11.5906C46.612 11.5569 46.6856 11.537 46.7611 11.5319C46.8367 11.5268 46.9124 11.5366 46.9841 11.5608C47.0558 11.5851 47.1219 11.6232 47.179 11.673C47.2361 11.7228 47.2827 11.7835 47.3161 11.8513C47.3499 11.9193 47.3697 11.9931 47.3748 12.0687C47.3798 12.1443 47.37 12.2201 47.3458 12.2919C47.3218 12.3638 47.2837 12.43 47.2339 12.4871L43.7517 16.481L44.6678 17.1248C44.7369 17.1727 44.7945 17.2352 44.8369 17.308C44.8789 17.3808 44.9044 17.462 44.9116 17.5459C44.9188 17.6298 44.9079 17.7143 44.8792 17.7935C44.8505 17.8728 44.8047 17.9448 44.7455 18.0045L41.1482 21.6203C41.0947 21.6734 41.0311 21.7155 40.9612 21.7441C40.8913 21.7726 40.8166 21.787 40.7411 21.7866Z" fill="#3A494C"/>
<path d="M67.4383 39.2534H20.1026C19.9833 39.2531 19.8661 39.2212 19.7633 39.1605C19.6605 39.0997 19.5758 39.0128 19.5179 38.9082C19.4601 38.8039 19.431 38.6856 19.4341 38.5662C19.4369 38.4469 19.4717 38.3302 19.5347 38.2288L21.9079 34.428C21.9497 34.3441 22.0083 34.2697 22.0805 34.2099C22.1525 34.1501 22.2364 34.1062 22.3266 34.0807C22.4166 34.0554 22.5111 34.0492 22.6037 34.0627C22.6964 34.0761 22.7852 34.1088 22.8645 34.1587C22.9436 34.2086 23.0116 34.2749 23.0638 34.3526C23.116 34.4305 23.1513 34.5184 23.1674 34.6107C23.1835 34.7032 23.1801 34.7979 23.1574 34.8889C23.1347 34.9798 23.0933 35.0648 23.0357 35.1388L21.3026 37.9123H66.2222L43.7705 1.92962L34.3954 16.9503C34.3014 17.1012 34.1512 17.2084 33.9782 17.2483C33.8051 17.2883 33.6233 17.2578 33.4727 17.1636C33.3222 17.0693 33.215 16.919 33.1751 16.7457C33.1352 16.5724 33.1657 16.3903 33.2597 16.2395L43.1973 0.317573C43.257 0.220507 43.3405 0.140365 43.44 0.0847758C43.5393 0.0291869 43.6513 0 43.7651 0C43.879 0 43.991 0.0291869 44.0903 0.0847758C44.1897 0.140365 44.2732 0.220507 44.333 0.317573L68.0008 38.2369C68.0638 38.3382 68.0986 38.4549 68.1016 38.5743C68.1045 38.6936 68.0756 38.8119 68.0177 38.9163C67.9598 39.0209 67.875 39.1077 67.7724 39.1686C67.6695 39.2293 67.5522 39.2612 67.433 39.2615L67.4383 39.2534Z" fill="#3A494C"/>
<path d="M104.546 19.6875L104.529 11.8575L100.648 18.3375H99.6694L95.7882 11.9587V19.6875H93.6957V7.87499H95.5013L100.193 15.705L104.799 7.87499H106.605L106.622 19.6875H104.546ZM115.331 19.8562C114.127 19.8562 113.041 19.5975 112.074 19.08C111.106 18.5512 110.347 17.8256 109.796 16.9031C109.245 15.9694 108.969 14.9287 108.969 13.7812C108.969 12.6337 109.245 11.5987 109.796 10.6762C110.347 9.74249 111.106 9.01686 112.074 8.49936C113.041 7.97061 114.127 7.70624 115.331 7.70624C116.535 7.70624 117.62 7.97061 118.588 8.49936C119.555 9.01686 120.315 9.73686 120.866 10.6594C121.417 11.5819 121.693 12.6225 121.693 13.7812C121.693 14.94 121.417 15.9806 120.866 16.9031C120.315 17.8256 119.555 18.5512 118.588 19.08C117.62 19.5975 116.535 19.8562 115.331 19.8562ZM115.331 17.9325C116.118 17.9325 116.827 17.7581 117.457 17.4094C118.087 17.0494 118.582 16.5544 118.942 15.9244C119.302 15.2831 119.482 14.5687 119.482 13.7812C119.482 12.9937 119.302 12.285 118.942 11.655C118.582 11.0137 118.087 10.5187 117.457 10.17C116.827 9.80999 116.118 9.62999 115.331 9.62999C114.543 9.62999 113.835 9.80999 113.205 10.17C112.575 10.5187 112.08 11.0137 111.72 11.655C111.36 12.285 111.18 12.9937 111.18 13.7812C111.18 14.5687 111.36 15.2831 111.72 15.9244C112.08 16.5544 112.575 17.0494 113.205 17.4094C113.835 17.7581 114.543 17.9325 115.331 17.9325ZM129.097 19.8562C127.466 19.8562 126.195 19.4006 125.284 18.4894C124.372 17.5669 123.917 16.2506 123.917 14.5406V7.87499H126.11V14.4562C126.11 16.7737 127.112 17.9325 129.114 17.9325C131.105 17.9325 132.101 16.7737 132.101 14.4562V7.87499H134.261V14.5406C134.261 16.2506 133.805 17.5669 132.894 18.4894C131.994 19.4006 130.729 19.8562 129.097 19.8562ZM147.83 7.87499V19.6875H146.024L139.511 11.6887V19.6875H137.334V7.87499H139.139L145.653 15.8737V7.87499H147.83ZM153.391 9.73124H149.476V7.87499H159.5V9.73124H155.585V19.6875H153.391V9.73124ZM168.214 16.9537H162.308L161.144 19.6875H158.882L164.198 7.87499H166.358L171.691 19.6875H169.396L168.214 16.9537ZM167.489 15.2325L165.261 10.0687L163.051 15.2325H167.489ZM173.193 7.87499H175.387V19.6875H173.193V7.87499ZM189.078 7.87499V19.6875H187.272L180.759 11.6887V19.6875H178.582V7.87499H180.387L186.901 15.8737V7.87499H189.078ZM102.185 27.1758V37.2656H101.133V32.6099H94.8193V37.2656H93.7526V27.1758H94.8193V31.673H101.133V27.1758H102.185ZM105.478 27.1758H106.545V37.2656H105.478V27.1758ZM112.956 32.5234L110.894 34.6134V37.2656H109.827V27.1758H110.894V33.2729L116.819 27.1758H118.043L113.676 31.745L118.347 37.2656H117.078L112.956 32.5234ZM120.076 27.1758H121.142V37.2656H120.076V27.1758ZM132.857 27.1758V37.2656H131.978L125.492 29.0784V37.2656H124.425V27.1758H125.304L131.805 35.363V27.1758H132.857ZM143.256 32.2207H144.28V36.0692C143.809 36.4825 143.251 36.7996 142.608 37.0206C141.964 37.2416 141.287 37.3521 140.575 37.3521C139.566 37.3521 138.658 37.1311 137.851 36.6891C137.044 36.247 136.41 35.6368 135.949 34.8585C135.487 34.0705 135.257 33.1912 135.257 32.2207C135.257 31.2502 135.487 30.3757 135.949 29.5973C136.41 28.8093 137.044 28.1944 137.851 27.7523C138.658 27.3103 139.571 27.0893 140.59 27.0893C141.358 27.0893 142.065 27.2142 142.708 27.4641C143.352 27.7043 143.895 28.0647 144.338 28.5451L143.675 29.2226C142.876 28.4346 141.863 28.0406 140.633 28.0406C139.816 28.0406 139.076 28.2232 138.413 28.5883C137.76 28.9439 137.246 29.4436 136.871 30.0874C136.496 30.7216 136.309 31.4327 136.309 32.2207C136.309 33.0087 136.496 33.7198 136.871 34.354C137.246 34.9882 137.76 35.4879 138.413 35.853C139.067 36.2182 139.802 36.4008 140.619 36.4008C141.657 36.4008 142.535 36.1413 143.256 35.6224V32.2207ZM155.453 37.3521C154.453 37.3521 153.551 37.1311 152.743 36.6891C151.945 36.247 151.316 35.6368 150.855 34.8585C150.403 34.0705 150.178 33.1912 150.178 32.2207C150.178 31.2502 150.403 30.3757 150.855 29.5973C151.316 28.8093 151.95 28.1944 152.757 27.7523C153.565 27.3103 154.468 27.0893 155.467 27.0893C156.217 27.0893 156.909 27.2142 157.543 27.4641C158.177 27.7139 158.715 28.0791 159.157 28.5595L158.48 29.237C157.692 28.4394 156.697 28.0406 155.496 28.0406C154.699 28.0406 153.973 28.2232 153.32 28.5883C152.666 28.9535 152.152 29.4532 151.777 30.0874C151.412 30.7216 151.23 31.4327 151.23 32.2207C151.23 33.0087 151.412 33.7198 151.777 34.354C152.152 34.9882 152.666 35.4879 153.32 35.853C153.973 36.2182 154.699 36.4008 155.496 36.4008C156.707 36.4008 157.702 35.9972 158.48 35.19L159.157 35.8675C158.715 36.3479 158.172 36.7179 157.529 36.9773C156.895 37.2272 156.203 37.3521 155.453 37.3521ZM161.431 27.1758H162.498V36.3431H168.148V37.2656H161.431V27.1758ZM173.801 37.3521C172.494 37.3521 171.475 36.9773 170.745 36.2278C170.015 35.4783 169.649 34.3876 169.649 32.9558V27.1758H170.716V32.9126C170.716 34.0849 170.98 34.9594 171.509 35.5359C172.038 36.1125 172.801 36.4008 173.801 36.4008C174.81 36.4008 175.579 36.1125 176.107 35.5359C176.636 34.9594 176.9 34.0849 176.9 32.9126V27.1758H177.938V32.9558C177.938 34.3876 177.573 35.4783 176.842 36.2278C176.122 36.9773 175.108 37.3521 173.801 37.3521ZM187.509 32.0621C188.172 32.2063 188.681 32.4946 189.037 32.927C189.402 33.3498 189.584 33.8975 189.584 34.5702C189.584 35.435 189.262 36.1029 188.618 36.5737C187.984 37.035 187.043 37.2656 185.793 37.2656H181.152V27.1758H185.505C186.629 27.1758 187.499 27.4016 188.114 27.8532C188.739 28.3048 189.051 28.9439 189.051 29.7703C189.051 30.3277 188.911 30.8033 188.633 31.1973C188.364 31.5817 187.989 31.87 187.509 32.0621ZM182.218 28.055V31.7162H185.433C186.249 31.7162 186.879 31.5624 187.321 31.2549C187.763 30.9378 187.984 30.4814 187.984 29.8856C187.984 29.2899 187.763 28.8382 187.321 28.5307C186.879 28.2136 186.249 28.055 185.433 28.055H182.218ZM185.779 36.3864C186.682 36.3864 187.365 36.2326 187.826 35.9251C188.287 35.6176 188.518 35.1371 188.518 34.4837C188.518 33.2249 187.604 32.5955 185.779 32.5955H182.218V36.3864H185.779Z" fill="black"/>
</svg>
